<svg width="262" height="141" viewBox="0 0 262 141" fill="none" xmlns="http://www.w3.org/2000/svg">
<g clip-path="url(#clip0_575_3854)">
<path d="M217.537 50.2716V43.46H209.354V35.1158H200.999V43.46H195.228V50.2716H200.999V65.2571C200.999 66.8749 201.171 68.3224 201.429 69.6847C201.688 71.047 202.291 72.3242 203.066 73.4311C203.841 74.5379 204.961 75.3894 206.339 75.9854C207.718 76.5814 209.527 76.922 211.766 76.922C212.714 76.922 213.661 76.8369 214.695 76.6666C215.728 76.4963 216.59 76.326 217.279 75.9854H217.365L217.107 69.3441L216.934 69.4293C216.418 69.6847 215.901 69.855 215.298 69.9401C214.695 70.0253 214.092 70.1104 213.575 70.1104C211.852 70.1104 210.646 69.6847 210.216 68.7481C209.699 67.8115 209.44 66.6195 209.44 65.2571V50.2716H217.537Z" fill="black"/>
<path d="M64.1246 56.4021C64.2969 54.2734 65.2444 52.4002 66.8811 51.0379C68.5177 49.5905 70.585 48.9093 72.9969 48.9093C74.289 48.9093 75.4088 49.0796 76.3563 49.5053C77.3039 49.931 78.0791 50.5271 78.7682 51.2082C79.3712 51.8894 79.888 52.7408 80.1464 53.6774C80.4048 54.5289 80.5771 55.4655 80.5771 56.4872H64.1246V56.4021ZM84.5395 46.951C83.0751 45.5035 81.4385 44.3115 79.4573 43.6303C77.4761 42.864 75.3227 42.5234 73.0831 42.5234C70.585 42.5234 68.2593 42.9492 66.192 43.8006C64.0385 44.6521 62.2296 45.8441 60.6791 47.3767C59.1286 48.9093 57.9227 50.7825 56.9751 52.9111C56.1138 55.0397 55.5969 57.5089 55.5969 60.0633C55.5969 62.7028 56.0276 65.172 56.9751 67.2155C57.8365 69.3441 59.1286 71.1321 60.6791 72.5796C62.2296 74.0271 64.1246 75.1339 66.2781 75.9854C68.4316 76.7517 70.8435 77.1774 73.3415 77.1774C79.5435 77.1774 84.2811 74.9637 87.5544 70.6213L87.6405 70.5361L81.9553 66.0234L81.8692 66.1937C81.0078 67.4709 79.8019 68.4926 78.4237 69.2589C77.0454 70.0252 75.3227 70.3658 73.3415 70.3658C72.2217 70.3658 71.0157 70.1955 69.9821 69.7698C68.9484 69.3441 67.9147 68.8332 67.0534 68.1521C66.192 67.4709 65.5029 66.6195 64.986 65.6829C64.4692 64.7463 64.2108 63.8097 64.1246 62.7028H89.0187V62.5325C89.1049 62.1919 89.1048 61.7662 89.1048 61.4256V60.3187C89.1048 57.4238 88.6742 54.7843 87.8989 52.5705C87.1237 50.2716 86.0039 48.4836 84.5395 46.951Z" fill="black"/>
<path d="M35.3544 52.826C36.1296 51.8894 36.991 51.0379 38.1108 50.4419C39.2306 49.8459 40.5227 49.5053 41.987 49.5053C43.2791 49.5053 44.5712 49.8459 45.7771 50.4419C46.9831 51.0379 47.9306 51.8042 48.6197 52.6557L48.7058 52.826L54.4771 47.8876L54.5633 47.8024L54.4771 47.7173C53.1851 46.0995 51.29 44.8224 49.0504 43.9709C46.8108 43.0343 44.3989 42.6086 41.987 42.6086C39.5751 42.6086 37.2494 43.0343 35.0959 43.8006C32.9425 44.6521 31.0474 45.7589 29.4969 47.2916C27.8603 48.8242 26.5682 50.6122 25.7068 52.7408C24.7593 54.8695 24.3286 57.2535 24.3286 59.893C24.3286 62.6176 24.8454 65.0868 25.7068 67.2155C26.6544 69.3441 27.9464 71.1321 29.5831 72.6647C31.2197 74.1973 33.1148 75.3042 35.2682 76.0705C37.4217 76.8368 39.7474 77.2626 42.1593 77.2626C44.6573 77.2626 46.9831 76.8368 49.0504 76.0705C51.2039 75.3042 52.9266 74.1122 54.3049 72.6647L54.391 72.5796L49.1365 67.3006L49.0504 67.2155L48.9643 67.3858C48.189 68.3224 47.1553 69.0035 45.9494 69.5144C44.6573 70.0252 43.4514 70.2807 42.1593 70.2807C40.6088 70.2807 39.3167 69.9401 38.1969 69.4292C37.0771 68.8332 36.1296 68.0669 35.3544 67.0452C34.5791 66.1086 33.9761 65.0017 33.6316 63.7245C33.3732 62.2771 33.1148 61.085 33.1148 59.8079C33.1148 58.5307 33.287 57.3387 33.6316 56.0615C34.0623 54.8695 34.5791 53.7626 35.3544 52.826Z" fill="black"/>
<path d="M151.986 46.6104C151.038 45.4184 149.746 44.3966 148.196 43.6303C146.645 42.864 144.75 42.5234 142.597 42.5234C140.099 42.5234 137.945 43.1195 136.136 44.3966C134.414 45.5887 133.208 46.951 132.432 48.3984V43.46H124.335V76.1557H132.863V58.1901C132.863 57.1684 133.035 56.0615 133.294 55.0397C133.638 54.018 134.069 53.0814 134.672 52.3151C135.275 51.5488 136.05 50.8676 136.998 50.3568C137.945 49.8459 139.065 49.5905 140.357 49.5905C141.649 49.5905 142.683 49.8459 143.458 50.3568C144.233 50.8676 144.836 51.5488 145.267 52.4002C145.698 53.2517 146.042 54.1031 146.128 55.1249C146.301 56.1466 146.301 57.1684 146.301 58.105V76.2408H154.828V55.806C154.828 54.1031 154.57 52.4854 154.139 50.8676C153.709 49.2499 152.933 47.8876 151.986 46.6104Z" fill="black"/>
<path d="M103.49 49.6756C104.524 49.1647 105.73 48.9093 107.022 48.9093C108.486 48.9093 109.864 49.2499 111.156 49.931C112.448 50.6122 113.396 51.4637 114.085 52.3151L114.171 52.4854L119.77 47.6321L119.684 47.547C118.392 45.8441 116.497 44.5669 114.257 43.8006C112.018 42.9492 109.606 42.6086 107.28 42.6086C105.643 42.6086 104.007 42.7789 102.456 43.2046C100.906 43.6303 99.4415 44.2263 98.2356 45.0778C97.0296 45.9292 95.996 47.0361 95.2207 48.3133C94.4455 49.6756 94.1009 51.2082 94.1009 53.0814C94.1009 54.614 94.3593 55.9763 94.9623 56.9981C95.4791 58.0198 96.2544 58.9564 97.2019 59.6376C98.1494 60.3187 99.1831 60.9147 100.389 61.3405C101.509 61.7662 102.801 62.1068 104.007 62.3622C106.505 62.9582 108.4 63.5542 109.606 64.1502C110.812 64.7463 111.415 65.5977 111.415 66.8749C111.415 67.556 111.242 68.1521 110.984 68.5778C110.64 69.0887 110.295 69.4292 109.778 69.6847C109.261 69.9401 108.744 70.1955 108.141 70.2807C107.539 70.451 106.936 70.451 106.333 70.451C104.61 70.451 102.973 70.1104 101.509 69.3441C100.044 68.5778 98.9247 67.6412 97.9771 66.4492L97.891 66.2789L92.292 71.4727L92.3781 71.5579C94.0148 73.2608 95.996 74.6231 98.4078 75.5597C100.82 76.4963 103.318 76.922 105.902 76.922C107.711 76.922 109.434 76.7517 111.07 76.326C112.707 75.9002 114.257 75.3042 115.463 74.4528C116.755 73.6013 117.789 72.4093 118.478 71.047C119.253 69.6847 119.598 67.9818 119.598 65.9383C119.598 64.3205 119.253 62.9582 118.65 61.8513C118.047 60.7445 117.186 59.8079 116.152 59.0416C115.119 58.2752 113.999 57.6792 112.707 57.2535C111.415 56.8278 110.209 56.4021 109.003 56.1466C106.677 55.6358 104.954 55.0397 103.748 54.5289C102.629 54.018 102.026 53.1666 102.026 51.9745C101.853 51.0379 102.37 50.1865 103.49 49.6756Z" fill="black"/>
<path d="M168.008 56.4021C168.18 54.2734 169.128 52.4002 170.764 51.0379C172.401 49.5905 174.468 48.9093 176.88 48.9093C178.172 48.9093 179.292 49.0796 180.239 49.5053C181.187 49.931 181.962 50.5271 182.651 51.2082C183.254 51.8894 183.771 52.7408 184.029 53.6774C184.288 54.5289 184.46 55.4655 184.46 56.4872H168.008V56.4021ZM188.423 46.951C186.958 45.5035 185.322 44.3115 183.34 43.6303C181.359 42.864 179.206 42.5234 176.966 42.5234C174.468 42.5234 172.142 42.9492 170.075 43.8006C167.922 44.6521 166.113 45.8441 164.562 47.3767C163.012 48.9093 161.806 50.7825 160.858 52.9111C159.997 55.0397 159.48 57.5089 159.48 60.0633C159.48 62.7028 159.911 65.172 160.858 67.2155C161.72 69.3441 163.012 71.1321 164.562 72.5796C166.113 74.0271 168.008 75.1339 170.161 75.9854C172.315 76.7517 174.727 77.1774 177.225 77.1774C183.427 77.1774 188.164 74.9637 191.437 70.6213L191.524 70.5361L185.838 66.0234L185.752 66.1937C184.891 67.4709 183.685 68.4926 182.307 69.2589C180.928 70.0252 179.206 70.3658 177.225 70.3658C176.105 70.3658 174.899 70.1955 173.865 69.7698C172.831 69.3441 171.798 68.8332 170.936 68.1521C170.075 67.4709 169.386 66.6195 168.869 65.6829C168.352 64.7463 168.094 63.8097 168.008 62.7028H192.902V62.5325C192.988 62.1919 192.988 61.7662 192.988 61.4256V60.3187C192.988 57.4238 192.557 54.7843 191.782 52.5705C191.007 50.2716 189.887 48.4836 188.423 46.951Z" fill="black"/>
<path d="M117.531 98.1231H109.003V89.6937H117.531V98.1231Z" fill="black"/>
<path d="M103.835 98.1231H95.3069V89.6937H103.835V98.1231Z" fill="black"/>
<path d="M81.6108 98.1231V106.552H90.1385V98.1231H81.6108Z" fill="black"/>
<path d="M68.001 98.1231V106.552H76.4426V98.1231H68.001Z" fill="black"/>
<path d="M54.3049 98.1231V106.552H62.8327V98.1231H54.3049Z" fill="black"/>
<path d="M35.4406 98.1231H26.9128V89.6937H35.4406V98.1231Z" fill="black"/>
<path d="M49.1366 98.1231H40.6089V89.6937H49.1366V98.1231Z" fill="black"/>
</g>
<defs>
<clipPath id="clip0_575_3854">
<rect width="261" height="141" fill="white" transform="translate(0.5)"/>
</clipPath>
</defs>
</svg>
