<?xml version="1.0" encoding="utf-8"?>
<svg viewBox="140.755 84.456 172.27 148.685" xmlns="http://www.w3.org/2000/svg">
  <defs>
    <style>.cls-1{fill:#fff;}.cls-19,.cls-2{fill:#484848;}.cls-10,.cls-11,.cls-12,.cls-13,.cls-14,.cls-15,.cls-16,.cls-17,.cls-18,.cls-3,.cls-5,.cls-6,.cls-7,.cls-8,.cls-9{fill:none;}.cls-10,.cls-11,.cls-12,.cls-13,.cls-14,.cls-17,.cls-18,.cls-19,.cls-3{stroke:#fff;}.cls-10,.cls-11,.cls-12,.cls-13,.cls-14,.cls-15,.cls-16,.cls-17,.cls-3,.cls-5,.cls-6,.cls-7,.cls-8,.cls-9{stroke-miterlimit:10;}.cls-4{fill:#d9d9d9;}.cls-15,.cls-5,.cls-6,.cls-7,.cls-8,.cls-9{stroke:#d9d9d9;}.cls-6{stroke-dasharray:1.93 1.93;}.cls-7{stroke-dasharray:1.9 1.9;}.cls-8{stroke-dasharray:2.08 2.08;}.cls-9{stroke-dasharray:1.99 1.99;}.cls-10,.cls-11,.cls-12,.cls-13,.cls-14,.cls-16,.cls-17,.cls-18,.cls-19{stroke-linecap:round;}.cls-10,.cls-11,.cls-12,.cls-13,.cls-14{stroke-width:2px;}.cls-11{stroke-dasharray:3.87 3.87;}.cls-12{stroke-dasharray:3.63 3.63;}.cls-13{stroke-dasharray:4.08 4.08;}.cls-14{stroke-dasharray:4.43 4.43;}.cls-15{stroke-dasharray:2.02 2.02;}.cls-16{stroke:#484848;stroke-width:3px;}.cls-17,.cls-18,.cls-19{stroke-width:0.75px;}.cls-18,.cls-19{stroke-linejoin:round;}</style>
  </defs>
  <g id="web_app" data-name="web app">
    <path class="cls-1" d="M277.67,142.81l-6.53-4.57a.6.6,0,0,0-.63,0L264,142.81c-.65.46,0,1.55.63,1.08l6.54-4.57h-.63l6.53,4.57c.66.47,1.29-.62.63-1.08Z"/>
    <path class="cls-1" d="M264,143.89l5.73,4,.81.57a.63.63,0,0,0,.63-1.08l-5.73-4-.81-.57a.63.63,0,0,0-.85.23.64.64,0,0,0,.22.85Z"/>
    <path class="cls-1" d="M263.66,143.35v7a3.32,3.32,0,0,0,0,.89c.09.32.49.52.75.7l3.35,2.35,2.72,1.9c.66.46,1.28-.62.63-1.08l-6.54-4.57.31.53v-7.7a.63.63,0,0,0-1.25,0Z"/>
    <path class="cls-1" d="M264,143.89l5.72,4,.82.58a.63.63,0,0,0,.63-1.08l-5.72-4-.82-.57a.63.63,0,0,0-.85.23.64.64,0,0,0,.22.85Z"/>
    <path class="cls-1" d="M276.73,143.35v7.7l.31-.53-6.53,4.57c-.66.46,0,1.54.63,1.08l5.76-4c.25-.17.53-.33.77-.53s.31-.56.31-.94v-7.31a.63.63,0,0,0-1.25,0Z"/>
    <path class="cls-1" d="M277,142.81l-5.72,4-.81.57a.63.63,0,1,0,.63,1.08l5.72-4,.81-.57a.63.63,0,1,0-.63-1.08Z"/>
    <path class="cls-1" d="M270.2,147.93v7.7a.63.63,0,0,0,1.25,0v-7.7a.63.63,0,0,0-1.25,0Z"/>
    <path class="cls-2" d="M210.44,227l-60.56-32.68c-8.16-4.4-8.16-11.61,0-16l60.56-32.68c8.16-4.4,21.51-4.4,29.66,0l60.57,32.68c8.16,4.4,8.16,11.61,0,16L240.1,227C232,231.4,218.6,231.4,210.44,227Z"/>
    <path class="cls-3" d="M212,186.14l-15-8.07a1.36,1.36,0,0,1,0-2.4l15-8.07a4.05,4.05,0,0,1,3.47,0l15,8.07a1.36,1.36,0,0,1,0,2.4l-15,8.07A4.05,4.05,0,0,1,212,186.14Z"/>
    <path class="cls-4" d="M210.44,173l-60.56-32.68c-8.16-4.4-8.16-11.61,0-16L210.44,91.6c8.16-4.4,21.51-4.4,29.66,0l60.57,32.68c8.16,4.4,8.16,11.61,0,16L240.1,173C232,177.37,218.6,177.37,210.44,173Z"/>
    <path class="cls-3" d="M263.14,180l-6.45-3.48c-.6-.32-.6-.85,0-1.18l6.45-3.48a2.62,2.62,0,0,1,2.19,0l6.45,3.48c.6.33.6.86,0,1.18L265.33,180A2.55,2.55,0,0,1,263.14,180Z"/>
    <path class="cls-3" d="M191.46,201.55l-7.78-4.2c-.93-.5-.93-1.31,0-1.81l7.78-4.2a3.93,3.93,0,0,1,3.35,0l7.79,4.2c.92.5.92,1.31,0,1.81l-7.79,4.2A3.93,3.93,0,0,1,191.46,201.55Z"/>
    <line class="cls-5" x1="151.61" y1="187.91" x2="151.61" y2="186.91"/>
    <line class="cls-6" x1="151.61" y1="184.98" x2="151.61" y2="147.31"/>
    <line class="cls-5" x1="151.61" y1="146.35" x2="151.61" y2="145.35"/>
    <polygon class="cls-4" points="154.1 146.08 151.61 141.76 149.12 146.08 154.1 146.08"/>
    <line class="cls-5" x1="219.71" y1="217.18" x2="219.71" y2="216.18"/>
    <line class="cls-7" x1="219.71" y1="214.28" x2="219.71" y2="181.06"/>
    <line class="cls-5" x1="219.71" y1="180.12" x2="219.71" y2="179.12"/>
    <polygon class="cls-4" points="222.2 179.84 219.71 175.53 217.22 179.84 222.2 179.84"/>
    <line class="cls-5" x1="179.19" y1="201.42" x2="179.19" y2="200.42"/>
    <line class="cls-8" x1="179.19" y1="198.34" x2="179.19" y2="162.02"/>
    <line class="cls-5" x1="179.19" y1="160.98" x2="179.19" y2="159.98"/>
    <polygon class="cls-4" points="181.68 160.71 179.19 156.39 176.69 160.71 181.68 160.71"/>
    <line class="cls-5" x1="291.75" y1="192.41" x2="291.75" y2="191.41"/>
    <line class="cls-9" x1="291.75" y1="189.43" x2="291.75" y2="150.72"/>
    <line class="cls-5" x1="291.75" y1="149.72" x2="291.75" y2="148.72"/>
    <polygon class="cls-4" points="294.25 149.45 291.75 145.13 289.26 149.45 294.25 149.45"/>
    <path class="cls-3" d="M254.33,195.31,234.51,206a6.59,6.59,0,0,1-5.56,0l-3.67-2c-1.53-.83-1.53-2.18,0-3l19.82-10.7a6.59,6.59,0,0,1,5.56,0l3.67,2C255.86,193.14,255.86,194.49,254.33,195.31Z"/>
    <line class="cls-10" x1="193.26" y1="210.42" x2="195" y2="209.44"/>
    <line class="cls-11" x1="198.37" y1="207.55" x2="243.86" y2="181.96"/>
    <polyline class="cls-10" points="245.54 181.01 247.29 180.03 249.12 180.84"/>
    <line class="cls-12" x1="252.44" y1="182.32" x2="264.06" y2="187.49"/>
    <polyline class="cls-10" points="265.72 188.22 267.55 189.04 269.21 187.93"/>
    <line class="cls-13" x1="272.61" y1="185.66" x2="277.7" y2="182.27"/>
    <line class="cls-10" x1="279.39" y1="181.14" x2="281.06" y2="180.03"/>
    <line class="cls-10" x1="184.25" y1="178.91" x2="186.05" y2="179.78"/>
    <line class="cls-14" x1="190.02" y1="181.73" x2="211.9" y2="192.44"/>
    <line class="cls-10" x1="213.88" y1="193.41" x2="215.68" y2="194.29"/>
    <line class="cls-5" x1="257.98" y1="207.05" x2="257.98" y2="206.05"/>
    <line class="cls-15" x1="257.98" y1="204.03" x2="257.98" y2="168.74"/>
    <line class="cls-5" x1="257.98" y1="167.73" x2="257.98" y2="166.73"/>
    <polygon class="cls-4" points="260.48 167.46 257.98 163.15 255.49 167.46 260.48 167.46"/>
    <path class="cls-16" d="M192.69,152.45l49.07-27.57a3.75,3.75,0,0,1,3.36-.16l16.65,7.4a3.73,3.73,0,0,0,3.6-.3l11.8-7.86"/>
    <line class="cls-16" x1="217.21" y1="137.69" x2="183.69" y2="122.06"/>
    <polyline class="cls-2" points="232.44 121.27 218.21 128.95 203.98 121.27"/>
    <polyline class="cls-17" points="232.44 121.27 218.21 128.95 203.98 121.27"/>
    <polygon class="cls-2" points="218.21 112 203.98 104.32 218.21 96.64 232.44 104.32 218.21 112"/>
    <polygon class="cls-18" points="218.21 112 203.98 104.32 218.21 96.64 232.44 104.32 218.21 112"/>
    <polygon class="cls-2" points="203.98 104.32 203.98 121.27 218.21 128.95 218.21 112 203.98 104.32"/>
    <polygon class="cls-18" points="203.98 104.32 203.98 121.27 218.21 128.95 218.21 112 203.98 104.32"/>
    <polygon class="cls-2" points="232.44 104.32 232.44 121.27 218.21 128.95 218.21 112 232.44 104.32"/>
    <polygon class="cls-18" points="232.44 104.32 232.44 121.27 218.21 128.95 218.21 112 232.44 104.32"/>
    <polyline class="cls-2" points="195.47 140.97 187.63 145.2 179.78 140.97"/>
    <polyline class="cls-17" points="195.47 140.97 187.63 145.2 179.78 140.97"/>
    <polygon class="cls-2" points="187.63 135.86 179.78 131.63 187.63 127.39 195.47 131.63 187.63 135.86"/>
    <polygon class="cls-18" points="187.63 135.86 179.78 131.63 187.63 127.39 195.47 131.63 187.63 135.86"/>
    <polygon class="cls-2" points="179.78 131.63 179.78 140.97 187.63 145.2 187.63 135.86 179.78 131.63"/>
    <polygon class="cls-18" points="179.78 131.63 179.78 140.97 187.63 145.2 187.63 135.86 179.78 131.63"/>
    <polygon class="cls-2" points="195.47 131.63 195.47 140.97 187.63 145.2 187.63 135.86 195.47 131.63"/>
    <polygon class="cls-18" points="195.47 131.63 195.47 140.97 187.63 145.2 187.63 135.86 195.47 131.63"/>
    <polyline class="cls-2" points="269.3 122.14 261.45 126.37 253.61 122.14"/>
    <polyline class="cls-17" points="269.3 122.14 261.45 126.37 253.61 122.14"/>
    <polygon class="cls-2" points="261.45 117.03 253.61 112.79 261.45 108.56 269.3 112.79 261.45 117.03"/>
    <polygon class="cls-18" points="261.45 117.03 253.61 112.79 261.45 108.56 269.3 112.79 261.45 117.03"/>
    <polygon class="cls-2" points="253.61 112.79 253.61 122.14 261.45 126.37 261.45 117.03 253.61 112.79"/>
    <polygon class="cls-18" points="253.61 112.79 253.61 122.14 261.45 126.37 261.45 117.03 253.61 112.79"/>
    <polygon class="cls-2" points="269.3 112.79 269.3 122.14 261.45 126.37 261.45 117.03 269.3 112.79"/>
    <polygon class="cls-18" points="269.3 112.79 269.3 122.14 261.45 126.37 261.45 117.03 269.3 112.79"/>
    <polygon class="cls-19" points="253.61 140.82 225.91 155.76 216.25 150.55 243.95 135.61 253.61 140.82"/>
    <polygon class="cls-19" points="216.25 150.55 216.25 164.18 225.91 169.39 225.91 155.76 216.25 150.55"/>
    <polygon class="cls-19" points="253.61 140.82 253.61 154.45 225.91 169.39 225.91 155.76 253.61 140.82"/>
    <polygon class="cls-19" points="253.61 134.68 225.91 149.62 216.25 144.41 243.95 129.47 253.61 134.68"/>
    <polygon class="cls-19" points="216.25 144.41 216.25 158.04 225.91 163.25 225.91 149.62 216.25 144.41"/>
    <polygon class="cls-19" points="253.61 134.68 253.61 148.31 225.91 163.25 225.91 149.62 253.61 134.68"/>
  </g>
</svg>