<svg width="686" height="1751" viewBox="0 0 686 1751" fill="none" xmlns="http://www.w3.org/2000/svg">
<path d="M462.824 127.432C467.504 127.432 471.176 125.02 473.048 122.248L471.608 121.06C470.132 122.5 467.936 123.796 465.128 123.796C459.836 123.796 455.552 119.116 455.552 112.096C455.552 107.236 457.676 103.528 461.708 103.528C465.812 103.528 467.18 106.732 467.18 110.476H473.228C473.228 104.68 468.548 101.368 462.5 101.368C455.84 101.368 450.44 105.94 450.44 114.508C450.44 122.284 455.984 127.432 462.824 127.432ZM481.405 127V101.8H476.437V127H481.405ZM488.203 107.632C489.931 107.632 491.371 106.192 491.371 104.464C491.371 102.736 489.931 101.296 488.203 101.296C486.475 101.296 485.035 102.736 485.035 104.464C485.035 106.192 486.475 107.632 488.203 107.632ZM490.687 127V109.72H485.719V127H490.687ZM510.444 116.632C510.444 112.348 507.744 109.288 502.848 109.288C497.7 109.288 493.956 112.78 493.956 117.856C493.956 124.3 498.384 127.432 503.208 127.432C506.484 127.432 508.896 126.064 510.408 124.228L509.22 122.896C508.248 123.58 507.132 124.264 505.512 124.264C502.38 124.264 499.644 122.32 499.14 117.892H510.444V116.632ZM502.452 111.412C504.72 111.412 505.26 113.068 505.26 115.768H499.068C499.176 113.032 500.256 111.412 502.452 111.412ZM524.537 109.288C521.873 109.288 519.785 110.656 518.633 112.996V109.72H513.773V127H518.741V118.036C518.741 115.12 520.325 112.888 522.521 112.888C524.285 112.888 525.257 114.112 525.257 116.38V127H530.225V115.156C530.225 111.556 528.029 109.288 524.537 109.288ZM540.314 127.432C542.582 127.432 544.49 126.352 545.93 124.84L544.958 123.58C544.31 123.976 543.59 124.228 542.654 124.228C541.142 124.228 540.314 123.292 540.314 121.456V112.06H545.354V109.72H540.314V104.788H538.802C537.83 107.344 535.346 109.684 532.502 110.512V112.06H535.346V122.176C535.346 125.776 537.614 127.432 540.314 127.432Z" fill="#484848"/>
<ellipse cx="166.769" cy="37.128" rx="36.9781" ry="37.128" fill="#484848"/>
<path d="M128 92.3411C128 86.8182 132.477 82.3411 138 82.3411H166.767H195.535C201.058 82.3411 205.535 86.8182 205.535 92.3411V162.466C205.535 167.989 201.058 172.466 195.535 172.466H138C132.477 172.466 128 167.989 128 162.466V92.3411Z" fill="#484848"/>
<mask id="path-4-inside-1_621_1234" fill="white">
<rect x="86.3026" y="418" width="165.441" height="122.992" rx="5"/>
</mask>
<rect x="86.3026" y="418" width="165.441" height="122.992" rx="5" fill="white" stroke="#484848" stroke-width="14" mask="url(#path-4-inside-1_621_1234)"/>
<rect x="112.881" y="439.707" width="22.1222" height="25.3875" rx="3" fill="white" stroke="#484848" stroke-width="4"/>
<rect x="119.5" y="445.62" width="9.97268" height="2.3537" rx="1.17685" fill="white" stroke="#484848" stroke-width="2"/>
<rect x="144.163" y="439.707" width="22.1222" height="25.3875" rx="3" fill="white" stroke="#484848" stroke-width="4"/>
<rect x="150.782" y="445.62" width="9.97268" height="2.3537" rx="1.17685" fill="white" stroke="#484848" stroke-width="2"/>
<rect x="201.738" y="492.22" width="22.1222" height="25.3875" rx="3" transform="rotate(13.1608 201.738 492.22)" fill="white" stroke="#484848" stroke-width="4"/>
<rect x="208.658" y="491.693" width="9.97268" height="2.3537" rx="1.17685" transform="rotate(13.1608 208.658 491.693)" fill="white" stroke="#484848" stroke-width="2"/>
<circle cx="86.8749" cy="487.251" r="27.5416" fill="#484848"/>
<path d="M58 530.79C58 525.267 62.4772 520.79 68 520.79H86.8742H105.748C111.271 520.79 115.748 525.267 115.748 530.79V577.645C115.748 583.168 111.271 587.645 105.748 587.645H68C62.4772 587.645 58 583.168 58 577.645V530.79Z" fill="#484848"/>
<circle cx="250.733" cy="487.251" r="27.5416" fill="#484848"/>
<path d="M221.858 530.79C221.858 525.267 226.335 520.79 231.858 520.79H250.732H269.606C275.129 520.79 279.606 525.267 279.606 530.79V577.645C279.606 583.168 275.129 587.645 269.606 587.645H231.858C226.335 587.645 221.858 583.168 221.858 577.645V530.79Z" fill="#484848"/>
<circle cx="168.804" cy="487.251" r="27.5416" fill="#484848"/>
<path d="M139.929 530.79C139.929 525.267 144.406 520.79 149.929 520.79H168.803H187.677C193.2 520.79 197.677 525.267 197.677 530.79V577.645C197.677 583.168 193.2 587.645 187.677 587.645H149.929C144.406 587.645 139.929 583.168 139.929 577.645V530.79Z" fill="#484848"/>
<path d="M460.34 494C468.908 494 474.092 488.852 474.092 481.4C474.092 473.948 468.908 468.8 460.34 468.8H451.736V494H460.34ZM457.064 470.816H460.34C465.992 470.816 468.44 474.848 468.44 481.4C468.44 487.952 465.992 491.984 460.34 491.984H457.064V470.816ZM493.112 483.632C493.112 479.348 490.412 476.288 485.516 476.288C480.368 476.288 476.624 479.78 476.624 484.856C476.624 491.3 481.052 494.432 485.876 494.432C489.152 494.432 491.564 493.064 493.076 491.228L491.888 489.896C490.916 490.58 489.8 491.264 488.18 491.264C485.048 491.264 482.312 489.32 481.808 484.892H493.112V483.632ZM485.12 478.412C487.388 478.412 487.928 480.068 487.928 482.768H481.736C481.844 480.032 482.924 478.412 485.12 478.412ZM501.517 494.432C505.297 494.432 508.753 492.164 508.753 488.672C508.753 486.152 507.169 484.712 504.289 483.452L502.381 482.624C500.329 481.724 500.041 481.076 500.041 480.248C500.041 479.276 500.905 478.52 502.633 478.52C504.469 478.52 506.377 479.564 507.673 480.536V477.044C506.305 476.612 504.685 476.288 503.065 476.288C498.169 476.288 495.613 478.412 495.613 481.508C495.613 484.208 496.945 485.936 499.789 487.16L501.877 488.06C503.533 488.78 504.397 489.32 504.397 490.328C504.397 491.444 503.425 492.128 501.769 492.128C499.969 492.128 497.701 491.156 495.901 489.788V493.64C497.485 494.108 499.249 494.432 501.517 494.432ZM514.394 474.632C516.122 474.632 517.562 473.192 517.562 471.464C517.562 469.736 516.122 468.296 514.394 468.296C512.666 468.296 511.226 469.736 511.226 471.464C511.226 473.192 512.666 474.632 514.394 474.632ZM516.878 494V476.72H511.91V494H516.878ZM533.719 479.492C532.567 477.512 530.407 476.288 527.887 476.288C523.459 476.288 520.219 479.672 520.219 485.36C520.219 491.048 523.459 494.432 527.887 494.432C530.335 494.432 532.423 493.28 533.611 491.408V494.252C533.611 497.6 531.703 499.004 528.535 499.004C525.835 499.004 523.279 497.312 521.695 495.656V500.408C523.711 501.2 525.619 501.632 528.139 501.632C534.727 501.632 538.579 497.636 538.579 492.164V476.72H533.719V479.492ZM529.507 491.552C527.275 491.552 525.691 489.572 525.691 485.36C525.691 481.148 527.275 479.168 529.507 479.168C531.703 479.168 533.683 481.328 533.683 485.36C533.683 489.392 531.703 491.552 529.507 491.552ZM553.576 476.288C550.912 476.288 548.824 477.656 547.672 479.996V476.72H542.812V494H547.78V485.036C547.78 482.12 549.364 479.888 551.56 479.888C553.324 479.888 554.296 481.112 554.296 483.38V494H559.264V482.156C559.264 478.556 557.068 476.288 553.576 476.288ZM468.332 529.8L463.796 519.72H462.392L458 529.656L454.688 519.72H449.468L455.516 537.216H457.136L461.708 526.776L466.316 537.216H467.936L474.056 519.72H471.464L468.332 529.8ZM484.437 537.432C489.729 537.432 493.761 534.408 493.761 528.36C493.761 522.312 489.729 519.288 484.437 519.288C479.145 519.288 475.113 522.312 475.113 528.36C475.113 534.408 479.145 537.432 484.437 537.432ZM484.437 535.308C482.061 535.308 480.585 533.184 480.585 528.36C480.585 523.536 482.061 521.412 484.437 521.412C486.777 521.412 488.289 523.5 488.289 528.36C488.289 533.184 486.813 535.308 484.437 535.308ZM501.97 537V528.036C501.97 525.156 503.914 523.968 505.642 523.968C506.47 523.968 507.154 524.112 507.802 524.328V519.288H507.55C504.778 519.288 502.798 520.764 501.862 523.932V519.72H497.074V537H501.97ZM515.577 537V528.684L521.769 537H527.997L519.897 526.524L527.133 519.72H523.461L515.577 527.244V511.8H510.609V537H515.577ZM534.459 537.432C538.239 537.432 541.695 535.164 541.695 531.672C541.695 529.152 540.111 527.712 537.231 526.452L535.323 525.624C533.271 524.724 532.983 524.076 532.983 523.248C532.983 522.276 533.847 521.52 535.575 521.52C537.411 521.52 539.319 522.564 540.615 523.536V520.044C539.247 519.612 537.627 519.288 536.007 519.288C531.111 519.288 528.555 521.412 528.555 524.508C528.555 527.208 529.887 528.936 532.731 530.16L534.819 531.06C536.475 531.78 537.339 532.32 537.339 533.328C537.339 534.444 536.367 535.128 534.711 535.128C532.911 535.128 530.643 534.156 528.843 532.788V536.64C530.427 537.108 532.191 537.432 534.459 537.432ZM555.615 519.288C553.059 519.288 550.971 520.548 549.819 522.78V511.8H544.851V537H549.819V528.036C549.819 525.12 551.403 522.888 553.599 522.888C555.363 522.888 556.335 524.112 556.335 526.38V537H561.303V525.156C561.303 521.556 559.107 519.288 555.615 519.288ZM573.804 537.432C579.096 537.432 583.128 534.408 583.128 528.36C583.128 522.312 579.096 519.288 573.804 519.288C568.512 519.288 564.48 522.312 564.48 528.36C564.48 534.408 568.512 537.432 573.804 537.432ZM573.804 535.308C571.428 535.308 569.952 533.184 569.952 528.36C569.952 523.536 571.428 521.412 573.804 521.412C576.144 521.412 577.656 523.5 577.656 528.36C577.656 533.184 576.18 535.308 573.804 535.308ZM597.133 519.288C594.613 519.288 592.453 520.512 591.301 522.492V519.72H586.441V544.2H591.409V534.408C592.597 536.28 594.685 537.432 597.133 537.432C601.561 537.432 604.801 534.048 604.801 528.36C604.801 522.672 601.561 519.288 597.133 519.288ZM595.513 534.552C593.317 534.552 591.337 532.392 591.337 528.36C591.337 524.328 593.317 522.168 595.513 522.168C597.745 522.168 599.329 524.148 599.329 528.36C599.329 532.572 597.745 534.552 595.513 534.552ZM613.209 537.432C616.989 537.432 620.445 535.164 620.445 531.672C620.445 529.152 618.861 527.712 615.981 526.452L614.073 525.624C612.021 524.724 611.733 524.076 611.733 523.248C611.733 522.276 612.597 521.52 614.325 521.52C616.161 521.52 618.069 522.564 619.365 523.536V520.044C617.997 519.612 616.377 519.288 614.757 519.288C609.861 519.288 607.305 521.412 607.305 524.508C607.305 527.208 608.637 528.936 611.481 530.16L613.569 531.06C615.225 531.78 616.089 532.32 616.089 533.328C616.089 534.444 615.117 535.128 613.461 535.128C611.661 535.128 609.393 534.156 607.593 532.788V536.64C609.177 537.108 610.941 537.432 613.209 537.432Z" fill="#484848"/>
<path d="M157.676 866.371C157.676 863.413 160.073 861.016 163.03 861.016H232.387C235.344 861.016 237.741 863.413 237.741 866.371V866.371C237.741 869.328 235.344 871.725 232.387 871.725H163.03C160.073 871.725 157.676 869.328 157.676 866.371V866.371Z" fill="#484848"/>
<path d="M105 868.311L115.733 877.8C116.164 878.181 116.825 878.121 117.181 877.67L133.47 857" stroke="#484848" stroke-width="6"/>
<rect x="82" y="837" width="171" height="167.032" rx="17" stroke="#484848" stroke-width="6"/>
<rect x="157.674" y="895.302" width="80.0658" height="10.7091" rx="5.35457" fill="#484848"/>
<rect x="157.674" y="930.777" width="80.0658" height="10.7091" rx="5.35457" fill="#484848"/>
<rect x="157.674" y="965.578" width="80.0658" height="10.7091" rx="5.35457" fill="#484848"/>
<path d="M104.999 904.139L115.732 913.627C116.162 914.008 116.824 913.948 117.18 913.497L133.469 892.827" stroke="#484848" stroke-width="6"/>
<path d="M104.999 939.202L115.732 948.691C116.162 949.071 116.824 949.012 117.18 948.561L133.469 927.891" stroke="#484848" stroke-width="6"/>
<path d="M104.999 974.273L115.732 983.762C116.162 984.143 116.824 984.083 117.18 983.632L133.469 962.962" stroke="#484848" stroke-width="6"/>
<path d="M43.904 1252.88H40.96L29.056 1284.24L15.808 1252.88H12.864L1.216 1298H5.76L12.736 1270.03L24.832 1298H27.712L38.784 1269.33L46.72 1298H56.256L43.904 1252.88ZM88.1085 1279.57C88.1085 1271.95 83.3085 1266.51 74.6045 1266.51C65.4525 1266.51 58.7965 1272.72 58.7965 1281.74C58.7965 1293.2 66.6685 1298.77 75.2445 1298.77C81.0685 1298.77 85.3565 1296.34 88.0445 1293.07L85.9325 1290.7C84.2045 1291.92 82.2205 1293.14 79.3405 1293.14C73.7725 1293.14 68.9085 1289.68 68.0125 1281.81H88.1085V1279.57ZM73.9005 1270.29C77.9325 1270.29 78.8925 1273.23 78.8925 1278.03H67.8845C68.0765 1273.17 69.9965 1270.29 73.9005 1270.29ZM104.524 1298.77C108.556 1298.77 111.948 1296.85 114.508 1294.16L112.78 1291.92C111.628 1292.62 110.348 1293.07 108.684 1293.07C105.996 1293.07 104.524 1291.41 104.524 1288.14V1271.44H113.484V1267.28H104.524V1258.51H101.836C100.108 1263.06 95.6915 1267.22 90.6355 1268.69V1271.44H95.6915V1289.42C95.6915 1295.82 99.7235 1298.77 104.524 1298.77ZM131.965 1266.51C121.085 1266.51 118.013 1270.67 118.013 1275.22H127.613C127.613 1271.76 129.021 1269.97 132.029 1269.97C135.037 1269.97 136.253 1271.76 136.253 1274.32V1281.87C134.461 1279.25 131.581 1277.71 127.677 1277.71C122.557 1277.71 116.924 1281.23 116.924 1288.27C116.924 1295.18 122.749 1298.77 127.677 1298.77C131.708 1298.77 134.653 1297.1 136.445 1294.29V1298H145.085V1277.14C145.085 1270.35 142.077 1266.51 131.965 1266.51ZM130.941 1293.71C128.061 1293.71 125.373 1291.79 125.373 1288.21C125.373 1284.62 128.061 1282.7 130.941 1282.7C133.693 1282.7 136.381 1284.62 136.381 1288.21C136.381 1291.79 133.693 1293.71 130.941 1293.71ZM167.184 1298.77C173.008 1298.77 177.296 1296.34 179.984 1293.07L177.872 1290.7C176.144 1291.92 174.16 1293.14 171.28 1293.14C165.135 1293.14 159.888 1288.85 159.888 1278.93C159.888 1273.42 161.424 1270.29 165.456 1270.29C169.36 1270.29 170.448 1273.3 170.448 1278.61H179.856C179.856 1272.14 175.056 1266.51 166.224 1266.51C157.2 1266.51 150.736 1272.72 150.736 1281.74C150.736 1293.2 158.608 1298.77 167.184 1298.77ZM189.881 1263.57C192.953 1263.57 195.513 1261.01 195.513 1257.94C195.513 1254.86 192.953 1252.3 189.881 1252.3C186.809 1252.3 184.249 1254.86 184.249 1257.94C184.249 1261.01 186.809 1263.57 189.881 1263.57ZM194.297 1298V1267.28H185.465V1298H194.297ZM212.461 1298.77C216.493 1298.77 219.885 1296.85 222.445 1294.16L220.717 1291.92C219.565 1292.62 218.285 1293.07 216.621 1293.07C213.933 1293.07 212.461 1291.41 212.461 1288.14V1271.44H221.421V1267.28H212.461V1258.51H209.773C208.045 1263.06 203.629 1267.22 198.573 1268.69V1271.44H203.629V1289.42C203.629 1295.82 207.661 1298.77 212.461 1298.77ZM241.374 1286.16L232.606 1267.28H222.942L236.958 1296.98C235.486 1301.33 232.798 1303.06 229.214 1303.06C227.294 1303.06 225.374 1302.8 223.262 1302.03V1311.18C224.222 1311.38 225.246 1311.44 226.526 1311.44C232.158 1311.44 237.406 1306.7 240.67 1298.38L254.174 1267.28H249.246L241.374 1286.16Z" fill="#484848"/>
<path d="M263 1266.7H278.667V1282.43H263V1266.7Z" fill="#484848"/>
<path d="M278.667 1282.43H294.333V1298.16H278.667V1282.43Z" fill="#484848"/>
<rect x="294.333" y="1266.7" width="15.6666" height="15.7301" fill="#484848"/>
<path d="M460.34 1267C468.908 1267 474.092 1261.85 474.092 1254.4C474.092 1246.95 468.908 1241.8 460.34 1241.8H451.736V1267H460.34ZM457.064 1243.82H460.34C465.992 1243.82 468.44 1247.85 468.44 1254.4C468.44 1260.95 465.992 1264.98 460.34 1264.98H457.064V1243.82ZM493.112 1256.63C493.112 1252.35 490.412 1249.29 485.516 1249.29C480.368 1249.29 476.624 1252.78 476.624 1257.86C476.624 1264.3 481.052 1267.43 485.876 1267.43C489.152 1267.43 491.564 1266.06 493.076 1264.23L491.888 1262.9C490.916 1263.58 489.8 1264.26 488.18 1264.26C485.048 1264.26 482.312 1262.32 481.808 1257.89H493.112V1256.63ZM485.12 1251.41C487.388 1251.41 487.928 1253.07 487.928 1255.77H481.736C481.844 1253.03 482.924 1251.41 485.12 1251.41ZM501.517 1267.43C505.297 1267.43 508.753 1265.16 508.753 1261.67C508.753 1259.15 507.169 1257.71 504.289 1256.45L502.381 1255.62C500.329 1254.72 500.041 1254.08 500.041 1253.25C500.041 1252.28 500.905 1251.52 502.633 1251.52C504.469 1251.52 506.377 1252.56 507.673 1253.54V1250.04C506.305 1249.61 504.685 1249.29 503.065 1249.29C498.169 1249.29 495.613 1251.41 495.613 1254.51C495.613 1257.21 496.945 1258.94 499.789 1260.16L501.877 1261.06C503.533 1261.78 504.397 1262.32 504.397 1263.33C504.397 1264.44 503.425 1265.13 501.769 1265.13C499.969 1265.13 497.701 1264.16 495.901 1262.79V1266.64C497.485 1267.11 499.249 1267.43 501.517 1267.43ZM514.394 1247.63C516.122 1247.63 517.562 1246.19 517.562 1244.46C517.562 1242.74 516.122 1241.3 514.394 1241.3C512.666 1241.3 511.226 1242.74 511.226 1244.46C511.226 1246.19 512.666 1247.63 514.394 1247.63ZM516.878 1267V1249.72H511.91V1267H516.878ZM533.719 1252.49C532.567 1250.51 530.407 1249.29 527.887 1249.29C523.459 1249.29 520.219 1252.67 520.219 1258.36C520.219 1264.05 523.459 1267.43 527.887 1267.43C530.335 1267.43 532.423 1266.28 533.611 1264.41V1267.25C533.611 1270.6 531.703 1272 528.535 1272C525.835 1272 523.279 1270.31 521.695 1268.66V1273.41C523.711 1274.2 525.619 1274.63 528.139 1274.63C534.727 1274.63 538.579 1270.64 538.579 1265.16V1249.72H533.719V1252.49ZM529.507 1264.55C527.275 1264.55 525.691 1262.57 525.691 1258.36C525.691 1254.15 527.275 1252.17 529.507 1252.17C531.703 1252.17 533.683 1254.33 533.683 1258.36C533.683 1262.39 531.703 1264.55 529.507 1264.55ZM553.576 1249.29C550.912 1249.29 548.824 1250.66 547.672 1253V1249.72H542.812V1267H547.78V1258.04C547.78 1255.12 549.364 1252.89 551.56 1252.89C553.324 1252.89 554.296 1254.11 554.296 1256.38V1267H559.264V1255.16C559.264 1251.56 557.068 1249.29 553.576 1249.29ZM589.255 1261.13C590.155 1259.08 590.551 1256.7 590.551 1254.22V1252.85H588.139C588.175 1253.54 588.175 1253.79 588.175 1254.29C588.175 1255.84 587.923 1257.57 587.347 1259.19L581.335 1252.92C584.287 1251.84 586.303 1249.65 586.303 1247.09C586.303 1244.07 583.423 1242.16 579.427 1242.16C575.359 1242.16 572.623 1244.25 572.623 1247.67C572.623 1249.61 573.487 1251.05 575.431 1253.14C572.587 1254.72 570.319 1256.81 570.319 1260.3C570.319 1264.19 573.955 1267.43 579.211 1267.43C582.415 1267.43 584.827 1266.46 586.591 1264.91L588.607 1267H594.907L589.255 1261.13ZM579.211 1243.92C581.083 1243.92 582.127 1245.33 582.127 1247.34C582.127 1249.04 581.443 1250.55 580.003 1251.59L578.779 1250.3C577.555 1249.04 576.691 1247.74 576.691 1246.41C576.691 1244.75 577.771 1243.92 579.211 1243.92ZM581.119 1264.34C577.915 1264.34 575.431 1262.28 575.431 1258.86C575.431 1256.92 575.935 1255.77 576.871 1254.69L584.827 1263.04C583.855 1263.83 582.631 1264.34 581.119 1264.34ZM460.34 1310C468.908 1310 474.092 1304.85 474.092 1297.4C474.092 1289.95 468.908 1284.8 460.34 1284.8H451.736V1310H460.34ZM457.064 1286.82H460.34C465.992 1286.82 468.44 1290.85 468.44 1297.4C468.44 1303.95 465.992 1307.98 460.34 1307.98H457.064V1286.82ZM493.112 1299.63C493.112 1295.35 490.412 1292.29 485.516 1292.29C480.368 1292.29 476.624 1295.78 476.624 1300.86C476.624 1307.3 481.052 1310.43 485.876 1310.43C489.152 1310.43 491.564 1309.06 493.076 1307.23L491.888 1305.9C490.916 1306.58 489.8 1307.26 488.18 1307.26C485.048 1307.26 482.312 1305.32 481.808 1300.89H493.112V1299.63ZM485.12 1294.41C487.388 1294.41 487.928 1296.07 487.928 1298.77H481.736C481.844 1296.03 482.924 1294.41 485.12 1294.41ZM503.908 1303.3L499.3 1292.72H493.864L501.748 1310.22H503.476L511.252 1292.72H508.48L503.908 1303.3ZM528.444 1299.63C528.444 1295.35 525.744 1292.29 520.848 1292.29C515.7 1292.29 511.956 1295.78 511.956 1300.86C511.956 1307.3 516.384 1310.43 521.208 1310.43C524.484 1310.43 526.896 1309.06 528.408 1307.23L527.22 1305.9C526.248 1306.58 525.132 1307.26 523.512 1307.26C520.38 1307.26 517.644 1305.32 517.14 1300.89H528.444V1299.63ZM520.452 1294.41C522.72 1294.41 523.26 1296.07 523.26 1298.77H517.068C517.176 1296.03 518.256 1294.41 520.452 1294.41ZM536.741 1310V1284.8H531.773V1310H536.741ZM549.371 1310.43C554.663 1310.43 558.695 1307.41 558.695 1301.36C558.695 1295.31 554.663 1292.29 549.371 1292.29C544.079 1292.29 540.047 1295.31 540.047 1301.36C540.047 1307.41 544.079 1310.43 549.371 1310.43ZM549.371 1308.31C546.995 1308.31 545.519 1306.18 545.519 1301.36C545.519 1296.54 546.995 1294.41 549.371 1294.41C551.711 1294.41 553.223 1296.5 553.223 1301.36C553.223 1306.18 551.747 1308.31 549.371 1308.31ZM572.7 1292.29C570.18 1292.29 568.02 1293.51 566.868 1295.49V1292.72H562.008V1317.2H566.976V1307.41C568.164 1309.28 570.252 1310.43 572.7 1310.43C577.128 1310.43 580.368 1307.05 580.368 1301.36C580.368 1295.67 577.128 1292.29 572.7 1292.29ZM571.08 1307.55C568.884 1307.55 566.904 1305.39 566.904 1301.36C566.904 1297.33 568.884 1295.17 571.08 1295.17C573.312 1295.17 574.896 1297.15 574.896 1301.36C574.896 1305.57 573.312 1307.55 571.08 1307.55ZM604.903 1292.29C602.563 1292.29 600.511 1293.66 599.359 1295.89C598.567 1293.66 596.695 1292.29 594.175 1292.29C591.799 1292.29 589.747 1293.62 588.559 1295.78V1292.72H583.699V1310H588.667V1301.04C588.667 1298.01 590.071 1295.89 592.051 1295.89C593.707 1295.89 594.571 1297.11 594.571 1299.38V1310H599.539V1301.04C599.539 1298.01 600.943 1295.89 602.923 1295.89C604.579 1295.89 605.443 1297.11 605.443 1299.38V1310H610.411V1298.48C610.411 1294.74 608.251 1292.29 604.903 1292.29ZM630.045 1299.63C630.045 1295.35 627.345 1292.29 622.449 1292.29C617.301 1292.29 613.557 1295.78 613.557 1300.86C613.557 1307.3 617.985 1310.43 622.809 1310.43C626.085 1310.43 628.497 1309.06 630.009 1307.23L628.821 1305.9C627.849 1306.58 626.733 1307.26 625.113 1307.26C621.981 1307.26 619.245 1305.32 618.741 1300.89H630.045V1299.63ZM622.053 1294.41C624.321 1294.41 624.861 1296.07 624.861 1298.77H618.669C618.777 1296.03 619.857 1294.41 622.053 1294.41ZM644.139 1292.29C641.475 1292.29 639.387 1293.66 638.235 1296V1292.72H633.375V1310H638.343V1301.04C638.343 1298.12 639.927 1295.89 642.123 1295.89C643.887 1295.89 644.859 1297.11 644.859 1299.38V1310H649.827V1298.16C649.827 1294.56 647.631 1292.29 644.139 1292.29ZM659.916 1310.43C662.184 1310.43 664.092 1309.35 665.532 1307.84L664.56 1306.58C663.912 1306.98 663.192 1307.23 662.256 1307.23C660.744 1307.23 659.916 1306.29 659.916 1304.46V1295.06H664.956V1292.72H659.916V1287.79H658.404C657.432 1290.34 654.948 1292.68 652.104 1293.51V1295.06H654.948V1305.18C654.948 1308.78 657.216 1310.43 659.916 1310.43Z" fill="#484848"/>
<rect x="73.7549" y="1557" width="177.023" height="173.257" rx="20" fill="#484848"/>
<rect x="90.0001" y="1581" width="147" height="2" rx="1" fill="white"/>
<path d="M161.667 1660.4L184.333 1673.58V1699.93L161.667 1686.76V1660.4ZM185.333 1671.84L162.657 1658.67L185.333 1645.49L208.01 1658.67L185.333 1671.84ZM186.333 1673.58L209 1660.4V1686.76L186.333 1699.93V1673.58Z" fill="#484848" stroke="white" stroke-width="2"/>
<path d="M115 1660.4L137.667 1673.58V1699.93L115 1686.76V1660.4ZM138.667 1671.84L115.99 1658.67L138.667 1645.49L161.343 1658.67L138.667 1671.84ZM139.667 1673.58L162.333 1660.4V1686.76L139.667 1699.93V1673.58Z" fill="#484848" stroke="white" stroke-width="2"/>
<path d="M137.667 1619.05L161 1632.25V1658.62L137.667 1645.42V1619.05ZM162 1630.52L138.697 1617.33L162 1604.15L185.303 1617.33L162 1630.52ZM163 1632.25L186.333 1619.05V1645.42L163 1658.62V1632.25Z" fill="#484848" stroke="white" stroke-width="2"/>
<rect x="174.687" y="1750.98" width="4.42993" height="5.21975" rx="2.21496" transform="rotate(-90 174.687 1750.98)" fill="white"/>
<path d="M167 244.667C164.054 244.667 161.667 247.054 161.667 250C161.667 252.946 164.054 255.333 167 255.333C169.946 255.333 172.333 252.946 172.333 250C172.333 247.054 169.946 244.667 167 244.667ZM167 346L172.773 336L161.226 336L167 346ZM166 250L166 337L168 337L168 250L166 250Z" fill="#484848"/>
<path d="M167 659.667C164.054 659.667 161.667 662.054 161.667 665C161.667 667.946 164.054 670.333 167 670.333C169.946 670.333 172.333 667.946 172.333 665C172.333 662.054 169.946 659.667 167 659.667ZM167 761L172.773 751L161.226 751L167 761ZM166 665L166 752L168 752L168 665L166 665Z" fill="#484848"/>
<path d="M167 1077.67C164.054 1077.67 161.667 1080.05 161.667 1083C161.667 1085.95 164.054 1088.33 167 1088.33C169.946 1088.33 172.333 1085.95 172.333 1083C172.333 1080.05 169.946 1077.67 167 1077.67ZM167 1179L172.773 1169L161.226 1169L167 1179ZM166 1083L166 1170L168 1170L168 1083L166 1083Z" fill="#484848"/>
<path d="M167 1380.67C164.054 1380.67 161.667 1383.05 161.667 1386C161.667 1388.95 164.054 1391.33 167 1391.33C169.946 1391.33 172.333 1388.95 172.333 1386C172.333 1383.05 169.946 1380.67 167 1380.67ZM167 1482L172.773 1472L161.226 1472L167 1482ZM166 1386L166 1473L168 1473L168 1386L166 1386Z" fill="#484848"/>
<path d="M457.316 913.432C462.752 913.432 466.856 910.228 466.856 905.08C466.856 901.012 464.372 899.608 460.808 898.06L458.54 897.088C456.056 896.008 454.724 895.18 454.724 893.128C454.724 890.716 456.92 889.6 459.08 889.6C461.6 889.6 463.436 890.464 465.56 892.048V888.664C463.184 887.62 461.06 887.368 459.332 887.368C454.544 887.368 450.476 889.924 450.476 894.784C450.476 898.564 452.456 900.688 456.056 902.2L458.864 903.388C461.42 904.468 462.536 905.296 462.536 907.24C462.536 909.544 460.484 911.128 457.856 911.128C455.228 911.128 453.032 910.084 451.016 908.536V912.136C453.32 913.108 455.444 913.432 457.316 913.432ZM480.942 895.288C478.422 895.288 476.262 896.512 475.11 898.492V895.72H470.25V920.2H475.218V910.408C476.406 912.28 478.494 913.432 480.942 913.432C485.37 913.432 488.61 910.048 488.61 904.36C488.61 898.672 485.37 895.288 480.942 895.288ZM479.322 910.552C477.126 910.552 475.146 908.392 475.146 904.36C475.146 900.328 477.126 898.168 479.322 898.168C481.554 898.168 483.138 900.148 483.138 904.36C483.138 908.572 481.554 910.552 479.322 910.552ZM507.385 902.632C507.385 898.348 504.685 895.288 499.789 895.288C494.641 895.288 490.897 898.78 490.897 903.856C490.897 910.3 495.325 913.432 500.149 913.432C503.425 913.432 505.837 912.064 507.349 910.228L506.161 908.896C505.189 909.58 504.073 910.264 502.453 910.264C499.321 910.264 496.585 908.32 496.081 903.892H507.385V902.632ZM499.393 897.412C501.661 897.412 502.201 899.068 502.201 901.768H496.009C496.117 899.032 497.197 897.412 499.393 897.412ZM518.959 913.432C522.235 913.432 524.647 912.064 526.159 910.228L524.971 908.896C523.999 909.58 522.883 910.264 521.263 910.264C517.807 910.264 514.855 907.852 514.855 902.272C514.855 899.176 515.719 897.412 517.987 897.412C520.183 897.412 520.795 899.104 520.795 902.092H526.087C526.087 898.456 523.387 895.288 518.419 895.288C513.343 895.288 509.707 898.78 509.707 903.856C509.707 910.3 514.135 913.432 518.959 913.432ZM531.726 893.632C533.454 893.632 534.894 892.192 534.894 890.464C534.894 888.736 533.454 887.296 531.726 887.296C529.998 887.296 528.558 888.736 528.558 890.464C528.558 892.192 529.998 893.632 531.726 893.632ZM534.21 913V895.72H529.242V913H534.21ZM554.147 893.632C555.875 893.632 557.315 892.192 557.315 890.464C557.315 888.736 555.875 887.296 554.147 887.296C552.419 887.296 550.979 888.736 550.979 890.464C550.979 892.192 552.419 893.632 554.147 893.632ZM544.679 913V898.06H548.747V895.72H544.571C543.959 895 543.779 894.28 543.779 893.668C543.779 892.516 544.787 891.796 546.047 891.796C547.163 891.796 548.243 892.048 549.143 892.408V887.404C548.891 887.368 548.711 887.368 548.495 887.368C543.563 887.368 540.179 891.22 539.711 895.72H537.227V898.06H539.711V913H544.679ZM556.631 913V895.72H551.663V913H556.631ZM576.397 902.632C576.397 898.348 573.697 895.288 568.801 895.288C563.653 895.288 559.909 898.78 559.909 903.856C559.909 910.3 564.337 913.432 569.161 913.432C572.437 913.432 574.849 912.064 576.361 910.228L575.173 908.896C574.201 909.58 573.085 910.264 571.465 910.264C568.333 910.264 565.597 908.32 565.093 903.892H576.397V902.632ZM568.405 897.412C570.673 897.412 571.213 899.068 571.213 901.768H565.021C565.129 899.032 566.209 897.412 568.405 897.412ZM592.146 898.312C590.958 896.44 588.87 895.288 586.422 895.288C581.994 895.288 578.754 898.672 578.754 904.36C578.754 910.048 581.994 913.432 586.422 913.432C588.942 913.432 591.102 912.208 592.254 910.228V913H597.114V887.8H592.146V898.312ZM588.042 910.552C585.81 910.552 584.226 908.572 584.226 904.36C584.226 900.436 585.63 898.168 588.042 898.168C590.238 898.168 592.218 900.328 592.218 904.36C592.218 908.392 590.238 910.552 588.042 910.552ZM456.056 956V947.036C456.056 944.156 458 942.968 459.728 942.968C460.556 942.968 461.24 943.112 461.888 943.328V938.288H461.636C458.864 938.288 456.884 939.764 455.948 942.932V938.72H451.16V956H456.056ZM479.612 945.632C479.612 941.348 476.912 938.288 472.016 938.288C466.868 938.288 463.124 941.78 463.124 946.856C463.124 953.3 467.552 956.432 472.376 956.432C475.652 956.432 478.064 955.064 479.576 953.228L478.388 951.896C477.416 952.58 476.3 953.264 474.68 953.264C471.548 953.264 468.812 951.32 468.308 946.892H479.612V945.632ZM471.62 940.412C473.888 940.412 474.428 942.068 474.428 944.768H468.236C468.344 942.032 469.424 940.412 471.62 940.412ZM495.469 941.492C494.317 939.512 492.157 938.288 489.637 938.288C485.209 938.288 481.969 941.672 481.969 947.36C481.969 953.048 485.209 956.432 489.637 956.432C492.085 956.432 494.173 955.28 495.361 953.408V963.2H500.329V938.72H495.469V941.492ZM491.257 953.552C489.025 953.552 487.441 951.572 487.441 947.36C487.441 943.148 489.025 941.168 491.257 941.168C493.453 941.168 495.433 943.328 495.433 947.36C495.433 951.392 493.453 953.552 491.257 953.552ZM515.722 947.684C515.722 950.6 514.174 952.832 512.05 952.832C510.322 952.832 509.386 951.608 509.386 949.34V938.72H504.418V950.564C504.418 954.164 506.578 956.432 510.034 956.432C512.626 956.432 514.714 955.064 515.83 952.76V956H520.69V938.72H515.722V947.684ZM527.507 936.632C529.235 936.632 530.675 935.192 530.675 933.464C530.675 931.736 529.235 930.296 527.507 930.296C525.779 930.296 524.339 931.736 524.339 933.464C524.339 935.192 525.779 936.632 527.507 936.632ZM529.991 956V938.72H525.023V956H529.991ZM539.201 956V947.036C539.201 944.156 541.145 942.968 542.873 942.968C543.701 942.968 544.385 943.112 545.033 943.328V938.288H544.781C542.009 938.288 540.029 939.764 539.093 942.932V938.72H534.305V956H539.201ZM562.756 945.632C562.756 941.348 560.056 938.288 555.16 938.288C550.012 938.288 546.268 941.78 546.268 946.856C546.268 953.3 550.696 956.432 555.52 956.432C558.796 956.432 561.208 955.064 562.72 953.228L561.532 951.896C560.56 952.58 559.444 953.264 557.824 953.264C554.692 953.264 551.956 951.32 551.452 946.892H562.756V945.632ZM554.764 940.412C557.032 940.412 557.572 942.068 557.572 944.768H551.38C551.488 942.032 552.568 940.412 554.764 940.412ZM587.29 938.288C584.95 938.288 582.898 939.656 581.746 941.888C580.954 939.656 579.082 938.288 576.562 938.288C574.186 938.288 572.134 939.62 570.946 941.78V938.72H566.086V956H571.054V947.036C571.054 944.012 572.458 941.888 574.438 941.888C576.094 941.888 576.958 943.112 576.958 945.38V956H581.926V947.036C581.926 944.012 583.33 941.888 585.31 941.888C586.966 941.888 587.83 943.112 587.83 945.38V956H592.798V944.48C592.798 940.736 590.638 938.288 587.29 938.288ZM612.432 945.632C612.432 941.348 609.732 938.288 604.836 938.288C599.688 938.288 595.944 941.78 595.944 946.856C595.944 953.3 600.372 956.432 605.196 956.432C608.472 956.432 610.884 955.064 612.396 953.228L611.208 951.896C610.236 952.58 609.12 953.264 607.5 953.264C604.368 953.264 601.632 951.32 601.128 946.892H612.432V945.632ZM604.44 940.412C606.708 940.412 607.248 942.068 607.248 944.768H601.056C601.164 942.032 602.244 940.412 604.44 940.412ZM626.526 938.288C623.862 938.288 621.774 939.656 620.622 941.996V938.72H615.762V956H620.73V947.036C620.73 944.12 622.314 941.888 624.51 941.888C626.274 941.888 627.246 943.112 627.246 945.38V956H632.214V944.156C632.214 940.556 630.018 938.288 626.526 938.288ZM642.302 956.432C644.57 956.432 646.478 955.352 647.918 953.84L646.946 952.58C646.298 952.976 645.578 953.228 644.642 953.228C643.13 953.228 642.302 952.292 642.302 950.456V941.06H647.342V938.72H642.302V933.788H640.79C639.818 936.344 637.334 938.684 634.49 939.512V941.06H637.334V951.176C637.334 954.776 639.602 956.432 642.302 956.432ZM655.326 956.432C659.106 956.432 662.562 954.164 662.562 950.672C662.562 948.152 660.978 946.712 658.098 945.452L656.19 944.624C654.138 943.724 653.85 943.076 653.85 942.248C653.85 941.276 654.714 940.52 656.442 940.52C658.278 940.52 660.186 941.564 661.482 942.536V939.044C660.114 938.612 658.494 938.288 656.874 938.288C651.978 938.288 649.422 940.412 649.422 943.508C649.422 946.208 650.754 947.936 653.598 949.16L655.686 950.06C657.342 950.78 658.206 951.32 658.206 952.328C658.206 953.444 657.234 954.128 655.578 954.128C653.778 954.128 651.51 953.156 649.71 951.788V955.64C651.294 956.108 653.058 956.432 655.326 956.432Z" fill="#484848"/>
<path d="M460.34 1632C468.908 1632 474.092 1626.85 474.092 1619.4C474.092 1611.95 468.908 1606.8 460.34 1606.8H451.736V1632H460.34ZM457.064 1608.82H460.34C465.992 1608.82 468.44 1612.85 468.44 1619.4C468.44 1625.95 465.992 1629.98 460.34 1629.98H457.064V1608.82ZM493.112 1621.63C493.112 1617.35 490.412 1614.29 485.516 1614.29C480.368 1614.29 476.624 1617.78 476.624 1622.86C476.624 1629.3 481.052 1632.43 485.876 1632.43C489.152 1632.43 491.564 1631.06 493.076 1629.23L491.888 1627.9C490.916 1628.58 489.8 1629.26 488.18 1629.26C485.048 1629.26 482.312 1627.32 481.808 1622.89H493.112V1621.63ZM485.12 1616.41C487.388 1616.41 487.928 1618.07 487.928 1620.77H481.736C481.844 1618.03 482.924 1616.41 485.12 1616.41ZM501.517 1632.43C505.297 1632.43 508.753 1630.16 508.753 1626.67C508.753 1624.15 507.169 1622.71 504.289 1621.45L502.381 1620.62C500.329 1619.72 500.041 1619.08 500.041 1618.25C500.041 1617.28 500.905 1616.52 502.633 1616.52C504.469 1616.52 506.377 1617.56 507.673 1618.54V1615.04C506.305 1614.61 504.685 1614.29 503.065 1614.29C498.169 1614.29 495.613 1616.41 495.613 1619.51C495.613 1622.21 496.945 1623.94 499.789 1625.16L501.877 1626.06C503.533 1626.78 504.397 1627.32 504.397 1628.33C504.397 1629.44 503.425 1630.13 501.769 1630.13C499.969 1630.13 497.701 1629.16 495.901 1627.79V1631.64C497.485 1632.11 499.249 1632.43 501.517 1632.43ZM514.394 1612.63C516.122 1612.63 517.562 1611.19 517.562 1609.46C517.562 1607.74 516.122 1606.3 514.394 1606.3C512.666 1606.3 511.226 1607.74 511.226 1609.46C511.226 1611.19 512.666 1612.63 514.394 1612.63ZM516.878 1632V1614.72H511.91V1632H516.878ZM526.087 1632V1623.04C526.087 1620.16 528.031 1618.97 529.759 1618.97C530.587 1618.97 531.271 1619.11 531.919 1619.33V1614.29H531.667C528.895 1614.29 526.915 1615.76 525.979 1618.93V1614.72H521.191V1632H526.087ZM549.643 1621.63C549.643 1617.35 546.943 1614.29 542.047 1614.29C536.899 1614.29 533.155 1617.78 533.155 1622.86C533.155 1629.3 537.583 1632.43 542.407 1632.43C545.683 1632.43 548.095 1631.06 549.607 1629.23L548.419 1627.9C547.447 1628.58 546.331 1629.26 544.711 1629.26C541.579 1629.26 538.843 1627.32 538.339 1622.89H549.643V1621.63ZM541.651 1616.41C543.919 1616.41 544.459 1618.07 544.459 1620.77H538.267C538.375 1618.03 539.455 1616.41 541.651 1616.41ZM565.393 1617.31C564.205 1615.44 562.117 1614.29 559.669 1614.29C555.241 1614.29 552 1617.67 552 1623.36C552 1629.05 555.241 1632.43 559.669 1632.43C562.189 1632.43 564.349 1631.21 565.501 1629.23V1632H570.361V1606.8H565.393V1617.31ZM561.289 1629.55C559.057 1629.55 557.473 1627.57 557.473 1623.36C557.473 1619.44 558.877 1617.17 561.289 1617.17C563.485 1617.17 565.465 1619.33 565.465 1623.36C565.465 1627.39 563.485 1629.55 561.289 1629.55ZM459.476 1675.43C464.768 1675.43 468.8 1672.41 468.8 1666.36C468.8 1660.31 464.768 1657.29 459.476 1657.29C454.184 1657.29 450.152 1660.31 450.152 1666.36C450.152 1672.41 454.184 1675.43 459.476 1675.43ZM459.476 1673.31C457.1 1673.31 455.624 1671.18 455.624 1666.36C455.624 1661.54 457.1 1659.41 459.476 1659.41C461.816 1659.41 463.328 1661.5 463.328 1666.36C463.328 1671.18 461.852 1673.31 459.476 1673.31ZM483.273 1666.68C483.273 1669.6 481.725 1671.83 479.601 1671.83C477.873 1671.83 476.937 1670.61 476.937 1668.34V1657.72H471.969V1669.56C471.969 1673.16 474.129 1675.43 477.585 1675.43C480.177 1675.43 482.265 1674.06 483.381 1671.76V1675H488.241V1657.72H483.273V1666.68ZM498.478 1675.43C500.746 1675.43 502.654 1674.35 504.094 1672.84L503.122 1671.58C502.474 1671.98 501.754 1672.23 500.818 1672.23C499.306 1672.23 498.478 1671.29 498.478 1669.46V1660.06H503.518V1657.72H498.478V1652.79H496.966C495.994 1655.34 493.51 1657.68 490.666 1658.51V1660.06H493.51V1670.18C493.51 1673.78 495.778 1675.43 498.478 1675.43ZM514.353 1675.43C517.629 1675.43 520.041 1674.06 521.553 1672.23L520.365 1670.9C519.393 1671.58 518.277 1672.26 516.657 1672.26C513.201 1672.26 510.249 1669.85 510.249 1664.27C510.249 1661.18 511.113 1659.41 513.381 1659.41C515.577 1659.41 516.189 1661.1 516.189 1664.09H521.481C521.481 1660.46 518.781 1657.29 513.813 1657.29C508.737 1657.29 505.101 1660.78 505.101 1665.86C505.101 1672.3 509.529 1675.43 514.353 1675.43ZM532.953 1675.43C538.245 1675.43 542.277 1672.41 542.277 1666.36C542.277 1660.31 538.245 1657.29 532.953 1657.29C527.661 1657.29 523.629 1660.31 523.629 1666.36C523.629 1672.41 527.661 1675.43 532.953 1675.43ZM532.953 1673.31C530.577 1673.31 529.101 1671.18 529.101 1666.36C529.101 1661.54 530.577 1659.41 532.953 1659.41C535.293 1659.41 536.805 1661.5 536.805 1666.36C536.805 1671.18 535.329 1673.31 532.953 1673.31ZM566.794 1657.29C564.454 1657.29 562.402 1658.66 561.25 1660.89C560.458 1658.66 558.586 1657.29 556.066 1657.29C553.69 1657.29 551.638 1658.62 550.45 1660.78V1657.72H545.59V1675H550.558V1666.04C550.558 1663.01 551.962 1660.89 553.942 1660.89C555.598 1660.89 556.462 1662.11 556.462 1664.38V1675H561.43V1666.04C561.43 1663.01 562.834 1660.89 564.814 1660.89C566.47 1660.89 567.334 1662.11 567.334 1664.38V1675H572.302V1663.48C572.302 1659.74 570.142 1657.29 566.794 1657.29ZM591.936 1664.63C591.936 1660.35 589.236 1657.29 584.34 1657.29C579.192 1657.29 575.448 1660.78 575.448 1665.86C575.448 1672.3 579.876 1675.43 584.7 1675.43C587.976 1675.43 590.388 1674.06 591.9 1672.23L590.712 1670.9C589.74 1671.58 588.624 1672.26 587.004 1672.26C583.872 1672.26 581.136 1670.32 580.632 1665.89H591.936V1664.63ZM583.944 1659.41C586.212 1659.41 586.752 1661.07 586.752 1663.77H580.56C580.668 1661.03 581.748 1659.41 583.944 1659.41Z" fill="#484848"/>
</svg>
