<svg width="1785" height="304" viewBox="0 0 1785 304" fill="none" xmlns="http://www.w3.org/2000/svg">
<path d="M948.667 82C948.667 84.9455 951.054 87.3333 954 87.3333C956.946 87.3333 959.333 84.9455 959.333 82C959.333 79.0545 956.946 76.6667 954 76.6667C951.054 76.6667 948.667 79.0545 948.667 82ZM1050 82L1040 76.2265L1040 87.7735L1050 82ZM954 83L1041 83L1041 81L954 81L954 83Z" fill="#484848"/>
<path d="M1431.67 82C1431.67 84.9455 1434.05 87.3333 1437 87.3333C1439.95 87.3333 1442.33 84.9455 1442.33 82C1442.33 79.0545 1439.95 76.6667 1437 76.6667C1434.05 76.6667 1431.67 79.0545 1431.67 82ZM1533 82L1523 76.2265L1523 87.7735L1533 82ZM1437 83L1524 83L1524 81L1437 81L1437 83Z" fill="#484848"/>
<path d="M589.667 82C589.667 84.9455 592.054 87.3333 595 87.3333C597.946 87.3333 600.333 84.9455 600.333 82C600.333 79.0545 597.946 76.6667 595 76.6667C592.054 76.6667 589.667 79.0545 589.667 82ZM691 82L681 76.2265L681 87.7735L691 82ZM595 83L682 83L682 81L595 81L595 83Z" fill="#484848"/>
<path d="M189.667 82C189.667 84.9455 192.054 87.3333 195 87.3333C197.946 87.3333 200.333 84.9455 200.333 82C200.333 79.0545 197.946 76.6667 195 76.6667C192.054 76.6667 189.667 79.0545 189.667 82ZM291 82L281 76.2265L281 87.7735L291 82ZM195 83L282 83L282 81L195 81L195 83Z" fill="#484848"/>
<rect x="1600.09" y="29.481" width="8.53125" height="8.34973" rx="4.17487" fill="white"/>
<rect x="1612.47" y="29.481" width="8.53125" height="8.34973" rx="4.17487" fill="white"/>
<rect x="1624.84" y="29.481" width="8.53125" height="8.34973" rx="4.17487" fill="white"/>
<path d="M1626.09 253C1634.66 253 1639.84 247.852 1639.84 240.4C1639.84 232.948 1634.66 227.8 1626.09 227.8H1617.48V253H1626.09ZM1622.81 229.816H1626.09C1631.74 229.816 1634.19 233.848 1634.19 240.4C1634.19 246.952 1631.74 250.984 1626.09 250.984H1622.81V229.816ZM1658.86 242.632C1658.86 238.348 1656.16 235.288 1651.26 235.288C1646.12 235.288 1642.37 238.78 1642.37 243.856C1642.37 250.3 1646.8 253.432 1651.62 253.432C1654.9 253.432 1657.31 252.064 1658.82 250.228L1657.64 248.896C1656.66 249.58 1655.55 250.264 1653.93 250.264C1650.8 250.264 1648.06 248.32 1647.56 243.892H1658.86V242.632ZM1650.87 237.412C1653.14 237.412 1653.68 239.068 1653.68 241.768H1647.48C1647.59 239.032 1648.67 237.412 1650.87 237.412ZM1667.27 253.432C1671.05 253.432 1674.5 251.164 1674.5 247.672C1674.5 245.152 1672.92 243.712 1670.04 242.452L1668.13 241.624C1666.08 240.724 1665.79 240.076 1665.79 239.248C1665.79 238.276 1666.65 237.52 1668.38 237.52C1670.22 237.52 1672.13 238.564 1673.42 239.536V236.044C1672.05 235.612 1670.43 235.288 1668.81 235.288C1663.92 235.288 1661.36 237.412 1661.36 240.508C1661.36 243.208 1662.69 244.936 1665.54 246.16L1667.63 247.06C1669.28 247.78 1670.15 248.32 1670.15 249.328C1670.15 250.444 1669.17 251.128 1667.52 251.128C1665.72 251.128 1663.45 250.156 1661.65 248.788V252.64C1663.23 253.108 1665 253.432 1667.27 253.432ZM1680.14 233.632C1681.87 233.632 1683.31 232.192 1683.31 230.464C1683.31 228.736 1681.87 227.296 1680.14 227.296C1678.41 227.296 1676.97 228.736 1676.97 230.464C1676.97 232.192 1678.41 233.632 1680.14 233.632ZM1682.63 253V235.72H1677.66V253H1682.63ZM1691.84 253V244.036C1691.84 241.156 1693.78 239.968 1695.51 239.968C1696.34 239.968 1697.02 240.112 1697.67 240.328V235.288H1697.42C1694.64 235.288 1692.66 236.764 1691.73 239.932V235.72H1686.94V253H1691.84ZM1715.39 242.632C1715.39 238.348 1712.69 235.288 1707.8 235.288C1702.65 235.288 1698.9 238.78 1698.9 243.856C1698.9 250.3 1703.33 253.432 1708.16 253.432C1711.43 253.432 1713.84 252.064 1715.36 250.228L1714.17 248.896C1713.2 249.58 1712.08 250.264 1710.46 250.264C1707.33 250.264 1704.59 248.32 1704.09 243.892H1715.39V242.632ZM1707.4 237.412C1709.67 237.412 1710.21 239.068 1710.21 241.768H1704.02C1704.12 239.032 1705.2 237.412 1707.4 237.412ZM1731.14 238.312C1729.95 236.44 1727.86 235.288 1725.42 235.288C1720.99 235.288 1717.75 238.672 1717.75 244.36C1717.75 250.048 1720.99 253.432 1725.42 253.432C1727.94 253.432 1730.1 252.208 1731.25 250.228V253H1736.11V227.8H1731.14V238.312ZM1727.04 250.552C1724.8 250.552 1723.22 248.572 1723.22 244.36C1723.22 240.436 1724.62 238.168 1727.04 238.168C1729.23 238.168 1731.21 240.328 1731.21 244.36C1731.21 248.392 1729.23 250.552 1727.04 250.552ZM1614.92 296.432C1620.22 296.432 1624.25 293.408 1624.25 287.36C1624.25 281.312 1620.22 278.288 1614.92 278.288C1609.63 278.288 1605.6 281.312 1605.6 287.36C1605.6 293.408 1609.63 296.432 1614.92 296.432ZM1614.92 294.308C1612.55 294.308 1611.07 292.184 1611.07 287.36C1611.07 282.536 1612.55 280.412 1614.92 280.412C1617.26 280.412 1618.78 282.5 1618.78 287.36C1618.78 292.184 1617.3 294.308 1614.92 294.308ZM1638.72 287.684C1638.72 290.6 1637.17 292.832 1635.05 292.832C1633.32 292.832 1632.38 291.608 1632.38 289.34V278.72H1627.42V290.564C1627.42 294.164 1629.58 296.432 1633.03 296.432C1635.62 296.432 1637.71 295.064 1638.83 292.76V296H1643.69V278.72H1638.72V287.684ZM1653.93 296.432C1656.19 296.432 1658.1 295.352 1659.54 293.84L1658.57 292.58C1657.92 292.976 1657.2 293.228 1656.27 293.228C1654.75 293.228 1653.93 292.292 1653.93 290.456V281.06H1658.97V278.72H1653.93V273.788H1652.41C1651.44 276.344 1648.96 278.684 1646.11 279.512V281.06H1648.96V291.176C1648.96 294.776 1651.23 296.432 1653.93 296.432ZM1669.8 296.432C1673.08 296.432 1675.49 295.064 1677 293.228L1675.81 291.896C1674.84 292.58 1673.72 293.264 1672.1 293.264C1668.65 293.264 1665.7 290.852 1665.7 285.272C1665.7 282.176 1666.56 280.412 1668.83 280.412C1671.02 280.412 1671.64 282.104 1671.64 285.092H1676.93C1676.93 281.456 1674.23 278.288 1669.26 278.288C1664.18 278.288 1660.55 281.78 1660.55 286.856C1660.55 293.3 1664.98 296.432 1669.8 296.432ZM1688.4 296.432C1693.69 296.432 1697.72 293.408 1697.72 287.36C1697.72 281.312 1693.69 278.288 1688.4 278.288C1683.11 278.288 1679.08 281.312 1679.08 287.36C1679.08 293.408 1683.11 296.432 1688.4 296.432ZM1688.4 294.308C1686.02 294.308 1684.55 292.184 1684.55 287.36C1684.55 282.536 1686.02 280.412 1688.4 280.412C1690.74 280.412 1692.25 282.5 1692.25 287.36C1692.25 292.184 1690.78 294.308 1688.4 294.308ZM1722.24 278.288C1719.9 278.288 1717.85 279.656 1716.7 281.888C1715.9 279.656 1714.03 278.288 1711.51 278.288C1709.14 278.288 1707.08 279.62 1705.9 281.78V278.72H1701.04V296H1706V287.036C1706 284.012 1707.41 281.888 1709.39 281.888C1711.04 281.888 1711.91 283.112 1711.91 285.38V296H1716.88V287.036C1716.88 284.012 1718.28 281.888 1720.26 281.888C1721.92 281.888 1722.78 283.112 1722.78 285.38V296H1727.75V284.48C1727.75 280.736 1725.59 278.288 1722.24 278.288ZM1747.38 285.632C1747.38 281.348 1744.68 278.288 1739.79 278.288C1734.64 278.288 1730.9 281.78 1730.9 286.856C1730.9 293.3 1735.32 296.432 1740.15 296.432C1743.42 296.432 1745.84 295.064 1747.35 293.228L1746.16 291.896C1745.19 292.58 1744.07 293.264 1742.45 293.264C1739.32 293.264 1736.58 291.32 1736.08 286.892H1747.38V285.632ZM1739.39 280.412C1741.66 280.412 1742.2 282.068 1742.2 284.768H1736.01C1736.12 282.032 1737.2 280.412 1739.39 280.412Z" fill="#484848"/>
<rect x="1582.75" y="13" width="177.023" height="173.257" rx="20" fill="#484848"/>
<rect x="1599" y="37" width="147" height="2" rx="1" fill="white"/>
<path d="M1670.67 116.404L1693.33 129.575V155.929L1670.67 142.758V116.404ZM1694.33 127.843L1671.66 114.667L1694.33 101.49L1717.01 114.667L1694.33 127.843ZM1695.33 129.575L1718 116.404V142.758L1695.33 155.929V129.575Z" fill="#484848" stroke="white" stroke-width="2"/>
<path d="M1624 116.404L1646.67 129.575V155.929L1624 142.758V116.404ZM1647.67 127.843L1624.99 114.667L1647.67 101.49L1670.34 114.667L1647.67 127.843ZM1648.67 129.575L1671.33 116.404V142.758L1648.67 155.929V129.575Z" fill="#484848" stroke="white" stroke-width="2"/>
<path d="M1646.67 75.0481L1670 88.2498V114.619L1646.67 101.417V75.0481ZM1671 86.5177L1647.7 73.3333L1671 60.149L1694.3 73.3333L1671 86.5177ZM1672 88.2498L1695.33 75.0481V101.417L1672 114.619V88.2498Z" fill="#484848" stroke="white" stroke-width="2"/>
<rect x="1683.69" y="206.976" width="4.42993" height="5.21975" rx="2.21496" transform="rotate(-90 1683.69 206.976)" fill="white"/>
<mask id="path-16-inside-1_621_1236" fill="white">
<rect x="355.303" width="165.441" height="122.992" rx="5"/>
</mask>
<rect x="355.303" width="165.441" height="122.992" rx="5" fill="white" stroke="#484848" stroke-width="14" mask="url(#path-16-inside-1_621_1236)"/>
<rect x="381.881" y="21.7065" width="22.1222" height="25.3875" rx="3" fill="white" stroke="#484848" stroke-width="4"/>
<rect x="388.5" y="27.6201" width="9.97268" height="2.3537" rx="1.17685" fill="white" stroke="#484848" stroke-width="2"/>
<rect x="413.163" y="21.7065" width="22.1222" height="25.3875" rx="3" fill="white" stroke="#484848" stroke-width="4"/>
<rect x="419.782" y="27.6201" width="9.97268" height="2.3537" rx="1.17685" fill="white" stroke="#484848" stroke-width="2"/>
<rect x="470.739" y="74.2197" width="22.1222" height="25.3875" rx="3" transform="rotate(13.1608 470.739 74.2197)" fill="white" stroke="#484848" stroke-width="4"/>
<rect x="477.659" y="73.6926" width="9.97268" height="2.3537" rx="1.17685" transform="rotate(13.1608 477.659 73.6926)" fill="white" stroke="#484848" stroke-width="2"/>
<circle cx="355.875" cy="69.2508" r="27.5416" fill="#484848"/>
<path d="M327 112.79C327 107.267 331.477 102.79 337 102.79H355.874H374.748C380.271 102.79 384.748 107.267 384.748 112.79V159.645C384.748 165.168 380.271 169.645 374.748 169.645H337C331.477 169.645 327 165.168 327 159.645V112.79Z" fill="#484848"/>
<circle cx="519.732" cy="69.2508" r="27.5416" fill="#484848"/>
<path d="M490.857 112.79C490.857 107.267 495.335 102.79 500.857 102.79H519.732H538.606C544.129 102.79 548.606 107.267 548.606 112.79V159.645C548.606 165.168 544.129 169.645 538.606 169.645H500.857C495.335 169.645 490.857 165.168 490.857 159.645V112.79Z" fill="#484848"/>
<circle cx="437.804" cy="69.2508" r="27.5416" fill="#484848"/>
<path d="M408.929 112.79C408.929 107.267 413.406 102.79 418.929 102.79H437.803H456.677C462.2 102.79 466.677 107.267 466.677 112.79V159.645C466.677 165.168 462.2 169.645 456.677 169.645H418.929C413.406 169.645 408.929 165.168 408.929 159.645V112.79Z" fill="#484848"/>
<path d="M391.195 253C399.763 253 404.947 247.852 404.947 240.4C404.947 232.948 399.763 227.8 391.195 227.8H382.591V253H391.195ZM387.919 229.816H391.195C396.847 229.816 399.295 233.848 399.295 240.4C399.295 246.952 396.847 250.984 391.195 250.984H387.919V229.816ZM423.967 242.632C423.967 238.348 421.267 235.288 416.371 235.288C411.223 235.288 407.479 238.78 407.479 243.856C407.479 250.3 411.907 253.432 416.731 253.432C420.007 253.432 422.419 252.064 423.931 250.228L422.743 248.896C421.771 249.58 420.655 250.264 419.035 250.264C415.903 250.264 413.167 248.32 412.663 243.892H423.967V242.632ZM415.975 237.412C418.243 237.412 418.783 239.068 418.783 241.768H412.591C412.699 239.032 413.779 237.412 415.975 237.412ZM432.373 253.432C436.153 253.432 439.609 251.164 439.609 247.672C439.609 245.152 438.025 243.712 435.145 242.452L433.237 241.624C431.185 240.724 430.897 240.076 430.897 239.248C430.897 238.276 431.761 237.52 433.489 237.52C435.325 237.52 437.233 238.564 438.529 239.536V236.044C437.161 235.612 435.541 235.288 433.921 235.288C429.025 235.288 426.469 237.412 426.469 240.508C426.469 243.208 427.801 244.936 430.645 246.16L432.733 247.06C434.389 247.78 435.253 248.32 435.253 249.328C435.253 250.444 434.281 251.128 432.625 251.128C430.825 251.128 428.557 250.156 426.757 248.788V252.64C428.341 253.108 430.105 253.432 432.373 253.432ZM445.249 233.632C446.977 233.632 448.417 232.192 448.417 230.464C448.417 228.736 446.977 227.296 445.249 227.296C443.521 227.296 442.081 228.736 442.081 230.464C442.081 232.192 443.521 233.632 445.249 233.632ZM447.733 253V235.72H442.765V253H447.733ZM464.575 238.492C463.423 236.512 461.263 235.288 458.743 235.288C454.315 235.288 451.075 238.672 451.075 244.36C451.075 250.048 454.315 253.432 458.743 253.432C461.191 253.432 463.279 252.28 464.467 250.408V253.252C464.467 256.6 462.559 258.004 459.391 258.004C456.691 258.004 454.135 256.312 452.551 254.656V259.408C454.567 260.2 456.475 260.632 458.995 260.632C465.583 260.632 469.435 256.636 469.435 251.164V235.72H464.575V238.492ZM460.363 250.552C458.131 250.552 456.547 248.572 456.547 244.36C456.547 240.148 458.131 238.168 460.363 238.168C462.559 238.168 464.539 240.328 464.539 244.36C464.539 248.392 462.559 250.552 460.363 250.552ZM484.432 235.288C481.768 235.288 479.68 236.656 478.528 238.996V235.72H473.668V253H478.636V244.036C478.636 241.12 480.22 238.888 482.416 238.888C484.18 238.888 485.152 240.112 485.152 242.38V253H490.12V241.156C490.12 237.556 487.924 235.288 484.432 235.288ZM369.111 288.8L364.575 278.72H363.171L358.779 288.656L355.467 278.72H350.247L356.295 296.216H357.915L362.487 285.776L367.095 296.216H368.715L374.835 278.72H372.243L369.111 288.8ZM385.216 296.432C390.508 296.432 394.54 293.408 394.54 287.36C394.54 281.312 390.508 278.288 385.216 278.288C379.924 278.288 375.892 281.312 375.892 287.36C375.892 293.408 379.924 296.432 385.216 296.432ZM385.216 294.308C382.84 294.308 381.364 292.184 381.364 287.36C381.364 282.536 382.84 280.412 385.216 280.412C387.556 280.412 389.068 282.5 389.068 287.36C389.068 292.184 387.592 294.308 385.216 294.308ZM402.749 296V287.036C402.749 284.156 404.693 282.968 406.421 282.968C407.249 282.968 407.933 283.112 408.581 283.328V278.288H408.329C405.557 278.288 403.577 279.764 402.641 282.932V278.72H397.853V296H402.749ZM416.357 296V287.684L422.549 296H428.777L420.677 285.524L427.913 278.72H424.241L416.357 286.244V270.8H411.389V296H416.357ZM435.238 296.432C439.018 296.432 442.474 294.164 442.474 290.672C442.474 288.152 440.89 286.712 438.01 285.452L436.102 284.624C434.05 283.724 433.762 283.076 433.762 282.248C433.762 281.276 434.626 280.52 436.354 280.52C438.19 280.52 440.098 281.564 441.394 282.536V279.044C440.026 278.612 438.406 278.288 436.786 278.288C431.89 278.288 429.334 280.412 429.334 283.508C429.334 286.208 430.666 287.936 433.51 289.16L435.598 290.06C437.254 290.78 438.118 291.32 438.118 292.328C438.118 293.444 437.146 294.128 435.49 294.128C433.69 294.128 431.422 293.156 429.622 291.788V295.64C431.206 296.108 432.97 296.432 435.238 296.432ZM456.395 278.288C453.839 278.288 451.751 279.548 450.599 281.78V270.8H445.631V296H450.599V287.036C450.599 284.12 452.183 281.888 454.379 281.888C456.143 281.888 457.115 283.112 457.115 285.38V296H462.083V284.156C462.083 280.556 459.887 278.288 456.395 278.288ZM474.583 296.432C479.875 296.432 483.907 293.408 483.907 287.36C483.907 281.312 479.875 278.288 474.583 278.288C469.291 278.288 465.259 281.312 465.259 287.36C465.259 293.408 469.291 296.432 474.583 296.432ZM474.583 294.308C472.207 294.308 470.731 292.184 470.731 287.36C470.731 282.536 472.207 280.412 474.583 280.412C476.923 280.412 478.435 282.5 478.435 287.36C478.435 292.184 476.959 294.308 474.583 294.308ZM497.913 278.288C495.393 278.288 493.233 279.512 492.081 281.492V278.72H487.221V303.2H492.189V293.408C493.377 295.28 495.465 296.432 497.913 296.432C502.341 296.432 505.581 293.048 505.581 287.36C505.581 281.672 502.341 278.288 497.913 278.288ZM496.293 293.552C494.097 293.552 492.117 291.392 492.117 287.36C492.117 283.328 494.097 281.168 496.293 281.168C498.525 281.168 500.109 283.148 500.109 287.36C500.109 291.572 498.525 293.552 496.293 293.552ZM513.988 296.432C517.768 296.432 521.224 294.164 521.224 290.672C521.224 288.152 519.64 286.712 516.76 285.452L514.852 284.624C512.8 283.724 512.512 283.076 512.512 282.248C512.512 281.276 513.376 280.52 515.104 280.52C516.94 280.52 518.848 281.564 520.144 282.536V279.044C518.776 278.612 517.156 278.288 515.536 278.288C510.64 278.288 508.084 280.412 508.084 283.508C508.084 286.208 509.416 287.936 512.26 289.16L514.348 290.06C516.004 290.78 516.868 291.32 516.868 292.328C516.868 293.444 515.896 294.128 514.24 294.128C512.44 294.128 510.172 293.156 508.372 291.788V295.64C509.956 296.108 511.72 296.432 513.988 296.432Z" fill="#484848"/>
<path d="M80.2732 253.432C84.9532 253.432 88.6252 251.02 90.4972 248.248L89.0572 247.06C87.5812 248.5 85.3852 249.796 82.5772 249.796C77.2852 249.796 73.0012 245.116 73.0012 238.096C73.0012 233.236 75.1252 229.528 79.1572 229.528C83.2612 229.528 84.6292 232.732 84.6292 236.476H90.6772C90.6772 230.68 85.9972 227.368 79.9492 227.368C73.2892 227.368 67.8892 231.94 67.8892 240.508C67.8892 248.284 73.4332 253.432 80.2732 253.432ZM98.8546 253V227.8H93.8866V253H98.8546ZM105.652 233.632C107.38 233.632 108.82 232.192 108.82 230.464C108.82 228.736 107.38 227.296 105.652 227.296C103.924 227.296 102.484 228.736 102.484 230.464C102.484 232.192 103.924 233.632 105.652 233.632ZM108.136 253V235.72H103.168V253H108.136ZM127.893 242.632C127.893 238.348 125.193 235.288 120.297 235.288C115.149 235.288 111.405 238.78 111.405 243.856C111.405 250.3 115.833 253.432 120.657 253.432C123.933 253.432 126.345 252.064 127.857 250.228L126.669 248.896C125.697 249.58 124.581 250.264 122.961 250.264C119.829 250.264 117.093 248.32 116.589 243.892H127.893V242.632ZM119.901 237.412C122.169 237.412 122.709 239.068 122.709 241.768H116.517C116.625 239.032 117.705 237.412 119.901 237.412ZM141.987 235.288C139.323 235.288 137.235 236.656 136.083 238.996V235.72H131.223V253H136.191V244.036C136.191 241.12 137.775 238.888 139.971 238.888C141.735 238.888 142.707 240.112 142.707 242.38V253H147.675V241.156C147.675 237.556 145.479 235.288 141.987 235.288ZM157.763 253.432C160.031 253.432 161.939 252.352 163.379 250.84L162.407 249.58C161.759 249.976 161.039 250.228 160.103 250.228C158.591 250.228 157.763 249.292 157.763 247.456V238.06H162.803V235.72H157.763V230.788H156.251C155.279 233.344 152.795 235.684 149.951 236.512V238.06H152.795V248.176C152.795 251.776 155.063 253.432 157.763 253.432Z" fill="#484848"/>
<ellipse cx="114.769" cy="37.128" rx="36.9781" ry="37.128" fill="#484848"/>
<path d="M76 92.3411C76 86.8182 80.4772 82.3411 86 82.3411H114.767H143.535C149.058 82.3411 153.535 86.8182 153.535 92.3411V162.466C153.535 167.989 149.058 172.466 143.535 172.466H86C80.4772 172.466 76 167.989 76 162.466V92.3411Z" fill="#484848"/>
<path d="M1134.9 53.1193H1131.96L1120.06 84.4793L1106.81 53.1193H1103.86L1092.22 98.2393H1096.76L1103.74 70.2713L1115.83 98.2393H1118.71L1129.78 69.5673L1137.72 98.2393H1147.26L1134.9 53.1193ZM1179.11 79.8073C1179.11 72.1913 1174.31 66.7513 1165.6 66.7513C1156.45 66.7513 1149.8 72.9593 1149.8 81.9833C1149.8 93.4393 1157.67 99.0073 1166.24 99.0073C1172.07 99.0073 1176.36 96.5753 1179.04 93.3113L1176.93 90.9433C1175.2 92.1593 1173.22 93.3753 1170.34 93.3753C1164.77 93.3753 1159.91 89.9193 1159.01 82.0473H1179.11V79.8073ZM1164.9 70.5273C1168.93 70.5273 1169.89 73.4713 1169.89 78.2713H1158.88C1159.08 73.4073 1161 70.5273 1164.9 70.5273ZM1195.52 99.0073C1199.56 99.0073 1202.95 97.0873 1205.51 94.3993L1203.78 92.1593C1202.63 92.8633 1201.35 93.3113 1199.68 93.3113C1197 93.3113 1195.52 91.6473 1195.52 88.3833V71.6793H1204.48V67.5193H1195.52V58.7513H1192.84C1191.11 63.2953 1186.69 67.4553 1181.64 68.9273V71.6793H1186.69V89.6633C1186.69 96.0633 1190.72 99.0073 1195.52 99.0073ZM1222.96 66.7513C1212.08 66.7513 1209.01 70.9113 1209.01 75.4553H1218.61C1218.61 71.9993 1220.02 70.2073 1223.03 70.2073C1226.04 70.2073 1227.25 71.9993 1227.25 74.5593V82.1113C1225.46 79.4873 1222.58 77.9513 1218.68 77.9513C1213.56 77.9513 1207.92 81.4713 1207.92 88.5113C1207.92 95.4233 1213.75 99.0073 1218.68 99.0073C1222.71 99.0073 1225.65 97.3433 1227.44 94.5273V98.2393H1236.08V77.3753C1236.08 70.5913 1233.08 66.7513 1222.96 66.7513ZM1221.94 93.9513C1219.06 93.9513 1216.37 92.0313 1216.37 88.4473C1216.37 84.8633 1219.06 82.9433 1221.94 82.9433C1224.69 82.9433 1227.38 84.8633 1227.38 88.4473C1227.38 92.0313 1224.69 93.9513 1221.94 93.9513ZM1258.18 99.0073C1264.01 99.0073 1268.3 96.5753 1270.98 93.3113L1268.87 90.9433C1267.14 92.1593 1265.16 93.3753 1262.28 93.3753C1256.14 93.3753 1250.89 89.0873 1250.89 79.1673C1250.89 73.6633 1252.42 70.5273 1256.46 70.5273C1260.36 70.5273 1261.45 73.5353 1261.45 78.8473H1270.86C1270.86 72.3833 1266.06 66.7513 1257.22 66.7513C1248.2 66.7513 1241.74 72.9593 1241.74 81.9833C1241.74 93.4393 1249.61 99.0073 1258.18 99.0073ZM1280.88 63.8073C1283.95 63.8073 1286.51 61.2473 1286.51 58.1753C1286.51 55.1033 1283.95 52.5433 1280.88 52.5433C1277.81 52.5433 1275.25 55.1033 1275.25 58.1753C1275.25 61.2473 1277.81 63.8073 1280.88 63.8073ZM1285.3 98.2393V67.5193H1276.47V98.2393H1285.3ZM1303.46 99.0073C1307.49 99.0073 1310.89 97.0873 1313.45 94.3993L1311.72 92.1593C1310.57 92.8633 1309.29 93.3113 1307.62 93.3113C1304.93 93.3113 1303.46 91.6473 1303.46 88.3833V71.6793H1312.42V67.5193H1303.46V58.7513H1300.77C1299.05 63.2953 1294.63 67.4553 1289.57 68.9273V71.6793H1294.63V89.6633C1294.63 96.0633 1298.66 99.0073 1303.46 99.0073ZM1332.37 86.3993L1323.61 67.5193H1313.94L1327.96 97.2153C1326.49 101.567 1323.8 103.295 1320.21 103.295C1318.29 103.295 1316.37 103.039 1314.26 102.271V111.423C1315.22 111.615 1316.25 111.679 1317.53 111.679C1323.16 111.679 1328.41 106.943 1331.67 98.6233L1345.17 67.5193H1340.25L1332.37 86.3993Z" fill="#484848"/>
<path d="M1354 66.9373H1369.67V82.6674H1354V66.9373Z" fill="#484848"/>
<path d="M1369.67 82.6675H1385.33V98.3976H1369.67V82.6675Z" fill="#484848"/>
<rect x="1385.33" y="66.9373" width="15.6666" height="15.7301" fill="#484848"/>
<path d="M1189.7 253C1198.27 253 1203.45 247.852 1203.45 240.4C1203.45 232.948 1198.27 227.8 1189.7 227.8H1181.1V253H1189.7ZM1186.42 229.816H1189.7C1195.35 229.816 1197.8 233.848 1197.8 240.4C1197.8 246.952 1195.35 250.984 1189.7 250.984H1186.42V229.816ZM1222.47 242.632C1222.47 238.348 1219.77 235.288 1214.88 235.288C1209.73 235.288 1205.98 238.78 1205.98 243.856C1205.98 250.3 1210.41 253.432 1215.24 253.432C1218.51 253.432 1220.92 252.064 1222.44 250.228L1221.25 248.896C1220.28 249.58 1219.16 250.264 1217.54 250.264C1214.41 250.264 1211.67 248.32 1211.17 243.892H1222.47V242.632ZM1214.48 237.412C1216.75 237.412 1217.29 239.068 1217.29 241.768H1211.1C1211.2 239.032 1212.28 237.412 1214.48 237.412ZM1230.88 253.432C1234.66 253.432 1238.11 251.164 1238.11 247.672C1238.11 245.152 1236.53 243.712 1233.65 242.452L1231.74 241.624C1229.69 240.724 1229.4 240.076 1229.4 239.248C1229.4 238.276 1230.26 237.52 1231.99 237.52C1233.83 237.52 1235.74 238.564 1237.03 239.536V236.044C1235.66 235.612 1234.04 235.288 1232.42 235.288C1227.53 235.288 1224.97 237.412 1224.97 240.508C1224.97 243.208 1226.3 244.936 1229.15 246.16L1231.24 247.06C1232.89 247.78 1233.76 248.32 1233.76 249.328C1233.76 250.444 1232.78 251.128 1231.13 251.128C1229.33 251.128 1227.06 250.156 1225.26 248.788V252.64C1226.84 253.108 1228.61 253.432 1230.88 253.432ZM1243.75 233.632C1245.48 233.632 1246.92 232.192 1246.92 230.464C1246.92 228.736 1245.48 227.296 1243.75 227.296C1242.03 227.296 1240.59 228.736 1240.59 230.464C1240.59 232.192 1242.03 233.632 1243.75 233.632ZM1246.24 253V235.72H1241.27V253H1246.24ZM1263.08 238.492C1261.93 236.512 1259.77 235.288 1257.25 235.288C1252.82 235.288 1249.58 238.672 1249.58 244.36C1249.58 250.048 1252.82 253.432 1257.25 253.432C1259.69 253.432 1261.78 252.28 1262.97 250.408V253.252C1262.97 256.6 1261.06 258.004 1257.89 258.004C1255.19 258.004 1252.64 256.312 1251.05 254.656V259.408C1253.07 260.2 1254.98 260.632 1257.5 260.632C1264.09 260.632 1267.94 256.636 1267.94 251.164V235.72H1263.08V238.492ZM1258.87 250.552C1256.63 250.552 1255.05 248.572 1255.05 244.36C1255.05 240.148 1256.63 238.168 1258.87 238.168C1261.06 238.168 1263.04 240.328 1263.04 244.36C1263.04 248.392 1261.06 250.552 1258.87 250.552ZM1282.94 235.288C1280.27 235.288 1278.18 236.656 1277.03 238.996V235.72H1272.17V253H1277.14V244.036C1277.14 241.12 1278.72 238.888 1280.92 238.888C1282.68 238.888 1283.66 240.112 1283.66 242.38V253H1288.62V241.156C1288.62 237.556 1286.43 235.288 1282.94 235.288ZM1318.61 247.132C1319.51 245.08 1319.91 242.704 1319.91 240.22V238.852H1317.5C1317.53 239.536 1317.53 239.788 1317.53 240.292C1317.53 241.84 1317.28 243.568 1316.71 245.188L1310.69 238.924C1313.65 237.844 1315.66 235.648 1315.66 233.092C1315.66 230.068 1312.78 228.16 1308.79 228.16C1304.72 228.16 1301.98 230.248 1301.98 233.668C1301.98 235.612 1302.85 237.052 1304.79 239.14C1301.95 240.724 1299.68 242.812 1299.68 246.304C1299.68 250.192 1303.31 253.432 1308.57 253.432C1311.77 253.432 1314.19 252.46 1315.95 250.912L1317.97 253H1324.27L1318.61 247.132ZM1308.57 229.924C1310.44 229.924 1311.49 231.328 1311.49 233.344C1311.49 235.036 1310.8 236.548 1309.36 237.592L1308.14 236.296C1306.91 235.036 1306.05 233.74 1306.05 232.408C1306.05 230.752 1307.13 229.924 1308.57 229.924ZM1310.48 250.336C1307.27 250.336 1304.79 248.284 1304.79 244.864C1304.79 242.92 1305.29 241.768 1306.23 240.688L1314.19 249.04C1313.21 249.832 1311.99 250.336 1310.48 250.336ZM1153.49 296C1162.06 296 1167.24 290.852 1167.24 283.4C1167.24 275.948 1162.06 270.8 1153.49 270.8H1144.88V296H1153.49ZM1150.21 272.816H1153.49C1159.14 272.816 1161.59 276.848 1161.59 283.4C1161.59 289.952 1159.14 293.984 1153.49 293.984H1150.21V272.816ZM1186.26 285.632C1186.26 281.348 1183.56 278.288 1178.66 278.288C1173.52 278.288 1169.77 281.78 1169.77 286.856C1169.77 293.3 1174.2 296.432 1179.02 296.432C1182.3 296.432 1184.71 295.064 1186.22 293.228L1185.04 291.896C1184.06 292.58 1182.95 293.264 1181.33 293.264C1178.2 293.264 1175.46 291.32 1174.96 286.892H1186.26V285.632ZM1178.27 280.412C1180.54 280.412 1181.08 282.068 1181.08 284.768H1174.88C1174.99 282.032 1176.07 280.412 1178.27 280.412ZM1197.06 289.304L1192.45 278.72H1187.01L1194.9 296.216H1196.62L1204.4 278.72H1201.63L1197.06 289.304ZM1221.59 285.632C1221.59 281.348 1218.89 278.288 1214 278.288C1208.85 278.288 1205.1 281.78 1205.1 286.856C1205.1 293.3 1209.53 296.432 1214.36 296.432C1217.63 296.432 1220.04 295.064 1221.56 293.228L1220.37 291.896C1219.4 292.58 1218.28 293.264 1216.66 293.264C1213.53 293.264 1210.79 291.32 1210.29 286.892H1221.59V285.632ZM1213.6 280.412C1215.87 280.412 1216.41 282.068 1216.41 284.768H1210.22C1210.32 282.032 1211.4 280.412 1213.6 280.412ZM1229.89 296V270.8H1224.92V296H1229.89ZM1242.52 296.432C1247.81 296.432 1251.84 293.408 1251.84 287.36C1251.84 281.312 1247.81 278.288 1242.52 278.288C1237.23 278.288 1233.19 281.312 1233.19 287.36C1233.19 293.408 1237.23 296.432 1242.52 296.432ZM1242.52 294.308C1240.14 294.308 1238.67 292.184 1238.67 287.36C1238.67 282.536 1240.14 280.412 1242.52 280.412C1244.86 280.412 1246.37 282.5 1246.37 287.36C1246.37 292.184 1244.89 294.308 1242.52 294.308ZM1265.85 278.288C1263.33 278.288 1261.17 279.512 1260.02 281.492V278.72H1255.16V303.2H1260.12V293.408C1261.31 295.28 1263.4 296.432 1265.85 296.432C1270.28 296.432 1273.52 293.048 1273.52 287.36C1273.52 281.672 1270.28 278.288 1265.85 278.288ZM1264.23 293.552C1262.03 293.552 1260.05 291.392 1260.05 287.36C1260.05 283.328 1262.03 281.168 1264.23 281.168C1266.46 281.168 1268.04 283.148 1268.04 287.36C1268.04 291.572 1266.46 293.552 1264.23 293.552ZM1298.05 278.288C1295.71 278.288 1293.66 279.656 1292.51 281.888C1291.72 279.656 1289.84 278.288 1287.32 278.288C1284.95 278.288 1282.9 279.62 1281.71 281.78V278.72H1276.85V296H1281.82V287.036C1281.82 284.012 1283.22 281.888 1285.2 281.888C1286.86 281.888 1287.72 283.112 1287.72 285.38V296H1292.69V287.036C1292.69 284.012 1294.09 281.888 1296.07 281.888C1297.73 281.888 1298.59 283.112 1298.59 285.38V296H1303.56V284.48C1303.56 280.736 1301.4 278.288 1298.05 278.288ZM1323.19 285.632C1323.19 281.348 1320.49 278.288 1315.6 278.288C1310.45 278.288 1306.71 281.78 1306.71 286.856C1306.71 293.3 1311.13 296.432 1315.96 296.432C1319.23 296.432 1321.65 295.064 1323.16 293.228L1321.97 291.896C1321 292.58 1319.88 293.264 1318.26 293.264C1315.13 293.264 1312.39 291.32 1311.89 286.892H1323.19V285.632ZM1315.2 280.412C1317.47 280.412 1318.01 282.068 1318.01 284.768H1311.82C1311.93 282.032 1313.01 280.412 1315.2 280.412ZM1337.29 278.288C1334.62 278.288 1332.54 279.656 1331.38 281.996V278.72H1326.52V296H1331.49V287.036C1331.49 284.12 1333.08 281.888 1335.27 281.888C1337.04 281.888 1338.01 283.112 1338.01 285.38V296H1342.98V284.156C1342.98 280.556 1340.78 278.288 1337.29 278.288ZM1353.06 296.432C1355.33 296.432 1357.24 295.352 1358.68 293.84L1357.71 292.58C1357.06 292.976 1356.34 293.228 1355.4 293.228C1353.89 293.228 1353.06 292.292 1353.06 290.456V281.06H1358.1V278.72H1353.06V273.788H1351.55C1350.58 276.344 1348.1 278.684 1345.25 279.512V281.06H1348.1V291.176C1348.1 294.776 1350.36 296.432 1353.06 296.432Z" fill="#484848"/>
<path d="M755.187 253.432C760.623 253.432 764.727 250.228 764.727 245.08C764.727 241.012 762.243 239.608 758.679 238.06L756.411 237.088C753.927 236.008 752.595 235.18 752.595 233.128C752.595 230.716 754.791 229.6 756.951 229.6C759.471 229.6 761.307 230.464 763.431 232.048V228.664C761.055 227.62 758.931 227.368 757.203 227.368C752.415 227.368 748.347 229.924 748.347 234.784C748.347 238.564 750.327 240.688 753.927 242.2L756.735 243.388C759.291 244.468 760.407 245.296 760.407 247.24C760.407 249.544 758.355 251.128 755.727 251.128C753.099 251.128 750.903 250.084 748.887 248.536V252.136C751.191 253.108 753.315 253.432 755.187 253.432ZM778.813 235.288C776.293 235.288 774.133 236.512 772.981 238.492V235.72H768.121V260.2H773.089V250.408C774.277 252.28 776.365 253.432 778.813 253.432C783.241 253.432 786.481 250.048 786.481 244.36C786.481 238.672 783.241 235.288 778.813 235.288ZM777.193 250.552C774.997 250.552 773.017 248.392 773.017 244.36C773.017 240.328 774.997 238.168 777.193 238.168C779.425 238.168 781.009 240.148 781.009 244.36C781.009 248.572 779.425 250.552 777.193 250.552ZM805.256 242.632C805.256 238.348 802.556 235.288 797.66 235.288C792.512 235.288 788.768 238.78 788.768 243.856C788.768 250.3 793.196 253.432 798.02 253.432C801.296 253.432 803.708 252.064 805.22 250.228L804.032 248.896C803.06 249.58 801.944 250.264 800.324 250.264C797.192 250.264 794.456 248.32 793.952 243.892H805.256V242.632ZM797.264 237.412C799.532 237.412 800.072 239.068 800.072 241.768H793.88C793.988 239.032 795.068 237.412 797.264 237.412ZM816.83 253.432C820.106 253.432 822.518 252.064 824.03 250.228L822.842 248.896C821.87 249.58 820.754 250.264 819.134 250.264C815.678 250.264 812.726 247.852 812.726 242.272C812.726 239.176 813.59 237.412 815.858 237.412C818.054 237.412 818.666 239.104 818.666 242.092H823.958C823.958 238.456 821.258 235.288 816.29 235.288C811.214 235.288 807.578 238.78 807.578 243.856C807.578 250.3 812.006 253.432 816.83 253.432ZM829.597 233.632C831.325 233.632 832.765 232.192 832.765 230.464C832.765 228.736 831.325 227.296 829.597 227.296C827.869 227.296 826.429 228.736 826.429 230.464C826.429 232.192 827.869 233.632 829.597 233.632ZM832.081 253V235.72H827.113V253H832.081ZM852.018 233.632C853.746 233.632 855.186 232.192 855.186 230.464C855.186 228.736 853.746 227.296 852.018 227.296C850.29 227.296 848.85 228.736 848.85 230.464C848.85 232.192 850.29 233.632 852.018 233.632ZM842.55 253V238.06H846.618V235.72H842.442C841.83 235 841.65 234.28 841.65 233.668C841.65 232.516 842.658 231.796 843.918 231.796C845.034 231.796 846.114 232.048 847.014 232.408V227.404C846.762 227.368 846.582 227.368 846.366 227.368C841.434 227.368 838.05 231.22 837.582 235.72H835.098V238.06H837.582V253H842.55ZM854.502 253V235.72H849.534V253H854.502ZM874.268 242.632C874.268 238.348 871.568 235.288 866.672 235.288C861.524 235.288 857.78 238.78 857.78 243.856C857.78 250.3 862.208 253.432 867.032 253.432C870.308 253.432 872.72 252.064 874.232 250.228L873.044 248.896C872.072 249.58 870.956 250.264 869.336 250.264C866.204 250.264 863.468 248.32 862.964 243.892H874.268V242.632ZM866.276 237.412C868.544 237.412 869.084 239.068 869.084 241.768H862.892C863 239.032 864.08 237.412 866.276 237.412ZM890.018 238.312C888.83 236.44 886.742 235.288 884.294 235.288C879.866 235.288 876.625 238.672 876.625 244.36C876.625 250.048 879.866 253.432 884.294 253.432C886.814 253.432 888.974 252.208 890.126 250.228V253H894.986V227.8H890.018V238.312ZM885.914 250.552C883.682 250.552 882.098 248.572 882.098 244.36C882.098 240.436 883.502 238.168 885.914 238.168C888.11 238.168 890.09 240.328 890.09 244.36C890.09 248.392 888.11 250.552 885.914 250.552ZM721.777 296V287.036C721.777 284.156 723.721 282.968 725.449 282.968C726.277 282.968 726.961 283.112 727.609 283.328V278.288H727.357C724.585 278.288 722.605 279.764 721.669 282.932V278.72H716.881V296H721.777ZM745.333 285.632C745.333 281.348 742.633 278.288 737.737 278.288C732.589 278.288 728.845 281.78 728.845 286.856C728.845 293.3 733.273 296.432 738.097 296.432C741.373 296.432 743.785 295.064 745.297 293.228L744.109 291.896C743.137 292.58 742.021 293.264 740.401 293.264C737.269 293.264 734.533 291.32 734.029 286.892H745.333V285.632ZM737.341 280.412C739.609 280.412 740.149 282.068 740.149 284.768H733.957C734.065 282.032 735.145 280.412 737.341 280.412ZM761.19 281.492C760.038 279.512 757.878 278.288 755.358 278.288C750.93 278.288 747.69 281.672 747.69 287.36C747.69 293.048 750.93 296.432 755.358 296.432C757.806 296.432 759.894 295.28 761.082 293.408V303.2H766.05V278.72H761.19V281.492ZM756.978 293.552C754.746 293.552 753.162 291.572 753.162 287.36C753.162 283.148 754.746 281.168 756.978 281.168C759.174 281.168 761.154 283.328 761.154 287.36C761.154 291.392 759.174 293.552 756.978 293.552ZM781.443 287.684C781.443 290.6 779.895 292.832 777.771 292.832C776.043 292.832 775.107 291.608 775.107 289.34V278.72H770.139V290.564C770.139 294.164 772.299 296.432 775.755 296.432C778.347 296.432 780.435 295.064 781.551 292.76V296H786.411V278.72H781.443V287.684ZM793.228 276.632C794.956 276.632 796.396 275.192 796.396 273.464C796.396 271.736 794.956 270.296 793.228 270.296C791.5 270.296 790.06 271.736 790.06 273.464C790.06 275.192 791.5 276.632 793.228 276.632ZM795.712 296V278.72H790.744V296H795.712ZM804.921 296V287.036C804.921 284.156 806.865 282.968 808.593 282.968C809.421 282.968 810.105 283.112 810.753 283.328V278.288H810.501C807.729 278.288 805.749 279.764 804.813 282.932V278.72H800.025V296H804.921ZM828.477 285.632C828.477 281.348 825.777 278.288 820.881 278.288C815.733 278.288 811.989 281.78 811.989 286.856C811.989 293.3 816.417 296.432 821.241 296.432C824.517 296.432 826.929 295.064 828.441 293.228L827.253 291.896C826.281 292.58 825.165 293.264 823.545 293.264C820.413 293.264 817.677 291.32 817.173 286.892H828.477V285.632ZM820.485 280.412C822.753 280.412 823.293 282.068 823.293 284.768H817.101C817.209 282.032 818.289 280.412 820.485 280.412ZM853.01 278.288C850.67 278.288 848.618 279.656 847.466 281.888C846.674 279.656 844.802 278.288 842.282 278.288C839.906 278.288 837.854 279.62 836.666 281.78V278.72H831.806V296H836.774V287.036C836.774 284.012 838.178 281.888 840.158 281.888C841.814 281.888 842.678 283.112 842.678 285.38V296H847.646V287.036C847.646 284.012 849.05 281.888 851.03 281.888C852.686 281.888 853.55 283.112 853.55 285.38V296H858.518V284.48C858.518 280.736 856.358 278.288 853.01 278.288ZM878.153 285.632C878.153 281.348 875.453 278.288 870.557 278.288C865.409 278.288 861.665 281.78 861.665 286.856C861.665 293.3 866.093 296.432 870.917 296.432C874.193 296.432 876.605 295.064 878.117 293.228L876.929 291.896C875.957 292.58 874.841 293.264 873.221 293.264C870.089 293.264 867.353 291.32 866.849 286.892H878.153V285.632ZM870.161 280.412C872.429 280.412 872.969 282.068 872.969 284.768H866.777C866.885 282.032 867.965 280.412 870.161 280.412ZM892.246 278.288C889.582 278.288 887.494 279.656 886.342 281.996V278.72H881.482V296H886.45V287.036C886.45 284.12 888.034 281.888 890.23 281.888C891.994 281.888 892.966 283.112 892.966 285.38V296H897.934V284.156C897.934 280.556 895.738 278.288 892.246 278.288ZM908.023 296.432C910.291 296.432 912.199 295.352 913.639 293.84L912.667 292.58C912.019 292.976 911.299 293.228 910.363 293.228C908.851 293.228 908.023 292.292 908.023 290.456V281.06H913.063V278.72H908.023V273.788H906.511C905.539 276.344 903.055 278.684 900.211 279.512V281.06H903.055V291.176C903.055 294.776 905.323 296.432 908.023 296.432ZM921.047 296.432C924.827 296.432 928.283 294.164 928.283 290.672C928.283 288.152 926.699 286.712 923.819 285.452L921.911 284.624C919.859 283.724 919.571 283.076 919.571 282.248C919.571 281.276 920.435 280.52 922.163 280.52C923.999 280.52 925.907 281.564 927.203 282.536V279.044C925.835 278.612 924.215 278.288 922.595 278.288C917.699 278.288 915.143 280.412 915.143 283.508C915.143 286.208 916.475 287.936 919.319 289.16L921.407 290.06C923.063 290.78 923.927 291.32 923.927 292.328C923.927 293.444 922.955 294.128 921.299 294.128C919.499 294.128 917.231 293.156 915.431 291.788V295.64C917.015 296.108 918.779 296.432 921.047 296.432Z" fill="#484848"/>
<path d="M812.676 32.3707C812.676 29.4134 815.073 27.0161 818.03 27.0161H887.387C890.344 27.0161 892.742 29.4134 892.742 32.3707V32.3707C892.742 35.3279 890.344 37.7253 887.387 37.7253H818.03C815.073 37.7253 812.676 35.3279 812.676 32.3707V32.3707Z" fill="#484848"/>
<path d="M760 34.3114L770.733 43.8002C771.164 44.1807 771.825 44.1211 772.181 43.6699L788.47 23" stroke="#484848" stroke-width="6"/>
<rect x="737" y="3" width="171" height="167.032" rx="17" stroke="#484848" stroke-width="6"/>
<rect x="812.674" y="61.3018" width="80.0658" height="10.7091" rx="5.35457" fill="#484848"/>
<rect x="812.674" y="96.7773" width="80.0658" height="10.7091" rx="5.35457" fill="#484848"/>
<rect x="812.674" y="131.578" width="80.0658" height="10.7091" rx="5.35457" fill="#484848"/>
<path d="M759.999 70.1386L770.732 79.6273C771.163 80.0078 771.824 79.9483 772.18 79.4971L788.469 58.8271" stroke="#484848" stroke-width="6"/>
<path d="M759.999 105.202L770.732 114.691C771.163 115.071 771.824 115.012 772.18 114.561L788.469 93.8906" stroke="#484848" stroke-width="6"/>
<path d="M759.999 140.273L770.732 149.762C771.163 150.143 771.824 150.083 772.18 149.632L788.469 128.962" stroke="#484848" stroke-width="6"/>
</svg>
