<?xml version="1.0" encoding="utf-8"?>
<svg id="web" viewBox="142.654 100.17 166.64 119.176" xmlns="http://www.w3.org/2000/svg">
  <defs>
    <style>.cls-1{fill:#484848;}.cls-2{fill:#fff;}.cls-3{fill:#d9d9d9;}.cls-4{fill:#6f6f6f;}.cls-5,.cls-6,.cls-7,.cls-8{fill:none;}.cls-5,.cls-6{stroke:#fff;stroke-linecap:round;stroke-width:0.75px;}.cls-5,.cls-7,.cls-8{stroke-miterlimit:10;}.cls-6{stroke-linejoin:round;}.cls-7,.cls-8{stroke:#484848;}.cls-8{stroke-width:3px;}</style>
  </defs>
  <path class="cls-1" d="M184.72,102.3h93.89a5.66,5.66,0,0,1,5.66,5.66V210.64a5.66,5.66,0,0,1-5.66,5.66H182.94a5.66,5.66,0,0,1-5.66-5.66V109.74A7.44,7.44,0,0,1,184.72,102.3Z"/>
  <path class="cls-2" d="M184.56,122.3h94.06a2.66,2.66,0,0,1,2.66,2.66v51.68a2.66,2.66,0,0,1-2.66,2.66H182.78a2.66,2.66,0,0,1-2.66-2.66v-49.9A4.44,4.44,0,0,1,184.56,122.3Z"/>
  <rect class="cls-1" x="249.93" y="146.3" width="56.34" height="30" rx="3.49"/>
  <rect class="cls-2" x="264.27" y="170.3" width="29" height="1" rx="0.5"/>
  <rect class="cls-3" x="264.27" y="170.3" width="25" height="1" rx="0.5"/>
  <rect class="cls-2" x="239.27" y="181.3" width="41.11" height="31" rx="3.16"/>
  <rect class="cls-1" x="249.27" y="185.3" width="24" height="1" rx="0.5"/>
  <circle class="cls-1" cx="247.77" cy="185.8" r="0.5"/>
  <rect class="cls-2" x="181.27" y="181.3" width="56" height="31" rx="3.16"/>
  <path class="cls-4" d="M191.77,201.8l-5.05-5.54a7.5,7.5,0,0,1,12.55,5.54Z"/>
  <circle class="cls-4" cx="191.77" cy="201.8" r="7.5"/>
  <circle class="cls-3" cx="209.77" cy="201.8" r="7.5"/>
  <circle class="cls-3" cx="226.77" cy="201.8" r="7.5"/>
  <path class="cls-4" d="M226.77,201.8l3.91,6.4a7.5,7.5,0,1,1,3.59-6.4Z"/>
  <path class="cls-4" d="M209.77,201.8l-5.05-5.54a7.5,7.5,0,0,1,12.55,5.54Z"/>
  <polygon class="cls-4" points="217.27 136.3 216.27 145.3 231.27 143.3 237.27 138.3 217.27 136.3"/>
  <polygon class="cls-4" points="229 153.48 238.98 153.49 245.76 165.16 238.28 173.56 225.21 177.3 224.27 162.35 229 153.48"/>
  <polygon class="cls-4" points="243 127.3 255.75 135.3 255.75 143.05 267 140.3 275 137.3 269 125.3 252 125.3 243 127.3"/>
  <rect class="cls-2" x="180.27" y="113.3" width="101" height="7" rx="3.5"/>
  <rect class="cls-1" x="186.27" y="116.3" width="19" height="2" rx="1"/>
  <rect class="cls-1" x="209.27" y="116.3" width="8" height="2" rx="1"/>
  <rect class="cls-1" x="206.27" y="116.3" width="2" height="2" rx="1"/>
  <circle class="cls-2" cx="189.27" cy="107.68" r="1.62"/>
  <circle class="cls-2" cx="194.66" cy="107.68" r="1.62"/>
  <polyline class="cls-1" points="285.45 162.97 278.49 166.73 271.52 162.97"/>
  <polyline class="cls-5" points="285.45 162.97 278.49 166.73 271.52 162.97"/>
  <polygon class="cls-1" points="278.49 158.43 271.52 154.67 278.49 150.91 285.45 154.67 278.49 158.43"/>
  <polygon class="cls-6" points="278.49 158.43 271.52 154.67 278.49 150.91 285.45 154.67 278.49 158.43"/>
  <polygon class="cls-1" points="271.52 154.67 271.52 162.97 278.49 166.73 278.49 158.43 271.52 154.67"/>
  <polygon class="cls-6" points="271.52 154.67 271.52 162.97 278.49 166.73 278.49 158.43 271.52 154.67"/>
  <polygon class="cls-1" points="285.45 154.67 285.45 162.97 278.49 166.73 278.49 158.43 285.45 154.67"/>
  <polygon class="cls-6" points="285.45 154.67 285.45 162.97 278.49 166.73 278.49 158.43 285.45 154.67"/>
  <path class="cls-1" d="M151.24,132.3h54.86a5.18,5.18,0,0,1,5.18,5.18v50.64a5.18,5.18,0,0,1-5.18,5.18H149.45a5.18,5.18,0,0,1-5.18-5.18V139.26A7,7,0,0,1,151.24,132.3Z"/>
  <rect class="cls-2" x="149.27" y="136.3" width="26" height="2" rx="1"/>
  <rect class="cls-2" x="149.27" y="139.3" width="26" height="2" rx="1"/>
  <rect class="cls-2" x="149.27" y="142.3" width="10.4" height="2" rx="1"/>
  <rect class="cls-2" x="160.71" y="142.3" width="9.36" height="2" rx="1"/>
  <rect class="cls-2" x="149.27" y="145.3" width="10.4" height="2" rx="1"/>
  <rect class="cls-2" x="148.27" y="165.3" width="59" height="24" rx="4.74"/>
  <rect class="cls-2" x="148.27" y="149.3" width="59" height="14" rx="4.74"/>
  <path class="cls-7" d="M151.32,157.3s4.07-3,7.13-3,6.61,3.5,9.66,3.5c4.07,0,5.83-.37,7.12-1,2-1,2.54-1.5,5.09-2,2.23-.44,3.05,0,7.12-1,.91-.22,3.05-2,6-1.32a8.8,8.8,0,0,1,4.13,2.32c1.61,1.52,1.52,1.5,3,2a28.14,28.14,0,0,0,4.07,1"/>
  <rect class="cls-1" x="151.27" y="167.3" width="27" height="11" rx="2.26"/>
  <rect class="cls-1" x="181.27" y="167.34" width="15" height="1.99" rx="1"/>
  <rect class="cls-1" x="181.27" y="170.33" width="23" height="1.99" rx="1"/>
  <rect class="cls-1" x="181.27" y="173.32" width="16" height="1.99" rx="1"/>
  <rect class="cls-1" x="181.27" y="176.31" width="9.2" height="1.99" rx="1"/>
  <rect class="cls-1" x="151.27" y="179.82" width="53" height="1.48" rx="0.74"/>
  <circle class="cls-1" cx="178.71" cy="185.86" r="2.38"/>
  <rect class="cls-2" x="177.21" y="185.36" width="3" height="1"/>
  <rect class="cls-2" x="177.21" y="185.36" width="3" height="1" transform="translate(364.57 7.15) rotate(90)"/>
  <circle class="cls-2" cx="183.89" cy="107.68" r="1.62"/>
  <path class="cls-8" d="M214.67,121a53,53,0,0,0,.75,8.44c.88,3.76,14.85,4.19,14.85,4.19s13,.39,16.86,4.25c2.83,2.82-1.34,11.18-11.32,10.88s-16.91-2.39-17.11,4.15S216.87,180,216.87,180"/>
</svg>