<?xml version="1.0" encoding="utf-8"?>
<svg width="2054" height="359" viewBox="59.843 0 1715.257 334.227" fill="none" xmlns="http://www.w3.org/2000/svg">
  <path d="M1437.67 138C1437.67 140.946 1440.05 143.333 1443 143.333C1445.95 143.333 1448.33 140.946 1448.33 138C1448.33 135.054 1445.95 132.667 1443 132.667C1440.05 132.667 1437.67 135.054 1437.67 138ZM1539 138L1529 132.226L1529 143.773L1539 138ZM1443 139L1530 139L1530 137L1443 137L1443 139Z" fill="#484848"/>
  <path d="M948.667 138C948.667 140.946 951.054 143.333 954 143.333C956.946 143.333 959.333 140.946 959.333 138C959.333 135.054 956.946 132.667 954 132.667C951.054 132.667 948.667 135.054 948.667 138ZM1050 138L1040 132.226L1040 143.773L1050 138ZM954 139L1041 139L1041 137L954 137L954 139Z" fill="#484848"/>
  <path d="M589.667 138C589.667 140.946 592.054 143.333 595 143.333C597.946 143.333 600.333 140.946 600.333 138C600.333 135.054 597.946 132.667 595 132.667C592.054 132.667 589.667 135.054 589.667 138ZM691 138L681 132.226L681 143.773L691 138ZM595 139L682 139L682 137L595 137L595 139Z" fill="#484848"/>
  <path d="M189.667 138C189.667 140.946 192.054 143.333 195 143.333C197.946 143.333 200.333 140.946 200.333 138C200.333 135.054 197.946 132.667 195 132.667C192.054 132.667 189.667 135.054 189.667 138ZM291 138L281 132.226L281 143.773L291 138ZM195 139L282 139L282 137L195 137L195 139Z" fill="#484848"/>
  <rect x="1600.09" y="85.4812" width="8.53125" height="8.34973" rx="4.17487" fill="white"/>
  <rect x="1612.47" y="85.4812" width="8.53125" height="8.34973" rx="4.17487" fill="white"/>
  <rect x="1624.84" y="85.4812" width="8.53125" height="8.34973" rx="4.17487" fill="white"/>
  <path d="M1593.86 294V278.232H1597.73C1599.34 278.232 1600.7 278.544 1601.78 279.168C1602.89 279.776 1603.71 280.664 1604.26 281.832C1604.82 283 1605.1 284.408 1605.1 286.056C1605.1 287.704 1604.82 289.128 1604.26 290.328C1603.71 291.512 1602.9 292.424 1601.81 293.064C1600.72 293.688 1599.38 294 1597.8 294H1593.86ZM1595.64 292.536H1597.58C1598.86 292.536 1599.92 292.272 1600.75 291.744C1601.6 291.216 1602.23 290.472 1602.65 289.512C1603.06 288.552 1603.27 287.4 1603.27 286.056C1603.27 284.728 1603.06 283.592 1602.65 282.648C1602.23 281.688 1601.6 280.96 1600.75 280.464C1599.92 279.952 1598.86 279.696 1597.58 279.696H1595.64V292.536ZM1613.02 294.288C1612.02 294.288 1611.09 294.048 1610.24 293.568C1609.41 293.072 1608.74 292.376 1608.25 291.48C1607.75 290.568 1607.5 289.472 1607.5 288.192C1607.5 286.928 1607.75 285.84 1608.25 284.928C1608.74 284.016 1609.38 283.312 1610.17 282.816C1610.97 282.32 1611.82 282.072 1612.71 282.072C1613.67 282.072 1614.5 282.296 1615.18 282.744C1615.87 283.192 1616.39 283.824 1616.74 284.64C1617.11 285.44 1617.3 286.4 1617.3 287.52C1617.3 287.712 1617.29 287.904 1617.27 288.096C1617.27 288.272 1617.26 288.432 1617.22 288.576H1608.87L1608.85 287.304H1615.74C1615.74 286.056 1615.47 285.112 1614.94 284.472C1614.42 283.816 1613.68 283.488 1612.74 283.488C1612.16 283.488 1611.6 283.656 1611.06 283.992C1610.51 284.328 1610.06 284.84 1609.71 285.528C1609.36 286.216 1609.18 287.104 1609.18 288.192C1609.18 289.232 1609.37 290.096 1609.74 290.784C1610.1 291.472 1610.59 291.992 1611.2 292.344C1611.82 292.696 1612.5 292.872 1613.24 292.872C1613.83 292.872 1614.36 292.784 1614.82 292.608C1615.3 292.432 1615.76 292.208 1616.19 291.936L1616.84 293.088C1616.34 293.408 1615.78 293.688 1615.16 293.928C1614.55 294.168 1613.84 294.288 1613.02 294.288ZM1623.2 294.288C1622.37 294.288 1621.58 294.136 1620.83 293.832C1620.08 293.512 1619.43 293.128 1618.88 292.68L1619.77 291.504C1620.28 291.904 1620.81 292.24 1621.36 292.512C1621.9 292.784 1622.54 292.92 1623.28 292.92C1624.08 292.92 1624.68 292.728 1625.08 292.344C1625.48 291.96 1625.68 291.504 1625.68 290.976C1625.68 290.56 1625.54 290.216 1625.27 289.944C1625 289.656 1624.65 289.416 1624.24 289.224C1623.82 289.016 1623.4 288.832 1622.96 288.672C1622.42 288.48 1621.88 288.248 1621.33 287.976C1620.79 287.704 1620.33 287.36 1619.96 286.944C1619.61 286.528 1619.44 285.992 1619.44 285.336C1619.44 284.424 1619.78 283.656 1620.47 283.032C1621.17 282.392 1622.15 282.072 1623.4 282.072C1624.1 282.072 1624.76 282.2 1625.36 282.456C1625.97 282.712 1626.49 283.016 1626.92 283.368L1626.08 284.496C1625.68 284.208 1625.27 283.968 1624.84 283.776C1624.42 283.568 1623.94 283.464 1623.4 283.464C1622.63 283.464 1622.06 283.648 1621.69 284.016C1621.32 284.368 1621.14 284.776 1621.14 285.24C1621.14 285.624 1621.26 285.944 1621.5 286.2C1621.76 286.44 1622.08 286.648 1622.48 286.824C1622.88 287 1623.31 287.176 1623.76 287.352C1624.33 287.56 1624.89 287.8 1625.44 288.072C1626 288.328 1626.46 288.672 1626.83 289.104C1627.2 289.536 1627.38 290.128 1627.38 290.88C1627.38 291.488 1627.22 292.056 1626.9 292.584C1626.58 293.096 1626.11 293.512 1625.48 293.832C1624.86 294.136 1624.1 294.288 1623.2 294.288ZM1630.21 294V282.36H1631.94V294H1630.21ZM1631.1 279.864C1630.76 279.864 1630.48 279.752 1630.24 279.528C1630.01 279.304 1629.9 279.008 1629.9 278.64C1629.9 278.288 1630.01 278.008 1630.24 277.8C1630.48 277.576 1630.76 277.464 1631.1 277.464C1631.45 277.464 1631.74 277.576 1631.96 277.8C1632.19 278.008 1632.3 278.288 1632.3 278.64C1632.3 279.008 1632.19 279.304 1631.96 279.528C1631.74 279.752 1631.45 279.864 1631.1 279.864ZM1636.02 294V282.36H1637.46L1637.61 284.496H1637.68C1638.08 283.76 1638.56 283.176 1639.12 282.744C1639.7 282.296 1640.32 282.072 1640.99 282.072C1641.23 282.072 1641.45 282.096 1641.64 282.144C1641.83 282.176 1642.02 282.232 1642.19 282.312L1641.86 283.848C1641.66 283.784 1641.49 283.736 1641.33 283.704C1641.18 283.672 1640.99 283.656 1640.75 283.656C1640.26 283.656 1639.74 283.864 1639.19 284.28C1638.65 284.68 1638.17 285.392 1637.75 286.416V294H1636.02ZM1648.79 294.288C1647.78 294.288 1646.85 294.048 1646 293.568C1645.17 293.072 1644.51 292.376 1644.01 291.48C1643.52 290.568 1643.27 289.472 1643.27 288.192C1643.27 286.928 1643.52 285.84 1644.01 284.928C1644.51 284.016 1645.15 283.312 1645.93 282.816C1646.73 282.32 1647.58 282.072 1648.48 282.072C1649.44 282.072 1650.26 282.296 1650.95 282.744C1651.64 283.192 1652.16 283.824 1652.51 284.64C1652.88 285.44 1653.06 286.4 1653.06 287.52C1653.06 287.712 1653.05 287.904 1653.04 288.096C1653.04 288.272 1653.02 288.432 1652.99 288.576H1644.64L1644.61 287.304H1651.5C1651.5 286.056 1651.24 285.112 1650.71 284.472C1650.18 283.816 1649.44 283.488 1648.5 283.488C1647.92 283.488 1647.36 283.656 1646.82 283.992C1646.28 284.328 1645.83 284.84 1645.48 285.528C1645.12 286.216 1644.95 287.104 1644.95 288.192C1644.95 289.232 1645.13 290.096 1645.5 290.784C1645.87 291.472 1646.36 291.992 1646.96 292.344C1647.59 292.696 1648.27 292.872 1649 292.872C1649.6 292.872 1650.12 292.784 1650.59 292.608C1651.07 292.432 1651.52 292.208 1651.96 291.936L1652.6 293.088C1652.11 293.408 1651.55 293.688 1650.92 293.928C1650.32 294.168 1649.6 294.288 1648.79 294.288ZM1659.91 294.288C1658.45 294.288 1657.29 293.76 1656.43 292.704C1655.56 291.632 1655.13 290.128 1655.13 288.192C1655.13 286.944 1655.36 285.864 1655.83 284.952C1656.31 284.04 1656.93 283.336 1657.7 282.84C1658.47 282.328 1659.3 282.072 1660.19 282.072C1660.88 282.072 1661.47 282.192 1661.97 282.432C1662.47 282.672 1662.98 283.008 1663.51 283.44L1663.43 281.424V276.864H1665.16V294H1663.72L1663.58 292.584H1663.51C1663.06 293.048 1662.52 293.448 1661.9 293.784C1661.29 294.12 1660.63 294.288 1659.91 294.288ZM1660.29 292.8C1660.85 292.8 1661.39 292.664 1661.9 292.392C1662.41 292.104 1662.92 291.688 1663.43 291.144V284.832C1662.91 284.368 1662.4 284.04 1661.92 283.848C1661.44 283.656 1660.95 283.56 1660.46 283.56C1659.8 283.56 1659.2 283.76 1658.66 284.16C1658.13 284.544 1657.71 285.088 1657.39 285.792C1657.08 286.48 1656.93 287.28 1656.93 288.192C1656.93 289.616 1657.22 290.744 1657.79 291.576C1658.39 292.392 1659.22 292.8 1660.29 292.8ZM1678.48 294.288C1677.54 294.288 1676.66 294.048 1675.84 293.568C1675.02 293.088 1674.37 292.4 1673.87 291.504C1673.38 290.592 1673.13 289.488 1673.13 288.192C1673.13 286.896 1673.38 285.792 1673.87 284.88C1674.37 283.968 1675.02 283.272 1675.84 282.792C1676.66 282.312 1677.54 282.072 1678.48 282.072C1679.42 282.072 1680.3 282.312 1681.1 282.792C1681.91 283.272 1682.57 283.968 1683.06 284.88C1683.58 285.792 1683.83 286.896 1683.83 288.192C1683.83 289.488 1683.58 290.592 1683.06 291.504C1682.57 292.4 1681.91 293.088 1681.1 293.568C1680.3 294.048 1679.42 294.288 1678.48 294.288ZM1678.48 292.824C1679.18 292.824 1679.8 292.632 1680.33 292.248C1680.87 291.864 1681.29 291.328 1681.58 290.64C1681.88 289.936 1682.03 289.12 1682.03 288.192C1682.03 287.28 1681.88 286.472 1681.58 285.768C1681.29 285.064 1680.87 284.52 1680.33 284.136C1679.8 283.736 1679.18 283.536 1678.48 283.536C1677.79 283.536 1677.18 283.736 1676.63 284.136C1676.1 284.52 1675.69 285.064 1675.38 285.768C1675.1 286.472 1674.95 287.28 1674.95 288.192C1674.95 289.12 1675.1 289.936 1675.38 290.64C1675.69 291.328 1676.1 291.864 1676.63 292.248C1677.18 292.632 1677.79 292.824 1678.48 292.824ZM1690.36 294.288C1689.16 294.288 1688.27 293.904 1687.7 293.136C1687.12 292.368 1686.83 291.24 1686.83 289.752V282.36H1688.56V289.536C1688.56 290.656 1688.74 291.48 1689.11 292.008C1689.48 292.52 1690.07 292.776 1690.89 292.776C1691.5 292.776 1692.05 292.616 1692.54 292.296C1693.04 291.96 1693.58 291.432 1694.15 290.712V282.36H1695.9V294H1694.44L1694.3 292.152H1694.22C1693.68 292.792 1693.1 293.312 1692.5 293.712C1691.89 294.096 1691.18 294.288 1690.36 294.288ZM1703.49 294.288C1702.29 294.288 1701.45 293.936 1700.97 293.232C1700.51 292.528 1700.27 291.616 1700.27 290.496V283.8H1698.52V282.48L1700.35 282.36L1700.56 279.072H1702.03V282.36H1705.22V283.8H1702.03V290.544C1702.03 291.264 1702.15 291.832 1702.41 292.248C1702.68 292.648 1703.17 292.848 1703.87 292.848C1704.08 292.848 1704.31 292.816 1704.55 292.752C1704.8 292.688 1705.03 292.616 1705.22 292.536L1705.58 293.856C1705.26 293.968 1704.91 294.064 1704.55 294.144C1704.18 294.24 1703.83 294.288 1703.49 294.288ZM1712.42 294.288C1711.4 294.288 1710.48 294.048 1709.66 293.568C1708.84 293.088 1708.2 292.4 1707.72 291.504C1707.24 290.592 1707 289.488 1707 288.192C1707 286.896 1707.25 285.792 1707.76 284.88C1708.29 283.968 1708.97 283.272 1709.8 282.792C1710.64 282.312 1711.55 282.072 1712.54 282.072C1713.31 282.072 1713.96 282.216 1714.51 282.504C1715.05 282.776 1715.52 283.096 1715.92 283.464L1715.01 284.616C1714.68 284.296 1714.31 284.04 1713.91 283.848C1713.52 283.64 1713.09 283.536 1712.61 283.536C1711.88 283.536 1711.22 283.736 1710.64 284.136C1710.08 284.52 1709.64 285.064 1709.3 285.768C1708.98 286.472 1708.82 287.28 1708.82 288.192C1708.82 289.12 1708.97 289.936 1709.28 290.64C1709.6 291.328 1710.04 291.864 1710.6 292.248C1711.16 292.632 1711.81 292.824 1712.56 292.824C1713.12 292.824 1713.64 292.704 1714.12 292.464C1714.6 292.224 1715.03 291.944 1715.4 291.624L1716.16 292.8C1715.65 293.264 1715.08 293.632 1714.44 293.904C1713.8 294.16 1713.12 294.288 1712.42 294.288ZM1723.25 294.288C1722.3 294.288 1721.42 294.048 1720.61 293.568C1719.79 293.088 1719.13 292.4 1718.64 291.504C1718.14 290.592 1717.89 289.488 1717.89 288.192C1717.89 286.896 1718.14 285.792 1718.64 284.88C1719.13 283.968 1719.79 283.272 1720.61 282.792C1721.42 282.312 1722.3 282.072 1723.25 282.072C1724.19 282.072 1725.06 282.312 1725.86 282.792C1726.68 283.272 1727.33 283.968 1727.83 284.88C1728.34 285.792 1728.6 286.896 1728.6 288.192C1728.6 289.488 1728.34 290.592 1727.83 291.504C1727.33 292.4 1726.68 293.088 1725.86 293.568C1725.06 294.048 1724.19 294.288 1723.25 294.288ZM1723.25 292.824C1723.95 292.824 1724.57 292.632 1725.09 292.248C1725.64 291.864 1726.05 291.328 1726.34 290.64C1726.65 289.936 1726.8 289.12 1726.8 288.192C1726.8 287.28 1726.65 286.472 1726.34 285.768C1726.05 285.064 1725.64 284.52 1725.09 284.136C1724.57 283.736 1723.95 283.536 1723.25 283.536C1722.56 283.536 1721.94 283.736 1721.4 284.136C1720.87 284.52 1720.45 285.064 1720.15 285.768C1719.86 286.472 1719.72 287.28 1719.72 288.192C1719.72 289.12 1719.86 289.936 1720.15 290.64C1720.45 291.328 1720.87 291.864 1721.4 292.248C1721.94 292.632 1722.56 292.824 1723.25 292.824ZM1731.77 294V282.36H1733.21L1733.35 284.088H1733.42C1733.93 283.528 1734.49 283.056 1735.1 282.672C1735.73 282.272 1736.37 282.072 1737.05 282.072C1737.96 282.072 1738.66 282.28 1739.16 282.696C1739.67 283.096 1740.04 283.64 1740.26 284.328C1740.89 283.656 1741.51 283.112 1742.13 282.696C1742.77 282.28 1743.44 282.072 1744.13 282.072C1745.33 282.072 1746.21 282.456 1746.79 283.224C1747.37 283.992 1747.65 285.12 1747.65 286.608V294H1745.9V286.824C1745.9 285.704 1745.72 284.888 1745.35 284.376C1744.98 283.864 1744.41 283.608 1743.62 283.608C1743.16 283.608 1742.67 283.768 1742.16 284.088C1741.66 284.392 1741.13 284.856 1740.57 285.48V294H1738.82V286.824C1738.82 285.704 1738.64 284.888 1738.27 284.376C1737.92 283.864 1737.35 283.608 1736.57 283.608C1735.64 283.608 1734.61 284.232 1733.49 285.48V294H1731.77ZM1756.18 294.288C1755.17 294.288 1754.24 294.048 1753.4 293.568C1752.56 293.072 1751.9 292.376 1751.4 291.48C1750.91 290.568 1750.66 289.472 1750.66 288.192C1750.66 286.928 1750.91 285.84 1751.4 284.928C1751.9 284.016 1752.54 283.312 1753.32 282.816C1754.12 282.32 1754.97 282.072 1755.87 282.072C1756.83 282.072 1757.65 282.296 1758.34 282.744C1759.03 283.192 1759.55 283.824 1759.9 284.64C1760.27 285.44 1760.45 286.4 1760.45 287.52C1760.45 287.712 1760.44 287.904 1760.43 288.096C1760.43 288.272 1760.41 288.432 1760.38 288.576H1752.03L1752 287.304H1758.89C1758.89 286.056 1758.63 285.112 1758.1 284.472C1757.57 283.816 1756.84 283.488 1755.89 283.488C1755.32 283.488 1754.76 283.656 1754.21 283.992C1753.67 284.328 1753.22 284.84 1752.87 285.528C1752.52 286.216 1752.34 287.104 1752.34 288.192C1752.34 289.232 1752.52 290.096 1752.89 290.784C1753.26 291.472 1753.75 291.992 1754.36 292.344C1754.98 292.696 1755.66 292.872 1756.4 292.872C1756.99 292.872 1757.52 292.784 1757.98 292.608C1758.46 292.432 1758.92 292.208 1759.35 291.936L1760 293.088C1759.5 293.408 1758.94 293.688 1758.32 293.928C1757.71 294.168 1757 294.288 1756.18 294.288Z" fill="#5B617C"/>
  <rect x="1582.75" y="69" width="177.023" height="173.257" rx="20" fill="#484848"/>
  <rect x="1599" y="93" width="147" height="2" rx="1" fill="white"/>
  <path d="M1670.67 172.404L1693.33 185.575V211.929L1670.67 198.758V172.404ZM1694.33 183.843L1671.66 170.667L1694.33 157.49L1717.01 170.667L1694.33 183.843ZM1695.33 185.575L1718 172.404V198.758L1695.33 211.929V185.575Z" fill="#484848" stroke="white" stroke-width="2"/>
  <path d="M1624 172.404L1646.67 185.575V211.929L1624 198.758V172.404ZM1647.67 183.843L1624.99 170.667L1647.67 157.49L1670.34 170.667L1647.67 183.843ZM1648.67 185.575L1671.33 172.404V198.758L1648.67 211.929V185.575Z" fill="#484848" stroke="white" stroke-width="2"/>
  <path d="M1646.67 131.048L1670 144.25V170.619L1646.67 157.417V131.048ZM1671 142.518L1647.7 129.333L1671 116.149L1694.3 129.333L1671 142.518ZM1672 144.25L1695.33 131.048V157.417L1672 170.619V144.25Z" fill="#484848" stroke="white" stroke-width="2"/>
  <rect x="1683.69" y="262.976" width="4.42993" height="5.21975" rx="2.21496" transform="rotate(-90 1683.69 262.976)" fill="white"/>
  <mask id="path-16-inside-1_597_1309" fill="white">
    <rect x="355.303" y="56" width="165.441" height="122.992" rx="5"/>
  </mask>
  <rect x="355.303" y="56" width="165.441" height="122.992" rx="5" fill="white" stroke="#484848" stroke-width="14" mask="url(#path-16-inside-1_597_1309)"/>
  <rect x="381.881" y="77.7065" width="22.1222" height="25.3875" rx="3" fill="white" stroke="#484848" stroke-width="4"/>
  <rect x="388.5" y="83.6201" width="9.97268" height="2.3537" rx="1.17685" fill="white" stroke="#484848" stroke-width="2"/>
  <rect x="413.163" y="77.7065" width="22.1222" height="25.3875" rx="3" fill="white" stroke="#484848" stroke-width="4"/>
  <rect x="419.782" y="83.6201" width="9.97268" height="2.3537" rx="1.17685" fill="white" stroke="#484848" stroke-width="2"/>
  <rect x="470.738" y="130.22" width="22.1222" height="25.3875" rx="3" transform="rotate(13.1608 470.738 130.22)" fill="white" stroke="#484848" stroke-width="4"/>
  <rect x="477.658" y="129.693" width="9.97268" height="2.3537" rx="1.17685" transform="rotate(13.1608 477.658 129.693)" fill="white" stroke="#484848" stroke-width="2"/>
  <circle cx="355.875" cy="125.251" r="27.5416" fill="#484848"/>
  <path d="M327 168.79C327 163.267 331.477 158.79 337 158.79H355.874H374.748C380.271 158.79 384.748 163.267 384.748 168.79V215.645C384.748 221.168 380.271 225.645 374.748 225.645H337C331.477 225.645 327 221.168 327 215.645V168.79Z" fill="#484848"/>
  <circle cx="519.733" cy="125.251" r="27.5416" fill="#484848"/>
  <path d="M490.858 168.79C490.858 163.267 495.335 158.79 500.858 158.79H519.732H538.606C544.129 158.79 548.606 163.267 548.606 168.79V215.645C548.606 221.168 544.129 225.645 538.606 225.645H500.858C495.335 225.645 490.858 221.168 490.858 215.645V168.79Z" fill="#484848"/>
  <circle cx="437.804" cy="125.251" r="27.5416" fill="#484848"/>
  <path d="M408.929 168.79C408.929 163.267 413.406 158.79 418.929 158.79H437.803H456.677C462.2 158.79 466.677 163.267 466.677 168.79V215.645C466.677 221.168 462.2 225.645 456.677 225.645H418.929C413.406 225.645 408.929 221.168 408.929 215.645V168.79Z" fill="#484848"/>
  <path d="M347.634 291V275.232H351.498C353.114 275.232 354.466 275.544 355.554 276.168C356.658 276.776 357.482 277.664 358.026 278.832C358.586 280 358.866 281.408 358.866 283.056C358.866 284.704 358.586 286.128 358.026 287.328C357.482 288.512 356.666 289.424 355.578 290.064C354.49 290.688 353.154 291 351.57 291H347.634ZM349.41 289.536H351.354C352.634 289.536 353.69 289.272 354.522 288.744C355.37 288.216 356.002 287.472 356.418 286.512C356.834 285.552 357.042 284.4 357.042 283.056C357.042 281.728 356.834 280.592 356.418 279.648C356.002 278.688 355.37 277.96 354.522 277.464C353.69 276.952 352.634 276.696 351.354 276.696H349.41V289.536ZM366.793 291.288C365.785 291.288 364.857 291.048 364.009 290.568C363.177 290.072 362.513 289.376 362.017 288.48C361.521 287.568 361.273 286.472 361.273 285.192C361.273 283.928 361.521 282.84 362.017 281.928C362.513 281.016 363.153 280.312 363.937 279.816C364.737 279.32 365.585 279.072 366.481 279.072C367.441 279.072 368.265 279.296 368.953 279.744C369.641 280.192 370.161 280.824 370.513 281.64C370.881 282.44 371.065 283.4 371.065 284.52C371.065 284.712 371.057 284.904 371.041 285.096C371.041 285.272 371.025 285.432 370.993 285.576H362.641L362.617 284.304H369.505C369.505 283.056 369.241 282.112 368.713 281.472C368.185 280.816 367.449 280.488 366.505 280.488C365.929 280.488 365.369 280.656 364.825 280.992C364.281 281.328 363.833 281.84 363.481 282.528C363.129 283.216 362.953 284.104 362.953 285.192C362.953 286.232 363.137 287.096 363.505 287.784C363.873 288.472 364.361 288.992 364.969 289.344C365.593 289.696 366.273 289.872 367.009 289.872C367.601 289.872 368.129 289.784 368.593 289.608C369.073 289.432 369.529 289.208 369.961 288.936L370.609 290.088C370.113 290.408 369.553 290.688 368.929 290.928C368.321 291.168 367.609 291.288 366.793 291.288ZM376.973 291.288C376.141 291.288 375.349 291.136 374.597 290.832C373.845 290.512 373.197 290.128 372.653 289.68L373.541 288.504C374.053 288.904 374.581 289.24 375.125 289.512C375.669 289.784 376.309 289.92 377.045 289.92C377.845 289.92 378.445 289.728 378.845 289.344C379.245 288.96 379.445 288.504 379.445 287.976C379.445 287.56 379.309 287.216 379.037 286.944C378.765 286.656 378.421 286.416 378.005 286.224C377.589 286.016 377.165 285.832 376.733 285.672C376.189 285.48 375.645 285.248 375.101 284.976C374.557 284.704 374.101 284.36 373.733 283.944C373.381 283.528 373.205 282.992 373.205 282.336C373.205 281.424 373.549 280.656 374.237 280.032C374.941 279.392 375.917 279.072 377.165 279.072C377.869 279.072 378.525 279.2 379.133 279.456C379.741 279.712 380.261 280.016 380.693 280.368L379.853 281.496C379.453 281.208 379.037 280.968 378.605 280.776C378.189 280.568 377.709 280.464 377.165 280.464C376.397 280.464 375.829 280.648 375.461 281.016C375.093 281.368 374.909 281.776 374.909 282.24C374.909 282.624 375.029 282.944 375.269 283.2C375.525 283.44 375.853 283.648 376.253 283.824C376.653 284 377.077 284.176 377.525 284.352C378.101 284.56 378.661 284.8 379.205 285.072C379.765 285.328 380.229 285.672 380.597 286.104C380.965 286.536 381.149 287.128 381.149 287.88C381.149 288.488 380.989 289.056 380.669 289.584C380.349 290.096 379.877 290.512 379.253 290.832C378.629 291.136 377.869 291.288 376.973 291.288ZM383.981 291V279.36H385.709V291H383.981ZM384.869 276.864C384.533 276.864 384.245 276.752 384.005 276.528C383.781 276.304 383.669 276.008 383.669 275.64C383.669 275.288 383.781 275.008 384.005 274.8C384.245 274.576 384.533 274.464 384.869 274.464C385.221 274.464 385.509 274.576 385.733 274.8C385.957 275.008 386.069 275.288 386.069 275.64C386.069 276.008 385.957 276.304 385.733 276.528C385.509 276.752 385.221 276.864 384.869 276.864ZM393.682 296.424C392.722 296.424 391.882 296.296 391.162 296.04C390.442 295.784 389.882 295.424 389.482 294.96C389.082 294.496 388.882 293.936 388.882 293.28C388.882 292.768 389.034 292.28 389.338 291.816C389.642 291.352 390.058 290.944 390.586 290.592V290.496C390.298 290.304 390.05 290.056 389.842 289.752C389.65 289.432 389.554 289.048 389.554 288.6C389.554 288.104 389.69 287.672 389.962 287.304C390.25 286.936 390.538 286.648 390.826 286.44V286.344C390.458 286.04 390.114 285.616 389.794 285.072C389.49 284.528 389.338 283.912 389.338 283.224C389.338 282.376 389.53 281.648 389.914 281.04C390.314 280.416 390.834 279.936 391.474 279.6C392.13 279.248 392.85 279.072 393.634 279.072C393.954 279.072 394.25 279.104 394.522 279.168C394.81 279.216 395.05 279.28 395.242 279.36H399.274V280.728H396.802C397.106 281.016 397.354 281.376 397.546 281.808C397.738 282.24 397.834 282.72 397.834 283.248C397.834 284.08 397.642 284.8 397.258 285.408C396.89 286.016 396.386 286.488 395.746 286.824C395.122 287.144 394.418 287.304 393.634 287.304C393.346 287.304 393.042 287.272 392.722 287.208C392.418 287.128 392.13 287.024 391.858 286.896C391.634 287.072 391.442 287.272 391.282 287.496C391.138 287.72 391.066 288 391.066 288.336C391.066 288.72 391.21 289.04 391.498 289.296C391.802 289.536 392.346 289.656 393.13 289.656H395.458C396.802 289.656 397.802 289.88 398.458 290.328C399.13 290.76 399.466 291.456 399.466 292.416C399.466 293.12 399.226 293.776 398.746 294.384C398.282 294.992 397.618 295.48 396.754 295.848C395.89 296.232 394.866 296.424 393.682 296.424ZM393.922 295.176C394.69 295.176 395.354 295.056 395.914 294.816C396.49 294.576 396.938 294.264 397.258 293.88C397.578 293.496 397.738 293.088 397.738 292.656C397.738 292.096 397.53 291.704 397.114 291.48C396.714 291.256 396.114 291.144 395.314 291.144H393.178C393.002 291.144 392.778 291.128 392.506 291.096C392.25 291.064 391.978 291.016 391.69 290.952C391.242 291.272 390.914 291.608 390.706 291.96C390.514 292.328 390.418 292.688 390.418 293.04C390.418 293.696 390.73 294.216 391.354 294.6C391.978 294.984 392.834 295.176 393.922 295.176ZM393.634 286.104C394.098 286.104 394.522 285.984 394.906 285.744C395.306 285.504 395.626 285.168 395.866 284.736C396.106 284.304 396.226 283.8 396.226 283.224C396.226 282.632 396.106 282.128 395.866 281.712C395.642 281.28 395.33 280.952 394.93 280.728C394.546 280.488 394.114 280.368 393.634 280.368C392.914 280.368 392.298 280.624 391.786 281.136C391.274 281.632 391.018 282.328 391.018 283.224C391.018 283.8 391.138 284.304 391.378 284.736C391.618 285.168 391.938 285.504 392.338 285.744C392.738 285.984 393.17 286.104 393.634 286.104ZM401.794 291V279.36H403.234L403.378 281.088H403.45C404.01 280.512 404.602 280.032 405.226 279.648C405.866 279.264 406.578 279.072 407.362 279.072C408.594 279.072 409.49 279.456 410.05 280.224C410.626 280.992 410.914 282.12 410.914 283.608V291H409.162V283.824C409.162 282.704 408.978 281.888 408.61 281.376C408.258 280.864 407.674 280.608 406.858 280.608C406.25 280.608 405.698 280.768 405.202 281.088C404.706 281.392 404.146 281.856 403.522 282.48V291H401.794ZM421.454 291L418.166 279.36H419.966L421.79 286.296C421.918 286.84 422.038 287.376 422.15 287.904C422.278 288.416 422.39 288.952 422.486 289.512H422.582C422.726 288.952 422.862 288.416 422.99 287.904C423.118 287.376 423.254 286.84 423.398 286.296L425.27 279.36H427.022L428.918 286.296C429.062 286.84 429.198 287.376 429.326 287.904C429.47 288.416 429.606 288.952 429.734 289.512H429.83C429.974 288.952 430.102 288.416 430.214 287.904C430.342 287.376 430.47 286.84 430.598 286.296L432.374 279.36H434.054L430.886 291H428.726L426.95 284.496C426.822 283.936 426.694 283.384 426.566 282.84C426.438 282.296 426.302 281.736 426.158 281.16H426.062C425.934 281.736 425.798 282.304 425.654 282.864C425.526 283.424 425.382 283.984 425.222 284.544L423.494 291H421.454ZM441.109 291.288C440.165 291.288 439.285 291.048 438.469 290.568C437.653 290.088 436.997 289.4 436.501 288.504C436.005 287.592 435.757 286.488 435.757 285.192C435.757 283.896 436.005 282.792 436.501 281.88C436.997 280.968 437.653 280.272 438.469 279.792C439.285 279.312 440.165 279.072 441.109 279.072C442.053 279.072 442.925 279.312 443.725 279.792C444.541 280.272 445.197 280.968 445.693 281.88C446.205 282.792 446.461 283.896 446.461 285.192C446.461 286.488 446.205 287.592 445.693 288.504C445.197 289.4 444.541 290.088 443.725 290.568C442.925 291.048 442.053 291.288 441.109 291.288ZM441.109 289.824C441.813 289.824 442.429 289.632 442.957 289.248C443.501 288.864 443.917 288.328 444.205 287.64C444.509 286.936 444.661 286.12 444.661 285.192C444.661 284.28 444.509 283.472 444.205 282.768C443.917 282.064 443.501 281.52 442.957 281.136C442.429 280.736 441.813 280.536 441.109 280.536C440.421 280.536 439.805 280.736 439.261 281.136C438.733 281.52 438.317 282.064 438.013 282.768C437.725 283.472 437.581 284.28 437.581 285.192C437.581 286.12 437.725 286.936 438.013 287.64C438.317 288.328 438.733 288.864 439.261 289.248C439.805 289.632 440.421 289.824 441.109 289.824ZM449.63 291V279.36H451.07L451.214 281.496H451.286C451.686 280.76 452.166 280.176 452.726 279.744C453.302 279.296 453.926 279.072 454.598 279.072C454.838 279.072 455.054 279.096 455.246 279.144C455.438 279.176 455.622 279.232 455.798 279.312L455.462 280.848C455.27 280.784 455.094 280.736 454.934 280.704C454.79 280.672 454.598 280.656 454.358 280.656C453.862 280.656 453.342 280.864 452.798 281.28C452.254 281.68 451.774 282.392 451.358 283.416V291H449.63ZM457.786 291V273.864H459.49V285.72H459.562L464.722 279.36H466.666L462.778 284.016L467.194 291H465.298L461.77 285.24L459.49 287.928V291H457.786ZM472.457 291.288C471.625 291.288 470.833 291.136 470.081 290.832C469.329 290.512 468.681 290.128 468.137 289.68L469.025 288.504C469.537 288.904 470.065 289.24 470.609 289.512C471.153 289.784 471.793 289.92 472.529 289.92C473.329 289.92 473.929 289.728 474.329 289.344C474.729 288.96 474.929 288.504 474.929 287.976C474.929 287.56 474.793 287.216 474.521 286.944C474.249 286.656 473.905 286.416 473.489 286.224C473.073 286.016 472.649 285.832 472.217 285.672C471.673 285.48 471.129 285.248 470.585 284.976C470.041 284.704 469.585 284.36 469.217 283.944C468.865 283.528 468.689 282.992 468.689 282.336C468.689 281.424 469.033 280.656 469.721 280.032C470.425 279.392 471.401 279.072 472.649 279.072C473.353 279.072 474.009 279.2 474.617 279.456C475.225 279.712 475.745 280.016 476.177 280.368L475.337 281.496C474.937 281.208 474.521 280.968 474.089 280.776C473.673 280.568 473.193 280.464 472.649 280.464C471.881 280.464 471.313 280.648 470.945 281.016C470.577 281.368 470.393 281.776 470.393 282.24C470.393 282.624 470.513 282.944 470.753 283.2C471.009 283.44 471.337 283.648 471.737 283.824C472.137 284 472.561 284.176 473.009 284.352C473.585 284.56 474.145 284.8 474.689 285.072C475.249 285.328 475.713 285.672 476.081 286.104C476.449 286.536 476.633 287.128 476.633 287.88C476.633 288.488 476.473 289.056 476.153 289.584C475.833 290.096 475.361 290.512 474.737 290.832C474.113 291.136 473.353 291.288 472.457 291.288ZM479.466 291V273.864H481.194V278.616L481.146 281.064C481.706 280.504 482.298 280.032 482.922 279.648C483.546 279.264 484.25 279.072 485.034 279.072C486.266 279.072 487.162 279.456 487.722 280.224C488.298 280.992 488.586 282.12 488.586 283.608V291H486.834V283.824C486.834 282.704 486.65 281.888 486.282 281.376C485.93 280.864 485.346 280.608 484.53 280.608C483.922 280.608 483.37 280.768 482.874 281.088C482.378 281.392 481.818 281.856 481.194 282.48V291H479.466ZM496.867 291.288C495.923 291.288 495.043 291.048 494.227 290.568C493.411 290.088 492.755 289.4 492.259 288.504C491.763 287.592 491.515 286.488 491.515 285.192C491.515 283.896 491.763 282.792 492.259 281.88C492.755 280.968 493.411 280.272 494.227 279.792C495.043 279.312 495.923 279.072 496.867 279.072C497.811 279.072 498.683 279.312 499.483 279.792C500.299 280.272 500.955 280.968 501.451 281.88C501.963 282.792 502.219 283.896 502.219 285.192C502.219 286.488 501.963 287.592 501.451 288.504C500.955 289.4 500.299 290.088 499.483 290.568C498.683 291.048 497.811 291.288 496.867 291.288ZM496.867 289.824C497.571 289.824 498.187 289.632 498.715 289.248C499.259 288.864 499.675 288.328 499.963 287.64C500.267 286.936 500.419 286.12 500.419 285.192C500.419 284.28 500.267 283.472 499.963 282.768C499.675 282.064 499.259 281.52 498.715 281.136C498.187 280.736 497.571 280.536 496.867 280.536C496.179 280.536 495.563 280.736 495.019 281.136C494.491 281.52 494.075 282.064 493.771 282.768C493.483 283.472 493.339 284.28 493.339 285.192C493.339 286.12 493.483 286.936 493.771 287.64C494.075 288.328 494.491 288.864 495.019 289.248C495.563 289.632 496.179 289.824 496.867 289.824ZM505.388 295.992V279.36H506.828L506.972 280.752H507.044C507.572 280.288 508.156 279.896 508.796 279.576C509.452 279.24 510.124 279.072 510.812 279.072C511.82 279.072 512.668 279.32 513.356 279.816C514.044 280.296 514.556 280.984 514.892 281.88C515.244 282.76 515.42 283.8 515.42 285C515.42 286.328 515.18 287.464 514.7 288.408C514.236 289.336 513.62 290.048 512.852 290.544C512.084 291.04 511.26 291.288 510.38 291.288C509.852 291.288 509.308 291.168 508.748 290.928C508.188 290.688 507.628 290.352 507.068 289.92L507.116 291.984V295.992H505.388ZM510.092 289.8C510.78 289.8 511.388 289.608 511.916 289.224C512.444 288.84 512.86 288.288 513.164 287.568C513.468 286.848 513.62 286 513.62 285.024C513.62 284.144 513.508 283.368 513.284 282.696C513.076 282.024 512.732 281.504 512.252 281.136C511.788 280.752 511.172 280.56 510.404 280.56C509.892 280.56 509.364 280.704 508.82 280.992C508.292 281.264 507.724 281.68 507.116 282.24V288.528C507.692 288.992 508.236 289.32 508.748 289.512C509.26 289.704 509.708 289.8 510.092 289.8ZM521.606 291.288C520.774 291.288 519.982 291.136 519.23 290.832C518.478 290.512 517.83 290.128 517.286 289.68L518.174 288.504C518.686 288.904 519.214 289.24 519.758 289.512C520.302 289.784 520.942 289.92 521.678 289.92C522.478 289.92 523.078 289.728 523.478 289.344C523.878 288.96 524.078 288.504 524.078 287.976C524.078 287.56 523.942 287.216 523.67 286.944C523.398 286.656 523.054 286.416 522.638 286.224C522.222 286.016 521.798 285.832 521.366 285.672C520.822 285.48 520.278 285.248 519.734 284.976C519.19 284.704 518.734 284.36 518.366 283.944C518.014 283.528 517.838 282.992 517.838 282.336C517.838 281.424 518.182 280.656 518.87 280.032C519.574 279.392 520.55 279.072 521.798 279.072C522.502 279.072 523.158 279.2 523.766 279.456C524.374 279.712 524.894 280.016 525.326 280.368L524.486 281.496C524.086 281.208 523.67 280.968 523.238 280.776C522.822 280.568 522.342 280.464 521.798 280.464C521.03 280.464 520.462 280.648 520.094 281.016C519.726 281.368 519.542 281.776 519.542 282.24C519.542 282.624 519.662 282.944 519.902 283.2C520.158 283.44 520.486 283.648 520.886 283.824C521.286 284 521.71 284.176 522.158 284.352C522.734 284.56 523.294 284.8 523.838 285.072C524.398 285.328 524.862 285.672 525.23 286.104C525.598 286.536 525.782 287.128 525.782 287.88C525.782 288.488 525.622 289.056 525.302 289.584C524.982 290.096 524.51 290.512 523.886 290.832C523.262 291.136 522.502 291.288 521.606 291.288Z" fill="#484848"/>
  <path d="M93.9312 290.908C92.6192 290.908 91.4512 290.588 90.4272 289.948C89.4032 289.292 88.5952 288.356 88.0032 287.14C87.4112 285.908 87.1152 284.444 87.1152 282.748C87.1152 281.468 87.2832 280.332 87.6192 279.34C87.9712 278.332 88.4592 277.468 89.0832 276.748C89.7232 276.028 90.4592 275.484 91.2912 275.116C92.1392 274.748 93.0592 274.564 94.0512 274.564C95.0112 274.564 95.8512 274.764 96.5712 275.164C97.3072 275.548 97.8912 275.988 98.3232 276.484L97.3392 277.66C96.9232 277.196 96.4432 276.828 95.8992 276.556C95.3712 276.268 94.7632 276.124 94.0752 276.124C93.0512 276.124 92.1552 276.396 91.3872 276.94C90.6192 277.468 90.0192 278.228 89.5872 279.22C89.1712 280.196 88.9632 281.356 88.9632 282.7C88.9632 284.06 89.1632 285.236 89.5632 286.228C89.9792 287.22 90.5632 287.988 91.3152 288.532C92.0832 289.076 92.9792 289.348 94.0032 289.348C94.7872 289.348 95.4752 289.188 96.0672 288.868C96.6752 288.548 97.2352 288.1 97.7472 287.524L98.7312 288.628C98.1232 289.348 97.4272 289.908 96.6432 290.308C95.8592 290.708 94.9552 290.908 93.9312 290.908ZM103.467 290.908C103.035 290.908 102.675 290.812 102.387 290.62C102.099 290.444 101.891 290.18 101.763 289.828C101.635 289.46 101.571 289.012 101.571 288.484V273.484H103.299V288.628C103.299 288.916 103.355 289.124 103.467 289.252C103.579 289.38 103.707 289.444 103.851 289.444C103.899 289.444 103.955 289.444 104.019 289.444C104.083 289.428 104.171 289.412 104.283 289.396L104.523 290.74C104.395 290.772 104.243 290.804 104.067 290.836C103.907 290.884 103.707 290.908 103.467 290.908ZM107.571 290.62V278.98H109.299V290.62H107.571ZM108.459 276.484C108.123 276.484 107.835 276.372 107.595 276.148C107.371 275.924 107.259 275.628 107.259 275.26C107.259 274.908 107.371 274.628 107.595 274.42C107.835 274.196 108.123 274.084 108.459 274.084C108.811 274.084 109.099 274.196 109.323 274.42C109.547 274.628 109.659 274.908 109.659 275.26C109.659 275.628 109.547 275.924 109.323 276.148C109.099 276.372 108.811 276.484 108.459 276.484ZM117.992 290.908C116.984 290.908 116.056 290.668 115.208 290.188C114.376 289.692 113.712 288.996 113.216 288.1C112.72 287.188 112.472 286.092 112.472 284.812C112.472 283.548 112.72 282.46 113.216 281.548C113.712 280.636 114.352 279.932 115.136 279.436C115.936 278.94 116.784 278.692 117.68 278.692C118.64 278.692 119.464 278.916 120.152 279.364C120.84 279.812 121.36 280.444 121.712 281.26C122.08 282.06 122.264 283.02 122.264 284.14C122.264 284.332 122.256 284.524 122.24 284.716C122.24 284.892 122.224 285.052 122.192 285.196H113.84L113.816 283.924H120.704C120.704 282.676 120.44 281.732 119.912 281.092C119.384 280.436 118.648 280.108 117.704 280.108C117.128 280.108 116.568 280.276 116.024 280.612C115.48 280.948 115.032 281.46 114.68 282.148C114.328 282.836 114.152 283.724 114.152 284.812C114.152 285.852 114.336 286.716 114.704 287.404C115.072 288.092 115.56 288.612 116.168 288.964C116.792 289.316 117.472 289.492 118.208 289.492C118.8 289.492 119.328 289.404 119.792 289.228C120.272 289.052 120.728 288.828 121.16 288.556L121.808 289.708C121.312 290.028 120.752 290.308 120.128 290.548C119.52 290.788 118.808 290.908 117.992 290.908ZM125.196 290.62V278.98H126.636L126.78 280.708H126.852C127.412 280.132 128.004 279.652 128.628 279.268C129.268 278.884 129.98 278.692 130.764 278.692C131.996 278.692 132.892 279.076 133.452 279.844C134.028 280.612 134.316 281.74 134.316 283.228V290.62H132.564V283.444C132.564 282.324 132.38 281.508 132.012 280.996C131.66 280.484 131.076 280.228 130.26 280.228C129.652 280.228 129.1 280.388 128.604 280.708C128.108 281.012 127.548 281.476 126.924 282.1V290.62H125.196ZM141.756 290.908C140.556 290.908 139.716 290.556 139.236 289.852C138.772 289.148 138.54 288.236 138.54 287.116V280.42H136.788V279.1L138.612 278.98L138.828 275.692H140.292V278.98H143.484V280.42H140.292V287.164C140.292 287.884 140.42 288.452 140.676 288.868C140.948 289.268 141.436 289.468 142.14 289.468C142.348 289.468 142.572 289.436 142.812 289.372C143.068 289.308 143.292 289.236 143.484 289.156L143.844 290.476C143.524 290.588 143.18 290.684 142.812 290.764C142.444 290.86 142.092 290.908 141.756 290.908Z" fill="#484848"/>
  <ellipse cx="114.768" cy="93.128" rx="36.9781" ry="37.128" fill="#484848"/>
  <path d="M76 148.341C76 142.818 80.4772 138.341 86 138.341H114.767H143.535C149.058 138.341 153.535 142.818 153.535 148.341V218.466C153.535 223.989 149.058 228.466 143.535 228.466H86C80.4772 228.466 76 223.989 76 218.466V148.341Z" fill="#484848"/>
  <path d="M1134.9 109.119H1131.96L1120.06 140.479L1106.81 109.119H1103.86L1092.22 154.239H1096.76L1103.74 126.271L1115.83 154.239H1118.71L1129.78 125.567L1137.72 154.239H1147.26L1134.9 109.119ZM1179.11 135.807C1179.11 128.191 1174.31 122.751 1165.6 122.751C1156.45 122.751 1149.8 128.959 1149.8 137.983C1149.8 149.439 1157.67 155.007 1166.24 155.007C1172.07 155.007 1176.36 152.575 1179.04 149.311L1176.93 146.943C1175.2 148.159 1173.22 149.375 1170.34 149.375C1164.77 149.375 1159.91 145.919 1159.01 138.047H1179.11V135.807ZM1164.9 126.527C1168.93 126.527 1169.89 129.471 1169.89 134.271H1158.88C1159.08 129.407 1161 126.527 1164.9 126.527ZM1195.52 155.007C1199.56 155.007 1202.95 153.087 1205.51 150.399L1203.78 148.159C1202.63 148.863 1201.35 149.311 1199.68 149.311C1197 149.311 1195.52 147.647 1195.52 144.383V127.679H1204.48V123.519H1195.52V114.751H1192.84C1191.11 119.295 1186.69 123.455 1181.64 124.927V127.679H1186.69V145.663C1186.69 152.063 1190.72 155.007 1195.52 155.007ZM1222.96 122.751C1212.08 122.751 1209.01 126.911 1209.01 131.455H1218.61C1218.61 127.999 1220.02 126.207 1223.03 126.207C1226.04 126.207 1227.25 127.999 1227.25 130.559V138.111C1225.46 135.487 1222.58 133.951 1218.68 133.951C1213.56 133.951 1207.92 137.471 1207.92 144.511C1207.92 151.423 1213.75 155.007 1218.68 155.007C1222.71 155.007 1225.65 153.343 1227.44 150.527V154.239H1236.08V133.375C1236.08 126.591 1233.08 122.751 1222.96 122.751ZM1221.94 149.951C1219.06 149.951 1216.37 148.031 1216.37 144.447C1216.37 140.863 1219.06 138.943 1221.94 138.943C1224.69 138.943 1227.38 140.863 1227.38 144.447C1227.38 148.031 1224.69 149.951 1221.94 149.951ZM1258.18 155.007C1264.01 155.007 1268.3 152.575 1270.98 149.311L1268.87 146.943C1267.14 148.159 1265.16 149.375 1262.28 149.375C1256.14 149.375 1250.89 145.087 1250.89 135.167C1250.89 129.663 1252.42 126.527 1256.46 126.527C1260.36 126.527 1261.45 129.535 1261.45 134.847H1270.86C1270.86 128.383 1266.06 122.751 1257.22 122.751C1248.2 122.751 1241.74 128.959 1241.74 137.983C1241.74 149.439 1249.61 155.007 1258.18 155.007ZM1280.88 119.807C1283.95 119.807 1286.51 117.247 1286.51 114.175C1286.51 111.103 1283.95 108.543 1280.88 108.543C1277.81 108.543 1275.25 111.103 1275.25 114.175C1275.25 117.247 1277.81 119.807 1280.88 119.807ZM1285.3 154.239V123.519H1276.47V154.239H1285.3ZM1303.46 155.007C1307.49 155.007 1310.89 153.087 1313.45 150.399L1311.72 148.159C1310.57 148.863 1309.29 149.311 1307.62 149.311C1304.93 149.311 1303.46 147.647 1303.46 144.383V127.679H1312.42V123.519H1303.46V114.751H1300.77C1299.05 119.295 1294.63 123.455 1289.57 124.927V127.679H1294.63V145.663C1294.63 152.063 1298.66 155.007 1303.46 155.007ZM1332.37 142.399L1323.61 123.519H1313.94L1327.96 153.215C1326.49 157.567 1323.8 159.295 1320.21 159.295C1318.29 159.295 1316.37 159.039 1314.26 158.271V167.423C1315.22 167.615 1316.25 167.679 1317.53 167.679C1323.16 167.679 1328.41 162.943 1331.67 154.623L1345.17 123.519H1340.25L1332.37 142.399Z" fill="#484848"/>
  <path d="M1354 122.937H1369.67V138.667H1354V122.937Z" fill="#484848"/>
  <path d="M1369.67 138.667H1385.33V154.397H1369.67V138.667Z" fill="#484848"/>
  <rect x="1385.33" y="122.937" width="15.6666" height="15.7301" fill="#484848"/>
  <path d="M1209.93 277V261.232H1213.79C1215.41 261.232 1216.76 261.544 1217.85 262.168C1218.95 262.776 1219.78 263.664 1220.32 264.832C1220.88 266 1221.16 267.408 1221.16 269.056C1221.16 270.704 1220.88 272.128 1220.32 273.328C1219.78 274.512 1218.96 275.424 1217.87 276.064C1216.79 276.688 1215.45 277 1213.87 277H1209.93ZM1211.71 275.536H1213.65C1214.93 275.536 1215.99 275.272 1216.82 274.744C1217.67 274.216 1218.3 273.472 1218.71 272.512C1219.13 271.552 1219.34 270.4 1219.34 269.056C1219.34 267.728 1219.13 266.592 1218.71 265.648C1218.3 264.688 1217.67 263.96 1216.82 263.464C1215.99 262.952 1214.93 262.696 1213.65 262.696H1211.71V275.536ZM1229.09 277.288C1228.08 277.288 1227.15 277.048 1226.31 276.568C1225.47 276.072 1224.81 275.376 1224.31 274.48C1223.82 273.568 1223.57 272.472 1223.57 271.192C1223.57 269.928 1223.82 268.84 1224.31 267.928C1224.81 267.016 1225.45 266.312 1226.23 265.816C1227.03 265.32 1227.88 265.072 1228.78 265.072C1229.74 265.072 1230.56 265.296 1231.25 265.744C1231.94 266.192 1232.46 266.824 1232.81 267.64C1233.18 268.44 1233.36 269.4 1233.36 270.52C1233.36 270.712 1233.35 270.904 1233.34 271.096C1233.34 271.272 1233.32 271.432 1233.29 271.576H1224.94L1224.91 270.304H1231.8C1231.8 269.056 1231.54 268.112 1231.01 267.472C1230.48 266.816 1229.75 266.488 1228.8 266.488C1228.23 266.488 1227.67 266.656 1227.12 266.992C1226.58 267.328 1226.13 267.84 1225.78 268.528C1225.43 269.216 1225.25 270.104 1225.25 271.192C1225.25 272.232 1225.43 273.096 1225.8 273.784C1226.17 274.472 1226.66 274.992 1227.27 275.344C1227.89 275.696 1228.57 275.872 1229.31 275.872C1229.9 275.872 1230.43 275.784 1230.89 275.608C1231.37 275.432 1231.83 275.208 1232.26 274.936L1232.91 276.088C1232.41 276.408 1231.85 276.688 1231.23 276.928C1230.62 277.168 1229.91 277.288 1229.09 277.288ZM1239.27 277.288C1238.44 277.288 1237.65 277.136 1236.89 276.832C1236.14 276.512 1235.49 276.128 1234.95 275.68L1235.84 274.504C1236.35 274.904 1236.88 275.24 1237.42 275.512C1237.97 275.784 1238.61 275.92 1239.34 275.92C1240.14 275.92 1240.74 275.728 1241.14 275.344C1241.54 274.96 1241.74 274.504 1241.74 273.976C1241.74 273.56 1241.61 273.216 1241.33 272.944C1241.06 272.656 1240.72 272.416 1240.3 272.224C1239.89 272.016 1239.46 271.832 1239.03 271.672C1238.49 271.48 1237.94 271.248 1237.4 270.976C1236.85 270.704 1236.4 270.36 1236.03 269.944C1235.68 269.528 1235.5 268.992 1235.5 268.336C1235.5 267.424 1235.85 266.656 1236.53 266.032C1237.24 265.392 1238.21 265.072 1239.46 265.072C1240.17 265.072 1240.82 265.2 1241.43 265.456C1242.04 265.712 1242.56 266.016 1242.99 266.368L1242.15 267.496C1241.75 267.208 1241.33 266.968 1240.9 266.776C1240.49 266.568 1240.01 266.464 1239.46 266.464C1238.69 266.464 1238.13 266.648 1237.76 267.016C1237.39 267.368 1237.21 267.776 1237.21 268.24C1237.21 268.624 1237.33 268.944 1237.57 269.2C1237.82 269.44 1238.15 269.648 1238.55 269.824C1238.95 270 1239.37 270.176 1239.82 270.352C1240.4 270.56 1240.96 270.8 1241.5 271.072C1242.06 271.328 1242.53 271.672 1242.89 272.104C1243.26 272.536 1243.45 273.128 1243.45 273.88C1243.45 274.488 1243.29 275.056 1242.97 275.584C1242.65 276.096 1242.17 276.512 1241.55 276.832C1240.93 277.136 1240.17 277.288 1239.27 277.288ZM1246.28 277V265.36H1248.01V277H1246.28ZM1247.17 262.864C1246.83 262.864 1246.54 262.752 1246.3 262.528C1246.08 262.304 1245.97 262.008 1245.97 261.64C1245.97 261.288 1246.08 261.008 1246.3 260.8C1246.54 260.576 1246.83 260.464 1247.17 260.464C1247.52 260.464 1247.81 260.576 1248.03 260.8C1248.25 261.008 1248.37 261.288 1248.37 261.64C1248.37 262.008 1248.25 262.304 1248.03 262.528C1247.81 262.752 1247.52 262.864 1247.17 262.864ZM1255.98 282.424C1255.02 282.424 1254.18 282.296 1253.46 282.04C1252.74 281.784 1252.18 281.424 1251.78 280.96C1251.38 280.496 1251.18 279.936 1251.18 279.28C1251.18 278.768 1251.33 278.28 1251.63 277.816C1251.94 277.352 1252.35 276.944 1252.88 276.592V276.496C1252.59 276.304 1252.35 276.056 1252.14 275.752C1251.95 275.432 1251.85 275.048 1251.85 274.6C1251.85 274.104 1251.99 273.672 1252.26 273.304C1252.55 272.936 1252.83 272.648 1253.12 272.44V272.344C1252.75 272.04 1252.41 271.616 1252.09 271.072C1251.79 270.528 1251.63 269.912 1251.63 269.224C1251.63 268.376 1251.83 267.648 1252.21 267.04C1252.61 266.416 1253.13 265.936 1253.77 265.6C1254.43 265.248 1255.15 265.072 1255.93 265.072C1256.25 265.072 1256.55 265.104 1256.82 265.168C1257.11 265.216 1257.35 265.28 1257.54 265.36H1261.57V266.728H1259.1C1259.4 267.016 1259.65 267.376 1259.84 267.808C1260.03 268.24 1260.13 268.72 1260.13 269.248C1260.13 270.08 1259.94 270.8 1259.55 271.408C1259.19 272.016 1258.68 272.488 1258.04 272.824C1257.42 273.144 1256.71 273.304 1255.93 273.304C1255.64 273.304 1255.34 273.272 1255.02 273.208C1254.71 273.128 1254.43 273.024 1254.15 272.896C1253.93 273.072 1253.74 273.272 1253.58 273.496C1253.43 273.72 1253.36 274 1253.36 274.336C1253.36 274.72 1253.51 275.04 1253.79 275.296C1254.1 275.536 1254.64 275.656 1255.43 275.656H1257.75C1259.1 275.656 1260.1 275.88 1260.75 276.328C1261.43 276.76 1261.76 277.456 1261.76 278.416C1261.76 279.12 1261.52 279.776 1261.04 280.384C1260.58 280.992 1259.91 281.48 1259.05 281.848C1258.19 282.232 1257.16 282.424 1255.98 282.424ZM1256.22 281.176C1256.99 281.176 1257.65 281.056 1258.21 280.816C1258.79 280.576 1259.23 280.264 1259.55 279.88C1259.87 279.496 1260.03 279.088 1260.03 278.656C1260.03 278.096 1259.83 277.704 1259.41 277.48C1259.01 277.256 1258.41 277.144 1257.61 277.144H1255.47C1255.3 277.144 1255.07 277.128 1254.8 277.096C1254.55 277.064 1254.27 277.016 1253.99 276.952C1253.54 277.272 1253.21 277.608 1253 277.96C1252.81 278.328 1252.71 278.688 1252.71 279.04C1252.71 279.696 1253.03 280.216 1253.65 280.6C1254.27 280.984 1255.13 281.176 1256.22 281.176ZM1255.93 272.104C1256.39 272.104 1256.82 271.984 1257.2 271.744C1257.6 271.504 1257.92 271.168 1258.16 270.736C1258.4 270.304 1258.52 269.8 1258.52 269.224C1258.52 268.632 1258.4 268.128 1258.16 267.712C1257.94 267.28 1257.63 266.952 1257.23 266.728C1256.84 266.488 1256.41 266.368 1255.93 266.368C1255.21 266.368 1254.59 266.624 1254.08 267.136C1253.57 267.632 1253.31 268.328 1253.31 269.224C1253.31 269.8 1253.43 270.304 1253.67 270.736C1253.91 271.168 1254.23 271.504 1254.63 271.744C1255.03 271.984 1255.47 272.104 1255.93 272.104ZM1264.09 277V265.36H1265.53L1265.67 267.088H1265.75C1266.31 266.512 1266.9 266.032 1267.52 265.648C1268.16 265.264 1268.87 265.072 1269.66 265.072C1270.89 265.072 1271.79 265.456 1272.35 266.224C1272.92 266.992 1273.21 268.12 1273.21 269.608V277H1271.46V269.824C1271.46 268.704 1271.27 267.888 1270.91 267.376C1270.55 266.864 1269.97 266.608 1269.15 266.608C1268.55 266.608 1267.99 266.768 1267.5 267.088C1267 267.392 1266.44 267.856 1265.82 268.48V277H1264.09ZM1285.43 277.288C1284.5 277.288 1283.68 277.104 1282.96 276.736C1282.25 276.368 1281.69 275.856 1281.28 275.2C1280.88 274.544 1280.68 273.792 1280.68 272.944C1280.68 272.176 1280.85 271.504 1281.18 270.928C1281.53 270.336 1281.98 269.808 1282.53 269.344C1283.07 268.88 1283.65 268.448 1284.25 268.048C1284.88 267.648 1285.46 267.248 1286.01 266.848C1286.55 266.448 1286.99 266.024 1287.33 265.576C1287.68 265.112 1287.85 264.6 1287.85 264.04C1287.85 263.56 1287.73 263.136 1287.49 262.768C1287.27 262.4 1286.88 262.216 1286.32 262.216C1285.69 262.216 1285.2 262.448 1284.83 262.912C1284.48 263.36 1284.3 263.92 1284.3 264.592C1284.3 265.344 1284.48 266.144 1284.83 266.992C1285.2 267.824 1285.68 268.664 1286.27 269.512C1286.88 270.36 1287.55 271.16 1288.29 271.912C1289.02 272.664 1289.76 273.328 1290.49 273.904C1291.12 274.384 1291.73 274.784 1292.32 275.104C1292.91 275.424 1293.45 275.664 1293.95 275.824L1293.47 277.288C1292.86 277.112 1292.22 276.84 1291.55 276.472C1290.88 276.104 1290.18 275.64 1289.46 275.08C1288.61 274.408 1287.79 273.648 1286.99 272.8C1286.19 271.952 1285.47 271.056 1284.83 270.112C1284.21 269.168 1283.7 268.232 1283.32 267.304C1282.95 266.376 1282.77 265.488 1282.77 264.64C1282.77 263.936 1282.91 263.312 1283.2 262.768C1283.5 262.208 1283.92 261.768 1284.45 261.448C1284.99 261.112 1285.61 260.944 1286.32 260.944C1287.26 260.944 1287.99 261.232 1288.5 261.808C1289.03 262.368 1289.29 263.096 1289.29 263.992C1289.29 264.664 1289.13 265.272 1288.79 265.816C1288.47 266.344 1288.05 266.84 1287.52 267.304C1286.99 267.752 1286.43 268.184 1285.84 268.6C1285.25 269.016 1284.69 269.44 1284.16 269.872C1283.65 270.288 1283.22 270.736 1282.89 271.216C1282.55 271.696 1282.38 272.24 1282.38 272.848C1282.38 273.456 1282.53 273.992 1282.81 274.456C1283.1 274.904 1283.49 275.256 1283.97 275.512C1284.46 275.752 1285.01 275.872 1285.62 275.872C1286.29 275.872 1286.94 275.696 1287.57 275.344C1288.19 274.992 1288.76 274.544 1289.27 274C1289.93 273.28 1290.49 272.464 1290.95 271.552C1291.43 270.64 1291.81 269.64 1292.1 268.552H1293.73C1293.4 269.72 1292.96 270.84 1292.41 271.912C1291.89 272.984 1291.25 273.96 1290.49 274.84C1289.85 275.56 1289.12 276.152 1288.29 276.616C1287.45 277.064 1286.5 277.288 1285.43 277.288ZM1186.13 308V292.232H1189.99C1191.61 292.232 1192.96 292.544 1194.05 293.168C1195.15 293.776 1195.98 294.664 1196.52 295.832C1197.08 297 1197.36 298.408 1197.36 300.056C1197.36 301.704 1197.08 303.128 1196.52 304.328C1195.98 305.512 1195.16 306.424 1194.07 307.064C1192.99 307.688 1191.65 308 1190.07 308H1186.13ZM1187.91 306.536H1189.85C1191.13 306.536 1192.19 306.272 1193.02 305.744C1193.87 305.216 1194.5 304.472 1194.91 303.512C1195.33 302.552 1195.54 301.4 1195.54 300.056C1195.54 298.728 1195.33 297.592 1194.91 296.648C1194.5 295.688 1193.87 294.96 1193.02 294.464C1192.19 293.952 1191.13 293.696 1189.85 293.696H1187.91V306.536ZM1205.29 308.288C1204.28 308.288 1203.35 308.048 1202.5 307.568C1201.67 307.072 1201.01 306.376 1200.51 305.48C1200.02 304.568 1199.77 303.472 1199.77 302.192C1199.77 300.928 1200.02 299.84 1200.51 298.928C1201.01 298.016 1201.65 297.312 1202.43 296.816C1203.23 296.32 1204.08 296.072 1204.98 296.072C1205.94 296.072 1206.76 296.296 1207.45 296.744C1208.14 297.192 1208.66 297.824 1209.01 298.64C1209.38 299.44 1209.56 300.4 1209.56 301.52C1209.56 301.712 1209.55 301.904 1209.54 302.096C1209.54 302.272 1209.52 302.432 1209.49 302.576H1201.14L1201.11 301.304H1208C1208 300.056 1207.74 299.112 1207.21 298.472C1206.68 297.816 1205.94 297.488 1205 297.488C1204.42 297.488 1203.86 297.656 1203.32 297.992C1202.78 298.328 1202.33 298.84 1201.98 299.528C1201.62 300.216 1201.45 301.104 1201.45 302.192C1201.45 303.232 1201.63 304.096 1202 304.784C1202.37 305.472 1202.86 305.992 1203.46 306.344C1204.09 306.696 1204.77 306.872 1205.5 306.872C1206.1 306.872 1206.62 306.784 1207.09 306.608C1207.57 306.432 1208.02 306.208 1208.46 305.936L1209.1 307.088C1208.61 307.408 1208.05 307.688 1207.42 307.928C1206.82 308.168 1206.1 308.288 1205.29 308.288ZM1214.99 308L1210.74 296.36H1212.54L1214.85 303.152C1215.04 303.712 1215.22 304.28 1215.4 304.856C1215.59 305.432 1215.77 306 1215.95 306.56H1216.05C1216.22 306 1216.41 305.432 1216.6 304.856C1216.79 304.28 1216.97 303.712 1217.15 303.152L1219.45 296.36H1221.18L1217.01 308H1214.99ZM1228.12 308.288C1227.11 308.288 1226.18 308.048 1225.33 307.568C1224.5 307.072 1223.84 306.376 1223.34 305.48C1222.84 304.568 1222.6 303.472 1222.6 302.192C1222.6 300.928 1222.84 299.84 1223.34 298.928C1223.84 298.016 1224.48 297.312 1225.26 296.816C1226.06 296.32 1226.91 296.072 1227.8 296.072C1228.76 296.072 1229.59 296.296 1230.28 296.744C1230.96 297.192 1231.48 297.824 1231.84 298.64C1232.2 299.44 1232.39 300.4 1232.39 301.52C1232.39 301.712 1232.38 301.904 1232.36 302.096C1232.36 302.272 1232.35 302.432 1232.32 302.576H1223.96L1223.94 301.304H1230.83C1230.83 300.056 1230.56 299.112 1230.04 298.472C1229.51 297.816 1228.77 297.488 1227.83 297.488C1227.25 297.488 1226.69 297.656 1226.15 297.992C1225.6 298.328 1225.16 298.84 1224.8 299.528C1224.45 300.216 1224.28 301.104 1224.28 302.192C1224.28 303.232 1224.46 304.096 1224.83 304.784C1225.2 305.472 1225.68 305.992 1226.29 306.344C1226.92 306.696 1227.6 306.872 1228.33 306.872C1228.92 306.872 1229.45 306.784 1229.92 306.608C1230.4 306.432 1230.85 306.208 1231.28 305.936L1231.93 307.088C1231.44 307.408 1230.88 307.688 1230.25 307.928C1229.64 308.168 1228.93 308.288 1228.12 308.288ZM1237.22 308.288C1236.79 308.288 1236.43 308.192 1236.14 308C1235.85 307.824 1235.64 307.56 1235.51 307.208C1235.39 306.84 1235.32 306.392 1235.32 305.864V290.864H1237.05V306.008C1237.05 306.296 1237.11 306.504 1237.22 306.632C1237.33 306.76 1237.46 306.824 1237.6 306.824C1237.65 306.824 1237.71 306.824 1237.77 306.824C1237.83 306.808 1237.92 306.792 1238.03 306.776L1238.27 308.12C1238.15 308.152 1237.99 308.184 1237.82 308.216C1237.66 308.264 1237.46 308.288 1237.22 308.288ZM1245.76 308.288C1244.82 308.288 1243.94 308.048 1243.12 307.568C1242.31 307.088 1241.65 306.4 1241.15 305.504C1240.66 304.592 1240.41 303.488 1240.41 302.192C1240.41 300.896 1240.66 299.792 1241.15 298.88C1241.65 297.968 1242.31 297.272 1243.12 296.792C1243.94 296.312 1244.82 296.072 1245.76 296.072C1246.71 296.072 1247.58 296.312 1248.38 296.792C1249.19 297.272 1249.85 297.968 1250.35 298.88C1250.86 299.792 1251.11 300.896 1251.11 302.192C1251.11 303.488 1250.86 304.592 1250.35 305.504C1249.85 306.4 1249.19 307.088 1248.38 307.568C1247.58 308.048 1246.71 308.288 1245.76 308.288ZM1245.76 306.824C1246.47 306.824 1247.08 306.632 1247.61 306.248C1248.15 305.864 1248.57 305.328 1248.86 304.64C1249.16 303.936 1249.31 303.12 1249.31 302.192C1249.31 301.28 1249.16 300.472 1248.86 299.768C1248.57 299.064 1248.15 298.52 1247.61 298.136C1247.08 297.736 1246.47 297.536 1245.76 297.536C1245.07 297.536 1244.46 297.736 1243.91 298.136C1243.39 298.52 1242.97 299.064 1242.67 299.768C1242.38 300.472 1242.23 301.28 1242.23 302.192C1242.23 303.12 1242.38 303.936 1242.67 304.64C1242.97 305.328 1243.39 305.864 1243.91 306.248C1244.46 306.632 1245.07 306.824 1245.76 306.824ZM1254.28 312.992V296.36H1255.72L1255.87 297.752H1255.94C1256.47 297.288 1257.05 296.896 1257.69 296.576C1258.35 296.24 1259.02 296.072 1259.71 296.072C1260.71 296.072 1261.56 296.32 1262.25 296.816C1262.94 297.296 1263.45 297.984 1263.79 298.88C1264.14 299.76 1264.31 300.8 1264.31 302C1264.31 303.328 1264.07 304.464 1263.59 305.408C1263.13 306.336 1262.51 307.048 1261.75 307.544C1260.98 308.04 1260.15 308.288 1259.27 308.288C1258.75 308.288 1258.2 308.168 1257.64 307.928C1257.08 307.688 1256.52 307.352 1255.96 306.92L1256.01 308.984V312.992H1254.28ZM1258.99 306.8C1259.67 306.8 1260.28 306.608 1260.81 306.224C1261.34 305.84 1261.75 305.288 1262.06 304.568C1262.36 303.848 1262.51 303 1262.51 302.024C1262.51 301.144 1262.4 300.368 1262.18 299.696C1261.97 299.024 1261.63 298.504 1261.15 298.136C1260.68 297.752 1260.07 297.56 1259.3 297.56C1258.79 297.56 1258.26 297.704 1257.71 297.992C1257.19 298.264 1256.62 298.68 1256.01 299.24V305.528C1256.59 305.992 1257.13 306.32 1257.64 306.512C1258.15 306.704 1258.6 306.8 1258.99 306.8ZM1267.52 308V296.36H1268.96L1269.11 298.088H1269.18C1269.69 297.528 1270.25 297.056 1270.86 296.672C1271.48 296.272 1272.13 296.072 1272.8 296.072C1273.72 296.072 1274.42 296.28 1274.92 296.696C1275.43 297.096 1275.8 297.64 1276.02 298.328C1276.64 297.656 1277.27 297.112 1277.89 296.696C1278.53 296.28 1279.2 296.072 1279.88 296.072C1281.08 296.072 1281.97 296.456 1282.55 297.224C1283.12 297.992 1283.41 299.12 1283.41 300.608V308H1281.66V300.824C1281.66 299.704 1281.48 298.888 1281.11 298.376C1280.74 297.864 1280.16 297.608 1279.38 297.608C1278.92 297.608 1278.43 297.768 1277.92 298.088C1277.42 298.392 1276.89 298.856 1276.33 299.48V308H1274.58V300.824C1274.58 299.704 1274.4 298.888 1274.03 298.376C1273.68 297.864 1273.11 297.608 1272.32 297.608C1271.4 297.608 1270.37 298.232 1269.25 299.48V308H1267.52ZM1291.94 308.288C1290.93 308.288 1290 308.048 1289.15 307.568C1288.32 307.072 1287.66 306.376 1287.16 305.48C1286.67 304.568 1286.42 303.472 1286.42 302.192C1286.42 300.928 1286.67 299.84 1287.16 298.928C1287.66 298.016 1288.3 297.312 1289.08 296.816C1289.88 296.32 1290.73 296.072 1291.63 296.072C1292.59 296.072 1293.41 296.296 1294.1 296.744C1294.79 297.192 1295.31 297.824 1295.66 298.64C1296.03 299.44 1296.21 300.4 1296.21 301.52C1296.21 301.712 1296.2 301.904 1296.19 302.096C1296.19 302.272 1296.17 302.432 1296.14 302.576H1287.79L1287.76 301.304H1294.65C1294.65 300.056 1294.39 299.112 1293.86 298.472C1293.33 297.816 1292.59 297.488 1291.65 297.488C1291.07 297.488 1290.51 297.656 1289.97 297.992C1289.43 298.328 1288.98 298.84 1288.63 299.528C1288.27 300.216 1288.1 301.104 1288.1 302.192C1288.1 303.232 1288.28 304.096 1288.65 304.784C1289.02 305.472 1289.51 305.992 1290.11 306.344C1290.74 306.696 1291.42 306.872 1292.15 306.872C1292.75 306.872 1293.27 306.784 1293.74 306.608C1294.22 306.432 1294.67 306.208 1295.11 305.936L1295.75 307.088C1295.26 307.408 1294.7 307.688 1294.07 307.928C1293.47 308.168 1292.75 308.288 1291.94 308.288ZM1299.14 308V296.36H1300.58L1300.73 298.088H1300.8C1301.36 297.512 1301.95 297.032 1302.57 296.648C1303.21 296.264 1303.93 296.072 1304.71 296.072C1305.94 296.072 1306.84 296.456 1307.4 297.224C1307.97 297.992 1308.26 299.12 1308.26 300.608V308H1306.51V300.824C1306.51 299.704 1306.33 298.888 1305.96 298.376C1305.61 297.864 1305.02 297.608 1304.21 297.608C1303.6 297.608 1303.05 297.768 1302.55 298.088C1302.05 298.392 1301.49 298.856 1300.87 299.48V308H1299.14ZM1315.7 308.288C1314.5 308.288 1313.66 307.936 1313.18 307.232C1312.72 306.528 1312.48 305.616 1312.48 304.496V297.8H1310.73V296.48L1312.56 296.36L1312.77 293.072H1314.24V296.36H1317.43V297.8H1314.24V304.544C1314.24 305.264 1314.36 305.832 1314.62 306.248C1314.89 306.648 1315.38 306.848 1316.08 306.848C1316.29 306.848 1316.52 306.816 1316.76 306.752C1317.01 306.688 1317.24 306.616 1317.43 306.536L1317.79 307.856C1317.47 307.968 1317.12 308.064 1316.76 308.144C1316.39 308.24 1316.04 308.288 1315.7 308.288Z" fill="#484848"/>
  <path d="M778.239 279.094C781.695 279.094 784.311 277.054 784.311 273.886C784.311 271.15 782.583 270.262 780.279 269.326L778.815 268.726C777.255 268.102 775.911 267.382 775.911 265.558C775.911 263.878 777.351 262.894 779.223 262.894C780.951 262.894 782.295 263.542 783.567 264.574V262.654C782.343 262.078 780.903 261.718 779.535 261.718C776.607 261.718 774.015 263.302 774.015 266.302C774.015 268.63 775.335 269.95 777.711 270.862L779.367 271.51C781.239 272.23 782.343 272.974 782.343 274.726C782.343 276.67 780.903 277.798 778.647 277.798C777.087 277.798 775.503 277.198 774.231 276.214V278.182C775.503 278.782 776.871 279.094 778.239 279.094ZM793.368 266.998C791.568 266.998 790.008 268.006 789.288 269.59V267.286H787.2V283.606H789.36V276.646C790.104 278.158 791.616 279.094 793.368 279.094C796.344 279.094 798.312 276.766 798.312 273.046C798.312 269.326 796.344 266.998 793.368 266.998ZM792.696 277.774C790.92 277.774 789.312 275.998 789.312 273.046C789.312 270.094 790.92 268.318 792.696 268.318C794.76 268.318 795.936 270.142 795.936 273.046C795.936 275.95 794.76 277.774 792.696 277.774ZM810.431 271.51C810.431 268.702 808.487 266.998 805.871 266.998C802.607 266.998 800.447 269.35 800.447 272.83C800.447 277.03 803.135 279.094 806.063 279.094C808.007 279.094 809.471 278.278 810.431 277.102L809.879 276.502C809.159 277.078 808.271 277.51 807.215 277.51C804.647 277.51 802.631 275.806 802.583 272.086H810.431V271.51ZM805.607 268.03C807.335 268.03 808.055 269.302 808.079 271.006H802.655C802.991 269.158 803.999 268.03 805.607 268.03ZM818.134 279.094C820.054 279.094 821.542 278.278 822.502 277.102L821.926 276.502C821.206 277.078 820.342 277.51 819.262 277.51C816.694 277.51 814.654 275.758 814.654 271.966C814.654 269.686 815.662 268.03 817.605 268.03C819.286 268.03 820.078 269.278 820.078 271.15H822.454C822.454 268.75 820.51 266.998 817.894 266.998C814.654 266.998 812.494 269.35 812.494 272.83C812.494 277.03 815.206 279.094 818.134 279.094ZM826.319 264.91C827.183 264.91 827.903 264.19 827.903 263.35C827.903 262.51 827.183 261.79 826.319 261.79C825.479 261.79 824.759 262.51 824.759 263.35C824.759 264.19 825.479 264.91 826.319 264.91ZM827.399 278.806V267.286H825.239V278.806H827.399ZM833.905 278.806V268.462H836.761V267.286H833.857C833.689 266.47 833.593 266.134 833.593 265.606C833.593 264.55 834.409 263.806 835.513 263.806C836.089 263.806 836.641 263.902 837.121 264.046V261.718H836.857C834.025 261.718 831.889 263.926 831.745 267.286H829.849V268.462H831.745V278.806H833.905ZM840.265 264.91C841.105 264.91 841.825 264.19 841.825 263.35C841.825 262.51 841.105 261.79 840.265 261.79C839.425 261.79 838.705 262.51 838.705 263.35C838.705 264.19 839.425 264.91 840.265 264.91ZM841.345 278.806V267.286H839.185V278.806H841.345ZM854.235 271.51C854.235 268.702 852.291 266.998 849.675 266.998C846.411 266.998 844.251 269.35 844.251 272.83C844.251 277.03 846.939 279.094 849.867 279.094C851.811 279.094 853.275 278.278 854.235 277.102L853.683 276.502C852.963 277.078 852.075 277.51 851.019 277.51C848.451 277.51 846.435 275.806 846.387 272.086H854.235V271.51ZM849.411 268.03C851.139 268.03 851.859 269.302 851.883 271.006H846.459C846.795 269.158 847.803 268.03 849.411 268.03ZM865.274 269.446C864.53 267.934 863.018 266.998 861.266 266.998C858.29 266.998 856.322 269.326 856.322 273.046C856.322 276.766 858.29 279.094 861.266 279.094C863.066 279.094 864.626 278.086 865.346 276.502V278.806H867.434V262.006H865.274V269.446ZM861.938 277.774C859.874 277.774 858.698 275.95 858.698 273.046C858.698 270.238 859.826 268.318 861.938 268.318C863.714 268.318 865.322 270.094 865.322 273.046C865.322 275.998 863.714 277.774 861.938 277.774ZM756.137 307.806V301.614C756.137 299.094 757.553 298.086 758.825 298.086C759.281 298.086 759.689 298.158 760.073 298.278V295.998H759.857C758.105 295.998 756.689 296.91 756.065 298.926V296.286H753.977V307.806H756.137ZM771.349 300.51C771.349 297.702 769.405 295.998 766.789 295.998C763.525 295.998 761.365 298.35 761.365 301.83C761.365 306.03 764.053 308.094 766.981 308.094C768.925 308.094 770.389 307.278 771.349 306.102L770.797 305.502C770.077 306.078 769.189 306.51 768.133 306.51C765.565 306.51 763.549 304.806 763.501 301.086H771.349V300.51ZM766.525 297.03C768.253 297.03 768.973 298.302 768.997 300.006H763.573C763.909 298.158 764.917 297.03 766.525 297.03ZM782.459 298.59C781.739 297.006 780.179 295.998 778.379 295.998C775.403 295.998 773.435 298.326 773.435 302.046C773.435 305.766 775.403 308.094 778.379 308.094C780.131 308.094 781.643 307.158 782.387 305.646V312.606H784.547V296.286H782.459V298.59ZM779.051 306.774C776.987 306.774 775.811 304.95 775.811 302.046C775.811 299.142 776.987 297.318 779.051 297.318C780.827 297.318 782.435 299.094 782.435 302.046C782.435 304.998 780.827 306.774 779.051 306.774ZM795.587 302.406C795.587 304.782 794.243 306.462 792.515 306.462C791.051 306.462 790.259 305.478 790.259 303.606V296.286H788.099V304.182C788.099 306.582 789.491 308.094 791.747 308.094C793.475 308.094 794.963 307.086 795.659 305.406V307.806H797.747V296.286H795.587V302.406ZM802.541 293.91C803.405 293.91 804.125 293.19 804.125 292.35C804.125 291.51 803.405 290.79 802.541 290.79C801.701 290.79 800.981 291.51 800.981 292.35C800.981 293.19 801.701 293.91 802.541 293.91ZM803.621 307.806V296.286H801.461V307.806H803.621ZM809.504 307.806V301.614C809.504 299.094 810.92 298.086 812.192 298.086C812.648 298.086 813.056 298.158 813.44 298.278V295.998H813.224C811.472 295.998 810.056 296.91 809.432 298.926V296.286H807.344V307.806H809.504ZM824.716 300.51C824.716 297.702 822.772 295.998 820.156 295.998C816.892 295.998 814.732 298.35 814.732 301.83C814.732 306.03 817.42 308.094 820.348 308.094C822.292 308.094 823.756 307.278 824.716 306.102L824.164 305.502C823.444 306.078 822.556 306.51 821.5 306.51C818.932 306.51 816.916 304.806 816.868 301.086H824.716V300.51ZM819.892 297.03C821.62 297.03 822.34 298.302 822.364 300.006H816.94C817.276 298.158 818.284 297.03 819.892 297.03ZM840.483 295.998C838.875 295.998 837.483 296.982 836.787 298.59C836.355 296.982 835.131 295.998 833.403 295.998C831.771 295.998 830.355 297.006 829.659 298.59V296.286H827.571V307.806H829.731V301.686C829.731 299.286 831.003 297.63 832.563 297.63C833.979 297.63 834.723 298.614 834.723 300.486V307.806H836.883V301.662C836.883 299.262 838.107 297.63 839.715 297.63C841.107 297.63 841.851 298.59 841.851 300.462V307.806H844.011V300.006C844.011 297.558 842.619 295.998 840.483 295.998ZM856.755 300.51C856.755 297.702 854.811 295.998 852.195 295.998C848.931 295.998 846.771 298.35 846.771 301.83C846.771 306.03 849.459 308.094 852.387 308.094C854.331 308.094 855.795 307.278 856.755 306.102L856.203 305.502C855.483 306.078 854.595 306.51 853.539 306.51C850.971 306.51 848.955 304.806 848.907 301.086H856.755V300.51ZM851.931 297.03C853.659 297.03 854.379 298.302 854.403 300.006H848.979C849.315 298.158 850.323 297.03 851.931 297.03ZM865.658 295.998C863.906 295.998 862.418 297.006 861.698 298.686V296.286H859.61V307.806H861.77V301.686C861.77 299.31 863.138 297.63 864.89 297.63C866.378 297.63 867.17 298.614 867.17 300.486V307.806H869.33V299.91C869.33 297.51 867.938 295.998 865.658 295.998ZM876.355 308.094C877.627 308.094 878.731 307.446 879.619 306.486L879.139 305.91C878.491 306.366 877.939 306.51 877.315 306.51C876.379 306.51 875.539 305.958 875.539 304.566V297.462H879.163V296.286H875.539V293.502H874.795C874.387 295.038 873.163 296.262 871.435 296.694V297.462H873.379V304.902C873.379 306.918 874.603 308.094 876.355 308.094ZM884.474 308.094C886.85 308.094 888.914 306.606 888.914 304.374C888.914 302.598 887.738 301.782 886.082 301.134L884.93 300.678C883.682 300.15 882.89 299.694 882.89 298.734C882.89 297.75 883.754 297.15 885.026 297.15C886.226 297.15 887.402 297.726 888.29 298.422V296.622C887.426 296.262 886.394 295.998 885.29 295.998C882.77 295.998 880.97 297.246 880.97 299.31C880.97 301.11 882.146 302.046 883.778 302.694L885.074 303.198C886.346 303.678 887.018 304.11 887.018 305.118C887.018 306.222 886.058 306.846 884.618 306.846C883.514 306.846 882.146 306.39 880.97 305.502V307.374C881.954 307.854 883.058 308.094 884.474 308.094Z" fill="#484848"/>
  <path d="M812.676 88.3707C812.676 85.4134 815.073 83.0161 818.03 83.0161H887.387C890.344 83.0161 892.741 85.4134 892.741 88.3707V88.3707C892.741 91.3279 890.344 93.7253 887.387 93.7253H818.03C815.073 93.7253 812.676 91.3279 812.676 88.3707V88.3707Z" fill="#484848"/>
  <path d="M760 90.3114L770.733 99.8002C771.164 100.181 771.825 100.121 772.181 99.6699L788.47 79" stroke="#484848" stroke-width="6"/>
  <rect x="737" y="59" width="171" height="167.032" rx="17" stroke="#484848" stroke-width="6"/>
  <rect x="812.674" y="117.302" width="80.0658" height="10.7091" rx="5.35457" fill="#484848"/>
  <rect x="812.674" y="152.777" width="80.0658" height="10.7091" rx="5.35457" fill="#484848"/>
  <rect x="812.674" y="187.578" width="80.0658" height="10.7091" rx="5.35457" fill="#484848"/>
  <path d="M759.999 126.139L770.732 135.627C771.162 136.008 771.824 135.948 772.18 135.497L788.469 114.827" stroke="#484848" stroke-width="6"/>
  <path d="M759.999 161.202L770.732 170.691C771.162 171.071 771.824 171.012 772.18 170.561L788.469 149.891" stroke="#484848" stroke-width="6"/>
  <path d="M759.999 196.273L770.732 205.762C771.162 206.143 771.824 206.083 772.18 205.632L788.469 184.962" stroke="#484848" stroke-width="6"/>
</svg>