<svg width="238" height="46" viewBox="0 0 238 46" fill="none" xmlns="http://www.w3.org/2000/svg">
<path d="M32.9251 1.05459L30.7172 1.06166L21.8645 24.6101L11.8533 1.12205L9.64526 1.12912L1.01764 34.9969L4.42562 34.986L9.59044 13.9934L18.7295 34.9402L20.8895 34.9333L29.1247 13.4028L35.1455 34.8877L42.2974 34.8648L32.9251 1.05459ZM66.1424 20.9644C66.1241 15.2524 62.5111 11.1839 55.9831 11.2048C49.1192 11.2268 44.1421 15.8988 44.1638 22.6667C44.1913 31.2587 50.1086 35.4158 56.5406 35.3952C60.9085 35.3812 64.1187 33.5469 66.1268 31.0925L64.5372 29.3215C63.2441 30.2377 61.759 31.1544 59.599 31.1614C55.4231 31.1747 51.7668 28.5944 51.0759 22.6926L66.1478 22.6444L66.1424 20.9644ZM55.4642 14.0385C58.4882 14.0288 59.2152 16.2345 59.2268 19.8345L50.9708 19.8609C51.1031 16.2125 52.5362 14.0479 55.4642 14.0385ZM78.4997 35.3249C81.5237 35.3152 84.0631 33.8671 85.9766 31.8449L84.6752 30.1691C83.8129 30.6998 82.854 31.0389 81.606 31.0429C79.59 31.0494 78.482 29.8049 78.4742 27.3569L78.4341 14.829L85.1541 14.8075L85.1441 11.6875L78.4241 11.709L78.4031 5.13303L76.3871 5.13948C75.102 8.55162 71.8 11.6822 68.0115 12.7983L68.0181 14.8623L71.8101 14.8502L71.8533 28.3381C71.8687 33.1381 74.8997 35.3364 78.4997 35.3249ZM99.0029 11.0671C90.8429 11.0932 88.5489 14.2206 88.5599 17.6286L95.7598 17.6055C95.7515 15.0135 96.8032 13.6662 99.0592 13.659C101.315 13.6517 102.231 14.9928 102.238 16.9128L102.256 22.5768C100.905 20.6131 98.7418 19.468 95.8138 19.4774C91.9738 19.4897 87.7583 22.1432 87.7752 27.4231C87.7918 32.6071 92.1684 35.2811 95.8644 35.2693C98.8884 35.2596 101.092 34.0045 102.43 31.8883L102.438 34.6722L108.918 34.6515L108.868 19.0036C108.852 13.9156 106.587 11.0428 99.0029 11.0671ZM98.3002 31.4695C96.1402 31.4764 94.1196 30.0428 94.111 27.3549C94.1024 24.6669 96.1138 23.2204 98.2738 23.2135C100.338 23.2069 102.358 24.6404 102.367 27.3284C102.376 30.0164 100.364 31.4629 98.3002 31.4695ZM125.494 35.1744C129.862 35.1605 133.073 33.3262 135.081 30.8717L133.491 29.1008C132.198 30.017 130.713 30.9337 128.553 30.9406C123.945 30.9554 119.999 27.752 119.975 20.312C119.962 16.1841 121.106 13.8284 124.13 13.8187C127.058 13.8093 127.881 16.0627 127.894 20.0467L134.95 20.0241C134.934 15.1761 131.321 10.9637 124.697 10.9849C117.929 11.0065 113.096 15.678 113.118 22.446C113.145 31.0379 119.062 35.195 125.494 35.1744ZM142.433 8.72008C144.737 8.7127 146.651 6.78657 146.643 4.48258C146.636 2.17859 144.71 0.264743 142.406 0.272119C140.102 0.279494 138.188 2.20563 138.195 4.50962C138.203 6.81361 140.129 8.72745 142.433 8.72008ZM145.828 34.5333L145.754 11.4935L139.13 11.5147L139.204 34.5545L145.828 34.5333ZM159.452 35.0657C162.476 35.056 165.016 33.6079 166.929 31.5858L165.628 29.9099C164.766 30.4407 163.807 30.7798 162.559 30.7838C160.543 30.7902 159.435 29.5458 159.427 27.0978L159.387 14.5698L166.107 14.5483L166.097 11.4283L159.377 11.4499L159.356 4.87388L157.34 4.88034C156.055 8.29247 152.753 11.4231 148.964 12.5392L148.971 14.6032L152.763 14.591L152.806 28.079C152.821 32.8789 155.852 35.0773 159.452 35.0657ZM181.107 25.5404L174.485 11.4015L167.238 11.4247L177.821 33.6629C176.727 36.9304 174.715 38.2329 172.027 38.2415C170.587 38.2461 169.147 38.0587 167.561 37.4878L167.583 44.3518C168.303 44.4934 169.072 44.539 170.032 44.5359C174.256 44.5224 178.18 40.9578 180.608 34.71L190.661 11.3497L186.965 11.3615L181.107 25.5404Z" fill="black" fill-opacity="0.87"/>
<rect x="202" y="11" width="12" height="12" fill="#2D2D2D"/>
<rect x="214" y="23" width="12" height="12" fill="#2D2D2D"/>
<rect x="226" y="11" width="12" height="12" fill="#2D2D2D"/>
</svg>
